<?xml version="1.0" encoding="UTF-8"?>
<!-- Generator: visioncortex VTracer 0.6.3 -->
<svg version="1.1" xmlns="http://www.w3.org/2000/svg" width="1280" height="410">
<path d="M0 0 C1.22 -0.02 2.45 -0.03 3.71 -0.05 C5.06 -0.05 6.4 -0.06 7.74 -0.06 C9.12 -0.07 10.49 -0.08 11.87 -0.09 C14.75 -0.11 17.64 -0.12 20.53 -0.12 C24.22 -0.12 27.91 -0.16 31.6 -0.21 C34.44 -0.24 37.29 -0.24 40.13 -0.25 C41.49 -0.25 42.85 -0.26 44.21 -0.28 C56.2 -0.45 56.2 -0.45 59.53 2.65 C61.16 5.31 61.16 5.31 61.16 8.31 C61.82 8.31 62.48 8.31 63.16 8.31 C64.39 9.85 64.39 9.85 65.79 12.06 C66.58 13.29 66.58 13.29 67.4 14.55 C68.27 15.91 68.27 15.91 69.16 17.31 C73.78 24.34 78.5 31.23 83.59 37.93 C85.06 40.15 85.74 41.72 86.16 44.31 C86.82 44.31 87.48 44.31 88.16 44.31 C88.66 46.78 88.66 46.78 89.16 49.31 C89.82 49.31 90.48 49.31 91.16 49.31 C91.16 33.14 91.16 16.97 91.16 0.31 C98.94 0.29 106.72 0.27 114.5 0.25 C118.13 0.25 121.75 0.24 125.38 0.23 C128.86 0.22 132.35 0.21 135.84 0.21 C137.82 0.21 139.8 0.2 141.79 0.19 C142.99 0.19 144.19 0.19 145.43 0.19 C147.02 0.19 147.02 0.19 148.64 0.19 C151.16 0.31 151.16 0.31 153.16 1.31 C153.16 42.56 153.16 83.81 153.16 126.31 C134.68 126.31 116.2 126.31 97.16 126.31 C96.83 125.32 96.5 124.33 96.16 123.31 C94.68 122.81 94.68 122.81 93.16 122.31 C91.63 120.51 90.19 118.64 88.79 116.74 C87.9 115.56 87.01 114.37 86.11 113.19 C85.64 112.56 85.16 111.93 84.67 111.28 C82.03 107.84 79.28 104.48 76.54 101.12 C75.98 100.44 75.43 99.76 74.85 99.06 C72.5 96.16 70.13 93.27 67.77 90.38 C64.03 85.78 60.58 81.12 57.39 76.12 C56.15 74.17 56.15 74.17 54.16 72.31 C54.4 73.46 54.4 73.46 54.65 74.63 C55.32 79.48 55.3 84.25 55.29 89.14 C55.29 90.17 55.3 91.2 55.3 92.27 C55.3 94.44 55.3 96.61 55.29 98.78 C55.29 102.12 55.29 105.46 55.3 108.8 C55.3 110.92 55.3 113.03 55.29 115.14 C55.3 116.14 55.3 117.15 55.3 118.18 C55.3 119.56 55.3 119.56 55.29 120.97 C55.29 121.79 55.29 122.6 55.29 123.44 C55.16 125.31 55.16 125.31 54.16 126.31 C52.26 126.4 50.35 126.42 48.45 126.42 C47.23 126.42 46.01 126.42 44.75 126.42 C43.4 126.41 42.06 126.41 40.72 126.4 C39.35 126.4 37.99 126.4 36.62 126.4 C33.02 126.4 29.42 126.39 25.81 126.38 C22.14 126.36 18.47 126.36 14.8 126.36 C7.58 126.34 0.37 126.33 -6.84 126.31 C-8.07 123.84 -7.97 122.21 -7.97 119.45 C-7.98 118.42 -7.98 117.39 -7.99 116.34 C-7.99 115.21 -7.98 114.08 -7.98 112.91 C-7.99 111.72 -7.99 110.54 -7.99 109.31 C-8 106.05 -8.01 102.79 -8.01 99.53 C-8.01 96.82 -8.01 94.1 -8.01 91.38 C-8.02 84.97 -8.03 78.55 -8.02 72.14 C-8.02 65.52 -8.03 58.9 -8.05 52.27 C-8.06 46.59 -8.07 40.92 -8.07 35.24 C-8.07 31.84 -8.07 28.45 -8.08 25.05 C-8.09 21.27 -8.09 17.48 -8.08 13.7 C-8.09 12.57 -8.09 11.44 -8.1 10.28 C-8.09 9.25 -8.09 8.22 -8.09 7.17 C-8.09 6.27 -8.09 5.37 -8.09 4.45 C-7.52 -0.46 -4.1 0.04 0 0 Z " fill="#D8052F" transform="translate(94.839111328125,256.693603515625)"/>
<path d="M0 0 C16.35 -0.05 32.7 -0.08 49.05 -0.1 C56.65 -0.11 64.24 -0.13 71.83 -0.15 C78.46 -0.17 85.08 -0.18 91.7 -0.19 C95.21 -0.19 98.71 -0.2 102.21 -0.21 C106.13 -0.23 110.06 -0.23 113.98 -0.23 C115.12 -0.23 116.27 -0.24 117.45 -0.25 C127.37 -0.22 137.02 0.51 146 5 C146 5.66 146 6.32 146 7 C146.59 7.09 147.18 7.18 147.78 7.28 C153.2 9.04 156.85 15.34 159.38 20.19 C164.53 30.83 162.64 43.67 159.17 54.49 C158 57 158 57 155 59 C154.26 60.3 154.26 60.3 153.5 61.62 C153 62.41 152.51 63.19 152 64 C151.01 64 150.02 64 149 64 C148.67 64.99 148.34 65.98 148 67 C141.75 70.91 133.97 72.78 127 75 C127 78.66 127.71 79.13 130.12 81.75 C130.77 82.46 131.41 83.16 132.07 83.89 C132.71 84.59 133.34 85.28 134 86 C135.01 87.16 136.01 88.33 137 89.5 C139.02 91.87 141.07 94.22 143.12 96.56 C164.47 120.95 164.47 120.95 167 126 C157.49 126.21 147.98 126.37 138.47 126.47 C134.05 126.51 129.64 126.58 125.22 126.68 C120.95 126.78 116.69 126.83 112.42 126.85 C110.8 126.87 109.17 126.9 107.55 126.95 C94.84 127.32 94.84 127.32 90.25 124.03 C88.23 121.78 86.6 119.56 85 117 C84.24 116.08 83.47 115.17 82.69 114.22 C82.13 113.51 81.57 112.8 81 112.06 C80.13 110.97 80.13 110.97 79.25 109.85 C78 108 78 108 78 106 C77.34 106 76.68 106 76 106 C74.41 103.99 74.41 103.99 72.62 101.31 C70.68 98.44 68.75 95.7 66.56 93 C65 91 65 91 65 89 C64.34 89 63.68 89 63 89 C63.99 94.44 63.99 94.44 65 100 C65 108.58 65 117.16 65 126 C43.88 126 22.76 126 1 126 C-0.25 123.51 -0.12 121.84 -0.12 119.05 C-0.12 118.01 -0.12 116.96 -0.12 115.88 C-0.12 114.73 -0.12 113.58 -0.11 112.39 C-0.11 111.18 -0.11 109.97 -0.11 108.72 C-0.11 105.4 -0.11 102.08 -0.1 98.76 C-0.1 95.29 -0.09 91.82 -0.09 88.35 C-0.09 81.77 -0.08 75.2 -0.07 68.63 C-0.06 61.15 -0.06 53.66 -0.05 46.18 C-0.04 30.79 -0.02 15.39 0 0 Z M65 36 C64.97 39.81 64.95 43.62 64.94 47.44 C64.93 48.53 64.92 49.61 64.91 50.74 C64.91 51.77 64.91 52.81 64.9 53.87 C64.9 54.83 64.89 55.79 64.89 56.78 C64.75 58.97 64.75 58.97 66 60 C81.17 60.96 81.17 60.96 95.06 56 C97.83 53.14 98.16 51.5 98.19 47.62 C98.2 46.85 98.22 46.08 98.23 45.29 C97.96 42.56 97.66 41.21 96 39 C89.8 35.22 83.65 35.65 76.56 35.81 C74.89 35.83 74.89 35.83 73.19 35.85 C70.46 35.89 67.73 35.94 65 36 Z " fill="#D8052F" transform="translate(576,257)"/>
<path d="M0 0 C1.37 0.01 1.37 0.01 2.77 0.01 C3.72 0.01 4.68 0.01 5.66 0.01 C8.84 0.01 12.02 0.02 15.19 0.03 C17.39 0.03 19.58 0.03 21.78 0.03 C27.57 0.03 33.36 0.04 39.15 0.06 C45.06 0.07 50.96 0.07 56.87 0.08 C68.46 0.09 80.06 0.1 91.66 0.12 C92.3 1.4 92.95 2.68 93.6 3.95 C93.96 4.66 94.32 5.38 94.69 6.11 C95.82 8.46 96.61 10.79 97.3 13.31 C97.56 14.25 97.82 15.18 98.09 16.14 C98.36 17.13 98.63 18.11 98.91 19.12 C101.37 27.86 104.02 36.51 106.91 45.12 C107.24 46.11 107.56 47.09 107.9 48.1 C109.29 52.21 110.7 56.3 112.25 60.35 C113.64 64.02 114.82 67.74 115.97 71.5 C117.77 77.34 119.64 83.15 121.59 88.94 C124.03 96.18 126.37 103.46 128.65 110.76 C129 111.87 129 111.87 129.36 113.02 C129.58 113.72 129.8 114.42 130.02 115.15 C130.6 116.94 131.24 118.72 131.89 120.48 C132.66 123.12 132.66 123.12 131.66 126.12 C123.49 126.19 115.33 126.25 107.17 126.28 C103.38 126.3 99.59 126.32 95.8 126.35 C92.14 126.38 88.49 126.4 84.83 126.41 C83.43 126.41 82.04 126.43 80.64 126.44 C78.69 126.46 76.73 126.46 74.78 126.46 C73.67 126.47 72.56 126.48 71.41 126.49 C68.66 126.12 68.66 126.12 65.66 123.12 C64.34 119.16 63.02 115.2 61.66 111.12 C42.85 110.63 42.85 110.63 23.66 110.12 C22.67 114.08 21.68 118.04 20.66 122.12 C19.67 124.1 19.67 124.1 18.66 126.12 C-2.46 126.12 -23.58 126.12 -45.34 126.12 C-46.45 121.69 -45.79 119.25 -44.47 115.06 C-44.13 113.96 -44.13 113.96 -43.79 112.83 C-40.4 101.88 -36.69 91.03 -33.03 80.17 C-30.98 74.06 -28.92 67.95 -26.88 61.84 C-26.12 59.57 -25.36 57.31 -24.59 55.05 C-21.94 47.15 -19.45 39.22 -17.13 31.21 C-15.27 24.8 -13.22 18.46 -11.09 12.12 C-10.74 11.06 -10.39 10.01 -10.03 8.91 C-9.7 7.91 -9.36 6.91 -9.02 5.87 C-8.72 4.98 -8.42 4.09 -8.11 3.17 C-6.55 -0.99 -4.1 0.01 0 0 Z M41.66 35.12 C41.53 36.14 41.41 37.15 41.29 38.19 C40.68 41.99 39.75 45.39 38.55 49.05 C38.14 50.33 37.73 51.62 37.32 52.9 C36.67 54.9 36.02 56.9 35.37 58.89 C34.74 60.84 34.11 62.79 33.49 64.73 C33.12 65.89 32.74 67.04 32.35 68.23 C31.38 71.17 31.38 71.17 32.66 74.12 C39.92 74.12 47.18 74.12 54.66 74.12 C53.96 71.94 53.25 69.75 52.53 67.5 C49.98 59.48 47.79 51.38 45.71 43.23 C45.47 42.32 45.23 41.41 44.99 40.47 C44.67 39.25 44.67 39.25 44.35 38 C43.83 35.92 43.83 35.92 41.66 35.12 Z " fill="#D8052F" transform="translate(958.3436279296875,256.8755798339844)"/>
<path d="M0 0 C17.96 -0.05 35.92 -0.08 53.88 -0.1 C62.21 -0.11 70.55 -0.13 78.89 -0.15 C86.15 -0.17 93.42 -0.18 100.69 -0.19 C104.53 -0.19 108.38 -0.2 112.23 -0.21 C115.85 -0.22 119.47 -0.23 123.09 -0.23 C125.06 -0.23 127.03 -0.24 128.99 -0.25 C130.74 -0.24 130.74 -0.24 132.52 -0.24 C134.04 -0.24 134.04 -0.24 135.6 -0.25 C138 0 138 0 140 2 C140.18 5.01 140.23 7.93 140.2 10.95 C140.19 11.83 140.19 12.72 140.19 13.63 C140.18 16.46 140.15 19.29 140.12 22.12 C140.11 24.04 140.11 25.96 140.1 27.88 C140.08 32.59 140.04 37.29 140 42 C137.02 43.49 134.3 43.17 130.98 43.21 C130.26 43.22 129.54 43.23 128.79 43.24 C126.4 43.27 124.01 43.29 121.62 43.32 C119.96 43.34 118.3 43.36 116.65 43.38 C112.29 43.43 107.92 43.48 103.56 43.53 C99.11 43.58 94.66 43.64 90.21 43.69 C81.47 43.8 72.74 43.9 64 44 C64 46.31 64 48.62 64 51 C64.91 51.01 65.82 51.02 66.75 51.02 C75.3 51.1 83.85 51.19 92.4 51.29 C96.79 51.34 101.19 51.38 105.58 51.42 C109.83 51.46 114.07 51.51 118.31 51.56 C119.93 51.58 121.54 51.59 123.16 51.6 C125.43 51.62 127.69 51.65 129.96 51.68 C131.89 51.7 131.89 51.7 133.87 51.72 C137 52 137 52 140 54 C140.34 56.8 140.34 56.8 140.29 60.32 C140.28 61.58 140.27 62.83 140.26 64.13 C140.24 65.45 140.21 66.77 140.19 68.12 C140.17 69.46 140.16 70.8 140.15 72.14 C140.11 75.43 140.06 78.71 140 82 C137.02 83.49 134.3 83.17 130.98 83.21 C130.26 83.22 129.54 83.23 128.79 83.24 C126.4 83.27 124.01 83.29 121.62 83.32 C119.96 83.34 118.3 83.36 116.65 83.38 C112.29 83.43 107.92 83.48 103.56 83.53 C99.11 83.58 94.66 83.64 90.21 83.69 C81.47 83.8 72.74 83.9 64 84 C64 85.98 64 87.96 64 90 C65.38 90.01 65.38 90.01 66.8 90.02 C75.48 90.1 84.16 90.19 92.84 90.29 C97.31 90.34 101.77 90.38 106.23 90.42 C110.54 90.46 114.84 90.51 119.15 90.56 C120.79 90.58 122.44 90.59 124.08 90.6 C126.38 90.62 128.68 90.65 130.98 90.68 C132.29 90.69 133.6 90.71 134.95 90.72 C138 91 138 91 140 93 C140.19 95.43 140.26 97.73 140.23 100.16 C140.23 100.87 140.23 101.57 140.23 102.3 C140.23 103.79 140.22 105.28 140.21 106.77 C140.19 109.06 140.19 111.35 140.19 113.63 C140.18 115.08 140.17 116.53 140.17 117.97 C140.17 118.66 140.17 119.35 140.16 120.06 C140.12 124.88 140.12 124.88 139 126 C137.22 126.1 135.44 126.13 133.65 126.13 C132.49 126.14 131.33 126.14 130.14 126.15 C128.86 126.15 127.57 126.15 126.25 126.15 C124.89 126.15 123.54 126.15 122.18 126.16 C118.49 126.16 114.79 126.17 111.1 126.17 C108.02 126.17 104.94 126.17 101.86 126.18 C94.6 126.18 87.34 126.19 80.07 126.19 C72.57 126.18 65.07 126.2 57.57 126.21 C51.14 126.22 44.71 126.23 38.27 126.23 C34.43 126.23 30.58 126.23 26.74 126.24 C23.12 126.25 19.51 126.25 15.89 126.24 C13.93 126.24 11.96 126.25 10 126.26 C8.83 126.26 7.67 126.25 6.47 126.25 C5.46 126.25 4.44 126.25 3.4 126.25 C1 126 1 126 -1 124 C-1.25 121.85 -1.25 121.85 -1.25 119.14 C-1.25 118.11 -1.26 117.09 -1.26 116.03 C-1.25 114.9 -1.25 113.77 -1.24 112.61 C-1.24 111.42 -1.25 110.23 -1.25 109.01 C-1.25 105.75 -1.25 102.49 -1.24 99.23 C-1.23 95.82 -1.23 92.41 -1.23 89 C-1.23 83.28 -1.22 77.56 -1.21 71.83 C-1.19 65.21 -1.18 58.59 -1.19 51.97 C-1.19 45.6 -1.18 39.24 -1.17 32.88 C-1.17 30.17 -1.17 27.46 -1.17 24.74 C-1.16 20.96 -1.16 17.18 -1.15 13.39 C-1.15 12.26 -1.15 11.13 -1.15 9.97 C-1.14 8.94 -1.14 7.92 -1.13 6.86 C-1.13 5.96 -1.13 5.07 -1.13 4.15 C-1 2 -1 2 0 0 Z " fill="#D8052F" transform="translate(415,257)"/>
<path d="M0 0 C0.95 -0 1.91 -0.01 2.89 -0.01 C3.93 -0.01 4.96 -0.01 6.02 -0 C7.08 -0 8.14 -0.01 9.23 -0.01 C11.47 -0.01 13.71 -0.01 15.95 -0 C19.38 0 22.82 -0 26.26 -0.01 C28.43 -0.01 30.6 -0.01 32.77 -0 C33.81 -0.01 34.84 -0.01 35.9 -0.01 C36.86 -0.01 37.81 -0 38.8 0 C39.64 0 40.48 0 41.35 0 C43.4 0.13 43.4 0.13 45.4 1.13 C47.42 1.41 49.44 1.64 51.47 1.85 C53.31 2.04 53.31 2.04 55.19 2.23 C56.47 2.37 57.76 2.5 59.09 2.63 C61.61 2.89 64.14 3.15 66.66 3.41 C67.78 3.52 68.91 3.64 70.07 3.76 C71.17 3.88 72.27 4 73.4 4.13 C74.63 4.25 75.86 4.37 77.13 4.49 C80.56 5.16 81.36 5.45 83.4 8.13 C83.76 10.12 83.76 10.12 83.74 12.42 C83.74 13.28 83.74 14.14 83.74 15.03 C83.72 15.95 83.71 16.88 83.69 17.83 C83.69 18.78 83.68 19.73 83.68 20.71 C83.66 23.74 83.62 26.78 83.59 29.82 C83.57 31.87 83.56 33.93 83.54 35.99 C83.51 41.04 83.46 46.08 83.4 51.13 C81.25 51.16 79.11 51.18 76.96 51.19 C75.77 51.2 74.57 51.22 73.34 51.23 C70.4 51.13 70.4 51.13 69.4 50.13 C49.48 47.58 17.82 44.07 0.59 56.13 C-3.03 59.18 -5.88 62.35 -6.6 67.13 C-7.38 78.12 -7.38 78.12 -3.6 88.13 C2.21 94.3 10.64 96.17 18.75 97.25 C20 97.42 21.24 97.58 22.53 97.76 C23.95 97.94 23.95 97.94 25.4 98.13 C25.44 96.64 25.44 96.64 25.47 95.12 C25.57 91.44 25.67 87.76 25.77 84.09 C25.81 82.49 25.86 80.9 25.9 79.3 C25.95 77.02 26.02 74.73 26.08 72.45 C26.1 71.73 26.12 71.01 26.13 70.27 C26.28 65.24 26.28 65.24 27.4 64.13 C29.1 64.03 30.81 63.99 32.51 63.98 C34.15 63.97 34.15 63.97 35.82 63.96 C37.6 63.96 37.6 63.96 39.42 63.96 C40.63 63.96 41.85 63.95 43.1 63.95 C45.67 63.95 48.24 63.94 50.81 63.94 C54.75 63.94 58.69 63.92 62.63 63.9 C65.12 63.9 67.62 63.9 70.11 63.9 C71.29 63.89 72.48 63.88 73.7 63.88 C75.35 63.88 75.35 63.88 77.02 63.89 C77.99 63.89 78.96 63.88 79.96 63.88 C82.4 64.13 82.4 64.13 85.4 66.13 C85.77 68.41 85.77 68.41 85.77 71.28 C85.78 72.36 85.78 73.43 85.79 74.54 C85.78 76.28 85.78 76.28 85.76 78.07 C85.76 79.85 85.76 79.85 85.76 81.68 C85.76 84.2 85.75 86.72 85.73 89.24 C85.71 93.11 85.71 96.98 85.72 100.86 C85.72 103.3 85.71 105.75 85.7 108.19 C85.7 109.36 85.7 110.52 85.7 111.72 C85.69 112.8 85.68 113.87 85.67 114.98 C85.67 115.93 85.66 116.87 85.66 117.85 C85.4 120.13 85.4 120.13 83.4 122.13 C81.5 122.7 79.58 123.19 77.65 123.63 C74.54 124.35 71.54 125.08 68.52 126.13 C64.76 127.33 61.04 127.99 57.15 128.63 C52.55 129.4 48 130.19 43.46 131.25 C35.9 132.8 28.09 132.87 20.4 133.13 C18.54 133.19 18.54 133.19 16.64 133.26 C-8.1 133.67 -33.69 131.04 -52.38 113.36 C-59.71 106.01 -65.59 98.17 -68.6 88.13 C-69.13 86.45 -69.13 86.45 -69.66 84.74 C-71.15 78.68 -70.93 72.52 -70.91 66.32 C-70.93 65.11 -70.95 63.9 -70.96 62.66 C-70.97 51.59 -68.91 42.55 -63.41 32.94 C-63.05 32.28 -62.68 31.61 -62.3 30.92 C-61.41 29.32 -60.51 27.72 -59.6 26.13 C-58.94 26.13 -58.28 26.13 -57.6 26.13 C-57.52 25.55 -57.44 24.97 -57.35 24.38 C-56.38 21.45 -54.97 20.08 -52.6 18.13 C-51.61 18.13 -50.62 18.13 -49.6 18.13 C-49.27 17.14 -48.94 16.15 -48.6 15.13 C-46.12 13.66 -43.7 12.37 -41.1 11.13 C-40.37 10.77 -39.63 10.42 -38.87 10.05 C-30.12 5.87 -21.91 3.68 -12.36 2.13 C-8.02 1.42 -4.38 0 0 0 Z " fill="#D8052F" transform="translate(819.6015625,253.87060546875)"/>
<path d="M0 0 C2.12 0.01 4.24 0 6.36 -0.01 C31.52 -0.02 31.52 -0.02 35.82 2.13 C37.59 2.38 39.38 2.59 41.16 2.78 C42.22 2.9 43.29 3.02 44.38 3.14 C46.63 3.38 48.87 3.62 51.12 3.85 C52.19 3.97 53.25 4.09 54.35 4.22 C55.32 4.32 56.3 4.42 57.31 4.53 C59.82 5.13 59.82 5.13 61.64 6.16 C63.58 9.4 63.18 12.86 63.11 16.52 C63.11 17.33 63.1 18.15 63.1 18.99 C63.08 21.6 63.05 24.21 63.01 26.82 C62.99 28.59 62.98 30.36 62.97 32.12 C62.93 36.46 62.88 40.8 62.82 45.13 C62.17 45.08 61.52 45.02 60.86 44.96 C48.31 43.9 35.78 42.92 23.2 42.47 C17.02 42.23 17.02 42.23 14.82 41.13 C10.67 40.88 10.67 40.88 6.82 42.13 C3.94 42.36 1.08 42.55 -1.81 42.69 C-2.61 42.74 -3.41 42.78 -4.24 42.82 C-6.22 42.93 -8.2 43.03 -10.18 43.13 C-10.18 44.78 -10.18 46.43 -10.18 48.13 C-5.17 49.77 -0.69 50.41 4.6 50.4 C6.1 50.42 7.6 50.44 9.09 50.47 C11.41 50.49 13.73 50.51 16.04 50.51 C33.77 50.59 49.77 53.07 63.09 65.68 C67.66 72.16 68.33 79.34 68.19 87.07 C68.18 88.39 68.18 88.39 68.16 89.74 C67.87 101.32 65.1 108.75 56.82 117.13 C50.07 123.05 43.34 126.5 34.82 129.13 C33.78 129.54 33.78 129.54 32.73 129.96 C19.79 135.01 4.56 134.47 -9.12 134.38 C-9.91 134.38 -10.7 134.38 -11.52 134.37 C-52.06 134.25 -52.06 134.25 -55.18 131.13 C-58.57 130.68 -61.96 130.31 -65.37 129.97 C-70.97 129.34 -70.97 129.34 -73.18 127.13 C-73.36 124.48 -73.41 121.93 -73.38 119.28 C-73.37 118.12 -73.37 118.12 -73.37 116.93 C-73.36 114.46 -73.33 111.98 -73.31 109.51 C-73.3 107.83 -73.29 106.15 -73.28 104.47 C-73.26 100.36 -73.22 96.24 -73.18 92.13 C-72.38 92.22 -71.57 92.3 -70.74 92.39 C-67.68 92.71 -64.62 93.04 -61.56 93.36 C-59.61 93.56 -57.67 93.77 -55.72 93.98 C-48.11 94.77 -40.53 95.42 -32.9 95.87 C-30.18 96.13 -30.18 96.13 -28.18 97.13 C-26.24 97.23 -24.31 97.26 -22.37 97.26 C-21.21 97.26 -20.05 97.27 -18.86 97.27 C-17.04 97.26 -17.04 97.26 -15.18 97.26 C-13.97 97.26 -12.75 97.26 -11.5 97.27 C-10.34 97.27 -9.19 97.26 -7.99 97.26 C-6.39 97.26 -6.39 97.26 -4.76 97.26 C-2.19 97.3 -2.19 97.3 -0.18 96.13 C-0.14 94.46 -0.14 92.8 -0.18 91.13 C-2.19 89.12 -6.19 89.81 -8.95 89.7 C-10.58 89.63 -12.21 89.55 -13.83 89.48 C-16.4 89.37 -18.96 89.26 -21.52 89.16 C-31.45 88.76 -40.61 88.02 -50.18 85.13 C-51.66 84.77 -53.14 84.42 -54.62 84.07 C-58.9 82.59 -62.4 80.07 -65.99 77.38 C-66.54 76.97 -67.1 76.57 -67.66 76.15 C-73.3 71.73 -76.47 66.12 -78.18 59.13 C-78.5 55.92 -78.56 52.73 -78.56 49.51 C-78.55 48.62 -78.55 47.73 -78.55 46.82 C-78.37 37.29 -76.31 28.66 -70.18 21.13 C-69.75 20.58 -69.31 20.03 -68.86 19.47 C-56.91 5.87 -34.89 1.7 -17.7 0.33 C-11.8 -0.01 -5.91 -0.02 0 0 Z " fill="#D8052F" transform="translate(1174.180419921875,252.86962890625)"/>
<path d="M0 0 C0.66 0 1.32 0 2 0 C3.69 2.05 3.69 2.05 5.56 4.75 C6.18 5.63 6.8 6.51 7.44 7.42 C9 10 9 10 9.53 12.27 C9.76 13.12 9.76 13.12 10 14 C10.99 14.33 11.98 14.66 13 15 C14.45 17.57 15.75 20.08 17 22.75 C17.69 24.18 18.37 25.62 19.06 27.05 C19.56 28.08 19.56 28.08 20.06 29.13 C21.05 31.17 21.05 31.17 22.62 33.65 C24.18 36.31 25.08 38.88 26 41.81 C27.09 45.21 28.18 48.56 29.5 51.88 C33.04 61.27 35.3 70.92 37.19 80.75 C37.35 81.61 37.52 82.48 37.69 83.36 C39.47 92.95 40.15 102.35 40.13 112.09 C40.13 113.12 40.13 114.14 40.14 115.2 C40.14 117.35 40.13 119.5 40.13 121.66 C40.13 124.93 40.13 128.19 40.14 131.46 C40.14 133.57 40.13 135.67 40.13 137.78 C40.13 138.74 40.14 139.7 40.14 140.69 C40.08 156.75 37.25 172.04 32.97 187.46 C32.07 190.73 31.28 194.01 30.5 197.31 C29.15 202.77 27.24 207.85 25 213 C24.7 213.72 24.39 214.44 24.08 215.18 C23.39 216.79 22.7 218.39 22 220 C20.52 220.03 19.04 220.05 17.56 220.06 C16.74 220.07 15.92 220.09 15.07 220.1 C13 220 13 220 12 219 C11.77 214.72 11.9 211.03 12.94 206.88 C18.43 184.23 15.35 156.89 4.57 136.26 C3.13 133.71 3.13 133.71 0 133 C-1.02 136 -2.01 138.99 -3 142 C-3.34 143.01 -3.67 144.03 -4.02 145.07 C-6.09 151.49 -7.64 157.76 -8.61 164.44 C-9 167 -9 167 -9.51 168.81 C-10.57 173.55 -10.18 178.54 -10.19 183.38 C-10.2 184.46 -10.21 185.55 -10.22 186.66 C-10.24 197.96 -9.04 208.59 -8 220 C-255.83 220 -503.66 220 -759 220 C-759.66 218.68 -760.32 217.36 -761 216 C-759 214 -759 214 -756.81 213.75 C-755.42 213.75 -755.42 213.75 -754.01 213.75 C-752.95 213.75 -751.89 213.74 -750.79 213.74 C-749.02 213.75 -749.02 213.75 -747.21 213.75 C-745.96 213.75 -744.71 213.75 -743.42 213.75 C-739.93 213.74 -736.43 213.75 -732.94 213.76 C-729.14 213.76 -725.35 213.76 -721.55 213.75 C-714.9 213.75 -708.24 213.75 -701.58 213.76 C-691.68 213.77 -681.78 213.77 -671.88 213.77 C-655.23 213.77 -638.58 213.78 -621.93 213.79 C-605.44 213.8 -588.94 213.81 -572.45 213.81 C-571.42 213.81 -570.4 213.81 -569.34 213.81 C-564.14 213.81 -558.94 213.81 -553.74 213.81 C-516.86 213.82 -479.99 213.83 -443.11 213.85 C-407.28 213.87 -371.45 213.88 -335.62 213.89 C-334.52 213.89 -333.42 213.89 -332.28 213.89 C-321.2 213.89 -310.11 213.9 -299.03 213.9 C-276.44 213.9 -253.86 213.91 -231.28 213.92 C-230.24 213.92 -229.2 213.92 -228.13 213.92 C-158.75 213.93 -89.38 213.97 -20 214 C-20.3 213.1 -20.3 213.1 -20.61 212.19 C-21.54 209.45 -22.46 206.71 -23.38 203.96 C-23.7 203.02 -24.02 202.08 -24.34 201.11 C-26.77 193.87 -28.75 186.67 -30.31 179.19 C-30.56 178.04 -30.8 176.9 -31.06 175.72 C-33.74 162.93 -35.12 150.28 -35.75 137.23 C-35.87 133.99 -35.87 133.99 -37 131 C-37.09 129.32 -37.13 127.64 -37.13 125.96 C-37.13 124.99 -37.14 124.02 -37.14 123.01 C-37.13 122 -37.13 120.98 -37.12 119.94 C-37.13 118.92 -37.13 117.9 -37.14 116.85 C-37.14 115.88 -37.13 114.9 -37.13 113.9 C-37.13 112.56 -37.13 112.56 -37.13 111.2 C-37 109 -37 109 -36 107 C-35.8 105.35 -35.66 103.7 -35.54 102.05 C-35.46 101.04 -35.38 100.04 -35.3 99 C-35.22 97.93 -35.14 96.86 -35.06 95.75 C-33.91 81.36 -32.03 67.92 -28 54 C-27.7 52.91 -27.4 51.82 -27.1 50.69 C-24.62 42 -21 34.07 -17 26 C-16.7 25.4 -16.4 24.79 -16.1 24.17 C-14.42 20.77 -12.72 17.38 -11 14 C-10.34 14 -9.68 14 -9 14 C-8.92 13.45 -8.83 12.9 -8.75 12.33 C-7.76 9.25 -6.09 7.26 -4.06 4.75 C-3.35 3.86 -2.64 2.97 -1.91 2.05 C-1.28 1.37 -0.65 0.7 0 0 Z " fill="#D9052F" transform="translate(761,11)"/>
<path d="M0 0 C8.81 8.01 13.99 18.37 19 29 C19.47 29.97 19.93 30.95 20.41 31.95 C27.17 46.43 31.66 61.36 34.05 77.14 C34.6 81.19 34.6 81.19 36 85 C37.98 100.64 38.24 116.52 37.69 132.25 C37.65 133.25 37.65 133.25 37.62 134.28 C37.26 144.04 36.89 153.71 34.59 163.23 C33.97 166.15 33.53 169.08 33.09 172.04 C31.06 185.52 27 198.3 22.55 211.17 C21.9 213 21.9 213 22 215 C123.64 215 225.28 215 330 215 C330.33 216.32 330.66 217.64 331 219 C225.07 219.33 119.14 219.66 10 220 C8.9 213.38 8.9 213.38 9.92 209.66 C11.39 203.04 11.3 196.43 11.26 189.7 C11.25 187.5 11.26 185.31 11.27 183.12 C11.28 175.54 10.9 168.37 9 161 C8.78 159.97 8.55 158.95 8.32 157.89 C6.66 151 4.47 144.46 1.99 137.84 C1 135 1 135 1 133 C-0.32 133.33 -1.64 133.66 -3 134 C-3.08 134.66 -3.16 135.32 -3.25 136 C-3.9 138.61 -4.65 140.45 -5.88 142.81 C-12.59 155.87 -13.35 169.1 -13.25 183.56 C-13.25 184.31 -13.25 185.05 -13.24 185.82 C-13.21 197.31 -12.68 208.62 -11 220 C-13.93 220.3 -16.15 220.5 -19 220 C-23.44 216.04 -25.21 211.72 -26.94 206.12 C-27.18 205.36 -27.43 204.59 -27.68 203.8 C-33.55 184.96 -37.55 166.32 -38.75 146.61 C-38.91 143.89 -38.91 143.89 -40 141 C-40.1 138.67 -40.13 136.33 -40.13 134 C-40.13 133.32 -40.13 132.64 -40.14 131.94 C-40.14 130.51 -40.13 129.07 -40.13 127.64 C-40.13 125.44 -40.13 123.25 -40.14 121.05 C-40.14 119.66 -40.13 118.26 -40.13 116.87 C-40.13 115.6 -40.13 114.33 -40.13 113.03 C-40 110 -40 110 -39 108 C-38.8 106.65 -38.66 105.28 -38.54 103.92 C-38.46 103.1 -38.38 102.27 -38.3 101.42 C-38.22 100.54 -38.14 99.66 -38.06 98.75 C-36.78 85.4 -34.98 72.85 -31 60 C-30.48 58.23 -29.96 56.46 -29.44 54.69 C-28.96 53.12 -28.48 51.56 -28 50 C-27.77 49.22 -27.53 48.44 -27.29 47.63 C-26.15 44 -24.95 40.71 -23 37.44 C-21.17 34.3 -19.95 31.41 -18.81 27.99 C-17.79 25.47 -16.44 23.31 -15 21 C-14.23 19.73 -13.46 18.46 -12.7 17.19 C-11.84 15.79 -10.98 14.4 -10.12 13 C-9.7 12.3 -9.28 11.6 -8.85 10.88 C-6.27 6.7 -3.62 3.33 0 0 Z " fill="#D6052F" transform="translate(944,11)"/>
<path d="M0 0 C17.96 -0.05 35.92 -0.08 53.88 -0.1 C62.21 -0.11 70.55 -0.13 78.89 -0.15 C86.15 -0.17 93.42 -0.18 100.69 -0.19 C104.53 -0.19 108.38 -0.2 112.23 -0.21 C115.85 -0.22 119.47 -0.23 123.09 -0.23 C125.06 -0.23 127.03 -0.24 128.99 -0.25 C130.74 -0.24 130.74 -0.24 132.52 -0.24 C134.04 -0.24 134.04 -0.24 135.6 -0.25 C138 0 138 0 140 2 C140.24 4.1 140.24 4.1 140.23 6.73 C140.23 8.2 140.23 8.2 140.23 9.7 C140.22 10.76 140.21 11.82 140.2 12.91 C140.19 14 140.19 15.08 140.19 16.2 C140.18 19.68 140.15 23.15 140.12 26.62 C140.11 28.98 140.11 31.33 140.1 33.68 C140.08 39.45 140.04 45.23 140 51 C127.79 51 115.58 51 103 51 C102.67 75.75 102.34 100.5 102 126 C91.65 126.04 81.29 126.08 70.62 126.12 C65.72 126.15 65.72 126.15 60.71 126.18 C58.13 126.19 55.56 126.19 52.98 126.2 C52.3 126.2 51.63 126.21 50.94 126.21 C48.96 126.23 46.99 126.23 45.01 126.23 C43.34 126.23 43.34 126.23 41.63 126.24 C39 126 39 126 37 124 C36.76 120.99 36.76 120.99 36.77 117.07 C36.77 116.36 36.77 115.65 36.77 114.91 C36.77 112.55 36.79 110.2 36.8 107.84 C36.81 106.2 36.81 104.57 36.81 102.93 C36.82 98.63 36.84 94.33 36.86 90.02 C36.89 84.86 36.9 79.7 36.91 74.54 C36.93 66.69 36.97 58.85 37 51 C25.12 51 13.24 51 1 51 C-0.22 48.56 -0.12 47 -0.11 44.27 C-0.11 43.29 -0.11 42.31 -0.11 41.3 C-0.11 40.24 -0.1 39.18 -0.1 38.09 C-0.1 37 -0.09 35.92 -0.09 34.8 C-0.09 31.32 -0.08 27.85 -0.06 24.38 C-0.06 22.02 -0.05 19.67 -0.05 17.32 C-0.04 11.55 -0.02 5.77 0 0 Z " fill="#D8052F" transform="translate(261,257)"/>
<path d="M0 0 C3.82 3.6 7.43 7.38 10 12 C10 12.99 10 13.98 10 15 C10.99 15.33 11.98 15.66 13 16 C13.99 17.68 13.99 17.68 14.88 19.88 C16.34 23.42 17.87 26.9 19.5 30.38 C21.97 35.82 24.08 41.33 26 47 C26.33 47.96 26.66 48.92 27 49.91 C38.74 86.03 41.97 134.14 32 171 C30.9 175.46 29.98 179.79 29.62 184.38 C29.18 189.05 27.65 193.09 25.97 197.45 C24.78 200.59 23.89 203.76 23 207 C22.32 209.29 21.63 211.59 20.94 213.88 C20.6 215.01 20.25 216.14 19.9 217.3 C19 220 19 220 18 221 C12.16 221.37 12.16 221.37 10 221 C9.34 220.01 8.68 219.02 8 218 C8.44 216.34 8.89 214.69 9.42 213.06 C16.02 189.56 11.13 157.67 1 136 C0.34 135.01 -0.32 134.02 -1 133 C-5.88 142.14 -10.16 150.7 -12 161 C-12.17 161.91 -12.34 162.83 -12.51 163.77 C-13.37 169.45 -13.28 175.14 -13.31 180.88 C-13.32 181.53 -13.32 182.19 -13.32 182.86 C-13.36 195.84 -11.7 208.31 -9 221 C-16.08 221.6 -16.08 221.6 -19.75 219.2 C-22.92 214.7 -24.42 210.03 -26.06 204.81 C-26.41 203.74 -26.75 202.68 -27.11 201.58 C-31.07 189.04 -33.84 176.44 -35.61 163.41 C-35.88 161 -35.88 161 -37 159 C-38.13 151.86 -38.15 144.65 -38.13 137.44 C-38.13 136.37 -38.13 135.29 -38.14 134.19 C-38.14 131.94 -38.13 129.68 -38.13 127.43 C-38.13 124.01 -38.13 120.59 -38.14 117.16 C-38.14 114.96 -38.13 112.76 -38.13 110.56 C-38.13 109.55 -38.14 108.54 -38.14 107.5 C-38.11 98.88 -37.51 90.59 -35.52 82.2 C-35 80.02 -34.56 77.83 -34.14 75.63 C-30.8 58.56 -25.95 42.5 -18 27 C-17.49 26 -17.49 26 -16.97 24.98 C-15.93 22.94 -14.88 20.91 -13.81 18.88 C-13.49 18.26 -13.17 17.64 -12.84 17.01 C-10.88 13.34 -8.65 10.19 -6 7 C-5.48 6.11 -4.97 5.23 -4.44 4.31 C-3 2 -3 2 0 0 Z " fill="#D8052F" transform="translate(856,10)"/>
<path d="M0 0 C8.18 0.08 16.36 0.18 24.54 0.29 C28.34 0.34 32.13 0.38 35.93 0.42 C39.6 0.46 43.26 0.51 46.92 0.56 C48.32 0.58 49.72 0.59 51.12 0.6 C53.08 0.62 55.03 0.65 56.99 0.68 C58.66 0.7 58.66 0.7 60.37 0.72 C63 1 63 1 65 3 C65.25 5.18 65.25 5.18 65.24 7.95 C65.24 8.99 65.25 10.04 65.25 11.12 C65.24 12.85 65.24 12.85 65.23 14.61 C65.23 15.82 65.23 17.03 65.23 18.28 C65.23 21.6 65.22 24.92 65.2 28.24 C65.19 31.71 65.19 35.18 65.19 38.65 C65.18 45.23 65.16 51.8 65.14 58.37 C65.12 65.85 65.11 73.34 65.1 80.82 C65.08 96.21 65.04 111.61 65 127 C56.69 127.05 48.38 127.08 40.07 127.1 C36.21 127.11 32.35 127.13 28.49 127.15 C24.77 127.17 21.05 127.18 17.33 127.19 C15.91 127.19 14.49 127.2 13.06 127.21 C11.08 127.23 9.09 127.23 7.1 127.23 C5.97 127.23 4.84 127.24 3.67 127.24 C1 127 1 127 -1 125 C-1.25 122.86 -1.25 122.86 -1.25 120.15 C-1.25 119.12 -1.26 118.1 -1.26 117.04 C-1.25 115.91 -1.25 114.78 -1.24 113.62 C-1.24 112.44 -1.25 111.25 -1.25 110.03 C-1.25 106.77 -1.25 103.52 -1.24 100.26 C-1.23 96.86 -1.23 93.45 -1.23 90.05 C-1.23 84.33 -1.22 78.61 -1.21 72.89 C-1.19 66.28 -1.18 59.66 -1.19 53.05 C-1.19 46.69 -1.18 40.33 -1.17 33.97 C-1.17 31.27 -1.17 28.56 -1.17 25.85 C-1.16 22.07 -1.16 18.29 -1.15 14.51 C-1.15 13.38 -1.15 12.25 -1.15 11.09 C-1.14 9.55 -1.14 9.55 -1.13 7.98 C-1.13 7.08 -1.13 6.19 -1.13 5.27 C-1 3 -1 3 0 0 Z " fill="#D8052F" transform="translate(1,256)"/>
<path d="M0 0 C38.91 -0.01 77.82 -0.01 116.73 -0.02 C117.5 -0.02 118.26 -0.02 119.04 -0.02 C200.6 -0.03 282.16 -0.04 363.72 -0.04 C365.53 -0.04 367.34 -0.04 369.15 -0.04 C407.17 -0.05 445.18 -0.05 483.19 -0.05 C502.28 -0.05 521.37 -0.05 540.47 -0.05 C543.35 -0.05 546.23 -0.06 549.11 -0.06 C593.48 -0.06 637.84 -0.06 682.21 -0.07 C683.17 -0.07 684.12 -0.07 685.1 -0.07 C700.49 -0.07 715.88 -0.07 731.27 -0.08 C775.58 -0.08 819.89 -0.09 864.2 -0.09 C865.11 -0.09 866.02 -0.09 866.96 -0.09 C886.94 -0.09 906.93 -0.09 926.91 -0.09 C934.95 -0.09 942.99 -0.09 951.03 -0.09 C952.35 -0.09 952.35 -0.09 953.7 -0.09 C982.09 -0.1 1010.48 -0.1 1038.86 -0.11 C1067.44 -0.11 1096.02 -0.12 1124.6 -0.11 C1128.54 -0.11 1132.49 -0.11 1136.43 -0.11 C1137.2 -0.11 1137.98 -0.11 1138.77 -0.11 C1151.05 -0.11 1163.32 -0.12 1175.59 -0.12 C1187.64 -0.12 1199.69 -0.12 1211.74 -0.12 C1218.2 -0.12 1224.65 -0.12 1231.1 -0.12 C1236.96 -0.13 1242.82 -0.13 1248.68 -0.12 C1250.8 -0.12 1252.92 -0.12 1255.03 -0.13 C1257.89 -0.13 1260.74 -0.13 1263.6 -0.12 C1264.43 -0.13 1265.26 -0.13 1266.12 -0.13 C1271.77 -0.11 1271.77 -0.11 1274 1 C1274 2.32 1274 3.64 1274 5 C853.58 5 433.16 5 0 5 C-0.33 4.01 -0.66 3.02 -1 2 C-0.67 1.34 -0.34 0.68 0 0 Z " fill="#DD0631" transform="translate(1,403)"/>
<path d="M0 0 C1.24 0 2.48 0 3.75 0 C4.45 -0 5.14 -0 5.85 -0.01 C8.19 -0.01 10.54 -0.01 12.88 0 C14.57 0 16.26 -0 17.95 -0.01 C22.63 -0.01 27.31 -0.01 31.98 0 C37.04 0.01 42.1 0 47.15 0 C57.14 -0 67.13 0 77.12 0.01 C88.94 0.02 100.76 0.02 112.59 0.02 C136.72 0.02 160.85 0.03 184.99 0.05 C203.41 0.06 221.82 0.07 240.24 0.08 C309.59 0.1 378.94 0.16 448.3 0.24 C453.85 0.25 459.41 0.25 464.97 0.26 C512.66 0.32 560.36 0.39 608.05 0.52 C619.18 0.55 630.31 0.58 641.45 0.6 C653.83 0.62 666.21 0.65 678.59 0.7 C684.73 0.72 690.87 0.74 697.01 0.75 C702.5 0.75 707.99 0.77 713.48 0.8 C715.46 0.81 717.43 0.82 719.4 0.81 C722.05 0.81 724.7 0.83 727.35 0.85 C728.12 0.85 728.89 0.84 729.69 0.84 C731.8 0.86 731.8 0.86 735.14 1.25 C735.8 2.24 736.46 3.23 737.14 4.25 C645.07 4.25 553 4.25 458.14 4.25 C458.14 4.91 458.14 5.57 458.14 6.25 C306.01 6.25 153.88 6.25 -2.86 6.25 C-3.52 4.93 -4.18 3.61 -4.86 2.25 C-2.86 0.25 -2.86 0.25 0 0 Z " fill="#D4072F" transform="translate(4.862919449806213,224.7504523396492)"/>
<path d="M0 0 C101.31 0 202.62 0 307 0 C307 0.33 307 0.66 307 1 C205.69 1 104.38 1 0 1 C0 0.67 0 0.34 0 0 Z " fill="#000100" transform="translate(968,231)"/>
<path d="M0 0 C91.74 0 183.48 0 278 0 C278 0.33 278 0.66 278 1 C186.26 1 94.52 1 0 1 C0 0.67 0 0.34 0 0 Z " fill="#000100" transform="translate(463,231)"/>
<path d="M0 0 C9.94 1.81 9.94 1.81 13 5 C13 5.66 13 6.32 13 7 C13.66 7 14.32 7 15 7 C16.51 12.04 15.65 16.88 15 22 C14.01 22.33 13.02 22.66 12 23 C11.34 23.99 10.68 24.98 10 26 C5.07 27.64 0.73 27.51 -4.19 26.06 C-8.21 23.11 -10.26 19.64 -12 15 C-12.17 10.66 -11.43 9.47 -8.5 6.25 C-7.67 5.51 -6.85 4.76 -6 4 C-5.67 3.34 -5.34 2.68 -5 2 C-3.35 2 -1.7 2 0 2 C0 1.34 0 0.68 0 0 Z M-7 8 C-8.6 11.2 -8.37 14.52 -8 18 C-6.69 21.18 -5.75 22.55 -2.81 24.31 C0.89 25.22 4.22 25.75 8 25 C10.97 22.79 12.53 21.08 14 17.69 C14 13.15 12.52 8.81 9.59 5.32 C3.78 0.5 -2.06 3.91 -7 8 Z " fill="#C5072C" transform="translate(1260,257)"/>
<path d="M0 0 C2.03 0.09 2.03 0.09 4.5 0.38 C5.31 0.47 6.13 0.56 6.97 0.65 C9 1 9 1 10 2 C10.07 4.19 10.08 6.38 10.06 8.56 C10.05 9.76 10.04 10.96 10.04 12.19 C10.02 13.12 10.01 14.05 10 15 C9.01 14.67 8.02 14.34 7 14 C7 12.68 7 11.36 7 10 C5.68 10 4.36 10 3 10 C2.67 11.65 2.34 13.3 2 15 C1.34 15 0.68 15 0 15 C-1.37 12.25 -1.13 10 -1.12 6.94 C-1.13 5.85 -1.13 4.77 -1.13 3.65 C-1 1 -1 1 0 0 Z M3 3 C3 4.32 3 5.64 3 7 C4.32 6.34 5.64 5.68 7 5 C6.67 4.34 6.34 3.68 6 3 C5.01 3 4.02 3 3 3 Z " fill="#E90C39" transform="translate(1258,263)"/>
<path d="M0 0 C2.31 0.33 4.62 0.66 7 1 C3.54 3.31 -0.07 5 -3.82 6.78 C-6.14 7.81 -6.14 7.81 -7 10 C-7.44 16.33 -7.44 16.33 -5 22 C-4.34 22.66 -3.68 23.32 -3 24 C-4.32 24 -5.64 24 -7 24 C-11.95 16.29 -11.95 16.29 -12.12 11.75 C-10.72 8.31 -8.74 6.47 -6 4 C-5.67 3.34 -5.34 2.68 -5 2 C-3.35 2 -1.7 2 0 2 C0 1.34 0 0.68 0 0 Z " fill="#CA0A30" transform="translate(1260,257)"/>
<path d="M0 0 C0.33 0 0.66 0 1 0 C1.33 6.93 1.66 13.86 2 21 C7.61 21 13.22 21 19 21 C19 21.99 19 22.98 19 24 C16.02 24.03 13.04 24.05 10.06 24.06 C8.79 24.08 8.79 24.08 7.49 24.09 C6.68 24.09 5.87 24.09 5.04 24.1 C4.29 24.1 3.54 24.11 2.77 24.11 C1 24 1 24 0 23 C-0.09 21.29 -0.11 19.58 -0.1 17.87 C-0.09 16.84 -0.09 15.8 -0.09 14.74 C-0.08 13.65 -0.07 12.56 -0.06 11.44 C-0.06 10.35 -0.05 9.25 -0.05 8.13 C-0.04 5.42 -0.02 2.71 0 0 Z " fill="#EA0B38" transform="translate(640,295)"/>
<path d="M0 0 C0 4.29 0 8.58 0 13 C-0.66 13 -1.32 13 -2 13 C-2 11.02 -2 9.04 -2 7 C-3.32 6.67 -4.64 6.34 -6 6 C-4.68 6 -3.36 6 -2 6 C-2 5.34 -2 4.68 -2 4 C-2.66 3.67 -3.32 3.34 -4 3 C-5.33 2.33 -6.67 1.67 -8 1 C-8.33 1.99 -8.66 2.98 -9 4 C-9 2.68 -9 1.36 -9 0 C-5.07 -2.62 -4.96 -1.98 0 0 Z " fill="#BF082C" transform="translate(1268,265)"/>
<path d="M0 0 C3.06 -0.26 4.63 -0.22 7.31 1.38 C7.87 1.91 8.43 2.45 9 3 C9 3.66 9 4.32 9 5 C9.66 5 10.32 5 11 5 C11.33 5.99 11.66 6.98 12 8 C11.01 8.33 10.02 8.66 9 9 C7.89 7.58 7.89 7.58 6.75 6.12 C4.72 3.67 3.04 2.13 0 1 C0 0.67 0 0.34 0 0 Z " fill="#D70A32" transform="translate(1264,259)"/>
<path d="M0 0 C0.66 0 1.32 0 2 0 C2 2.31 2 4.62 2 7 C2.66 7 3.32 7 4 7 C4.29 7.62 4.58 8.24 4.88 8.88 C5.94 11.13 5.94 11.13 8 13 C6.68 13 5.36 13 4 13 C3.13 11.59 2.28 10.17 1.44 8.75 C0.72 7.57 0.72 7.57 -0 6.36 C-1.13 3.69 -1.02 2.65 0 0 Z " fill="#C1062B" transform="translate(1249,268)"/>
<path d="M0 0 C1.65 0.02 1.65 0.02 3.34 0.04 C5 0.05 5 0.05 6.69 0.06 C7.54 0.07 8.4 0.09 9.28 0.1 C9.61 0.76 9.94 1.42 10.28 2.1 C7.63 2.98 6 3.26 3.28 3.29 C2.6 3.3 1.92 3.31 1.21 3.33 C-0.72 3.1 -0.72 3.1 -3.72 1.1 C-2.72 0.1 -2.72 0.1 0 0 Z " fill="#DE0832" transform="translate(1259.72265625,280.90234375)"/>
<path d="M0 0 C0.33 0 0.66 0 1 0 C1 1.98 1 3.96 1 6 C0.67 6 0.34 6 0 6 C0 4.02 0 2.04 0 0 Z " fill="#D8052F" transform="translate(185,297)"/>
<path d="" fill="#000100" transform="translate(0,0)"/>
<path d="" fill="#F20F3D" transform="translate(0,0)"/>
<path d="" fill="#000100" transform="translate(0,0)"/>
<path d="" fill="#000100" transform="translate(0,0)"/>
<path d="" fill="#000100" transform="translate(0,0)"/>
<path d="" fill="#000100" transform="translate(0,0)"/>
<path d="" fill="#D8052F" transform="translate(0,0)"/>
<path d="" fill="#42020B" transform="translate(0,0)"/>
<path d="" fill="#000100" transform="translate(0,0)"/>
<path d="" fill="#FDFDFD" transform="translate(0,0)"/>
<path d="" fill="#F20F3D" transform="translate(0,0)"/>
<path d="" fill="#000100" transform="translate(0,0)"/>
<path d="" fill="#000100" transform="translate(0,0)"/>
<path d="" fill="#000100" transform="translate(0,0)"/>
<path d="" fill="#9D021E" transform="translate(0,0)"/>
<path d="" fill="#42020B" transform="translate(0,0)"/>
</svg>
