<?xml version="1.0" encoding="UTF-8"?>
<!-- Generator: visioncortex VTracer 0.6.3 -->
<svg version="1.1" xmlns="http://www.w3.org/2000/svg" width="1280" height="1280">
<path d="M0 0 C4.79 0.01 9.58 -0 14.37 -0.01 C22.76 -0.02 31.14 -0.02 39.52 -0.01 C51.99 -0 64.46 -0.01 76.92 -0.02 C99.19 -0.03 121.46 -0.03 143.73 -0.02 C163.22 -0.01 182.71 -0.01 202.2 -0.02 C203.49 -0.02 204.78 -0.02 206.12 -0.02 C211.37 -0.02 216.62 -0.02 221.87 -0.02 C236.55 -0.02 251.23 -0.02 265.9 -0.02 C266.57 -0.03 267.24 -0.03 267.93 -0.03 C289.21 -0.03 310.5 -0.02 331.79 -0.02 C332.82 -0.02 332.82 -0.02 333.88 -0.02 C345.08 -0.01 356.29 -0.01 367.49 -0.01 C411.93 0.01 456.36 0.01 500.8 -0.01 C512 -0.01 523.2 -0.01 534.4 -0.02 C535.09 -0.02 535.78 -0.02 536.49 -0.02 C557.75 -0.02 579.02 -0.03 600.28 -0.02 C601.28 -0.02 601.28 -0.02 602.3 -0.02 C617.62 -0.02 632.94 -0.02 648.26 -0.02 C653.5 -0.02 658.74 -0.02 663.99 -0.02 C665.28 -0.02 666.57 -0.02 667.9 -0.02 C687.37 -0.01 706.85 -0.02 726.32 -0.02 C748.47 -0.03 770.61 -0.03 792.76 -0.01 C805.15 -0 817.54 -0 829.93 -0.02 C838.21 -0.02 846.49 -0.02 854.77 -0.01 C859.49 0 864.2 0 868.92 -0.01 C904.73 -0.08 904.73 -0.08 920.09 3.39 C921.22 3.63 922.35 3.87 923.51 4.12 C975.75 15.89 1017.12 49.37 1046.09 93.39 C1047.1 94.91 1047.1 94.91 1048.13 96.47 C1056.55 110.07 1063.09 125.9 1067.09 141.39 C1067.35 142.3 1067.61 143.22 1067.88 144.16 C1068.71 147.22 1069.41 150.29 1070.09 153.39 C1070.48 155.09 1070.48 155.09 1070.87 156.84 C1074.22 173.43 1073.52 190.45 1073.48 207.29 C1073.47 212.09 1073.48 216.88 1073.49 221.67 C1073.5 230.05 1073.5 238.43 1073.49 246.82 C1073.48 259.28 1073.48 271.75 1073.49 284.22 C1073.51 306.49 1073.51 328.76 1073.5 351.03 C1073.49 370.51 1073.49 390 1073.49 409.49 C1073.49 410.78 1073.49 412.08 1073.49 413.41 C1073.49 418.66 1073.5 423.91 1073.5 429.16 C1073.5 443.84 1073.5 458.52 1073.5 473.2 C1073.5 473.87 1073.5 474.53 1073.5 475.22 C1073.5 496.51 1073.5 517.79 1073.49 539.08 C1073.49 539.77 1073.49 540.46 1073.49 541.17 C1073.49 552.38 1073.49 563.58 1073.48 574.79 C1073.47 619.22 1073.47 663.66 1073.48 708.09 C1073.49 719.29 1073.49 730.49 1073.49 741.69 C1073.49 742.73 1073.49 742.73 1073.49 743.78 C1073.5 765.05 1073.5 786.31 1073.5 807.57 C1073.5 808.57 1073.5 808.57 1073.5 809.6 C1073.5 824.92 1073.5 840.24 1073.5 855.56 C1073.49 860.8 1073.49 866.04 1073.49 871.28 C1073.49 873.22 1073.49 873.22 1073.49 875.19 C1073.49 894.67 1073.49 914.14 1073.5 933.61 C1073.51 955.76 1073.51 977.91 1073.49 1000.05 C1073.48 1012.44 1073.48 1024.83 1073.49 1037.22 C1073.5 1045.5 1073.5 1053.79 1073.48 1062.07 C1073.48 1066.78 1073.47 1071.5 1073.48 1076.21 C1073.56 1112.03 1073.56 1112.03 1070.09 1127.39 C1069.85 1128.51 1069.6 1129.64 1069.35 1130.81 C1057.59 1183.04 1024.11 1224.41 980.09 1253.39 C978.57 1254.39 978.57 1254.39 977.01 1255.42 C963.41 1263.84 947.58 1270.38 932.09 1274.39 C931.18 1274.65 930.26 1274.91 929.31 1275.17 C926.26 1276.01 923.19 1276.7 920.09 1277.39 C918.38 1277.77 918.38 1277.77 916.64 1278.17 C900.05 1281.51 883.03 1280.81 866.18 1280.77 C861.39 1280.76 856.6 1280.77 851.81 1280.78 C843.43 1280.79 835.04 1280.79 826.66 1280.78 C814.19 1280.77 801.73 1280.78 789.26 1280.79 C766.99 1280.8 744.72 1280.8 722.45 1280.79 C702.96 1280.79 683.47 1280.78 663.99 1280.79 C662.69 1280.79 661.4 1280.79 660.07 1280.79 C654.82 1280.79 649.56 1280.79 644.31 1280.79 C629.64 1280.79 614.96 1280.79 600.28 1280.8 C599.61 1280.8 598.94 1280.8 598.25 1280.8 C576.97 1280.8 555.68 1280.79 534.4 1280.79 C533.71 1280.79 533.02 1280.79 532.31 1280.79 C521.1 1280.78 509.9 1280.78 498.69 1280.78 C454.26 1280.76 409.82 1280.76 365.38 1280.78 C354.18 1280.78 342.98 1280.78 331.79 1280.79 C331.1 1280.79 330.41 1280.79 329.7 1280.79 C308.43 1280.79 287.17 1280.8 265.9 1280.8 C264.9 1280.8 264.9 1280.8 263.88 1280.8 C248.56 1280.79 233.24 1280.79 217.92 1280.79 C212.68 1280.79 207.44 1280.79 202.2 1280.79 C200.91 1280.79 199.62 1280.79 198.29 1280.79 C178.81 1280.78 159.34 1280.79 139.86 1280.79 C117.72 1280.8 95.57 1280.8 73.42 1280.78 C61.03 1280.78 48.64 1280.78 36.25 1280.79 C27.97 1280.79 19.69 1280.79 11.41 1280.78 C6.69 1280.77 1.98 1280.77 -2.73 1280.78 C-38.55 1280.85 -38.55 1280.85 -53.91 1277.39 C-55.04 1277.14 -56.17 1276.9 -57.33 1276.65 C-109.57 1264.89 -150.93 1231.4 -179.91 1187.39 C-180.58 1186.37 -181.25 1185.35 -181.94 1184.3 C-190.37 1170.7 -196.9 1154.87 -200.91 1139.39 C-201.3 1138.01 -201.3 1138.01 -201.7 1136.61 C-202.53 1133.55 -203.23 1130.48 -203.91 1127.39 C-204.17 1126.25 -204.43 1125.11 -204.69 1123.93 C-208.04 1107.34 -207.33 1090.32 -207.29 1073.48 C-207.29 1068.69 -207.3 1063.89 -207.3 1059.1 C-207.31 1050.72 -207.31 1042.34 -207.31 1033.95 C-207.29 1021.49 -207.3 1009.02 -207.31 996.55 C-207.33 974.28 -207.32 952.01 -207.32 929.75 C-207.31 910.26 -207.31 890.77 -207.31 871.28 C-207.31 869.99 -207.31 868.69 -207.31 867.36 C-207.31 862.11 -207.31 856.86 -207.31 851.61 C-207.32 836.93 -207.32 822.25 -207.32 807.57 C-207.32 806.9 -207.32 806.24 -207.32 805.55 C-207.32 784.26 -207.32 762.98 -207.31 741.69 C-207.31 740.66 -207.31 740.66 -207.31 739.6 C-207.31 728.4 -207.3 717.19 -207.3 705.99 C-207.28 661.55 -207.28 617.11 -207.3 572.68 C-207.3 561.48 -207.31 550.28 -207.31 539.08 C-207.31 538.39 -207.31 537.7 -207.31 536.99 C-207.32 515.73 -207.32 494.46 -207.32 473.2 C-207.32 472.53 -207.32 471.86 -207.32 471.17 C-207.32 455.85 -207.32 440.53 -207.31 425.22 C-207.31 419.97 -207.31 414.73 -207.31 409.49 C-207.31 408.2 -207.31 406.91 -207.31 405.58 C-207.31 386.11 -207.31 366.63 -207.32 347.16 C-207.33 325.01 -207.32 302.86 -207.31 280.72 C-207.3 268.33 -207.3 255.94 -207.31 243.55 C-207.32 235.27 -207.31 226.98 -207.3 218.7 C-207.29 213.99 -207.29 209.27 -207.3 204.56 C-207.38 168.74 -207.38 168.74 -203.91 153.39 C-203.66 152.26 -203.42 151.13 -203.17 149.97 C-191.41 97.73 -157.92 56.36 -113.91 27.39 C-112.89 26.71 -111.87 26.04 -110.83 25.35 C-97.22 16.93 -81.39 10.39 -65.91 6.39 C-64.99 6.13 -64.08 5.86 -63.13 5.6 C-60.07 4.77 -57 4.07 -53.91 3.39 C-52.77 3.13 -51.63 2.87 -50.45 2.6 C-33.86 -0.74 -16.84 -0.04 0 0 Z M-94.91 73.26 C-95.51 73.64 -96.12 74.02 -96.74 74.42 C-98.17 75.35 -99.55 76.36 -100.91 77.39 C-100.91 78.05 -100.91 78.71 -100.91 79.39 C-101.49 79.66 -102.07 79.93 -102.66 80.21 C-108.92 83.48 -113.58 87.89 -117.91 93.39 C-119.57 95.05 -121.24 96.72 -122.91 98.39 C-126.51 101.89 -126.51 101.89 -127.91 106.39 C-128.57 106.39 -129.23 106.39 -129.91 106.39 C-132.05 108.98 -133.75 111.91 -135.53 114.76 C-136.07 115.62 -136.61 116.47 -137.16 117.35 C-152.95 143.07 -159.26 171.54 -159.16 201.51 C-159.17 203.07 -159.17 204.64 -159.17 206.2 C-159.18 210.47 -159.18 214.74 -159.17 219.01 C-159.17 223.67 -159.17 228.33 -159.18 232.98 C-159.19 241.13 -159.19 249.28 -159.19 257.44 C-159.18 269.56 -159.19 281.68 -159.2 293.8 C-159.21 316.71 -159.21 339.62 -159.21 362.53 C-159.21 380.22 -159.21 397.92 -159.21 415.61 C-159.22 418.15 -159.22 420.7 -159.22 423.24 C-159.22 427.07 -159.22 430.9 -159.22 434.74 C-159.23 470.36 -159.23 505.99 -159.23 541.61 C-159.23 542.28 -159.23 542.95 -159.23 543.64 C-159.23 551.13 -159.23 558.61 -159.23 566.09 C-159.22 566.77 -159.22 567.45 -159.22 568.14 C-159.22 572.24 -159.22 572.24 -159.22 576.34 C-159.22 619.55 -159.23 662.75 -159.24 705.96 C-159.25 716.85 -159.25 727.74 -159.26 738.62 C-159.26 739.29 -159.26 739.96 -159.26 740.66 C-159.27 776.88 -159.27 813.11 -159.27 849.33 C-159.27 854.43 -159.27 859.53 -159.27 864.63 C-159.27 865.88 -159.27 867.14 -159.27 868.43 C-159.27 887.36 -159.28 906.3 -159.29 925.23 C-159.3 946.77 -159.3 968.31 -159.29 989.84 C-159.28 1001.89 -159.28 1013.94 -159.3 1025.98 C-159.3 1034.04 -159.3 1042.09 -159.29 1050.15 C-159.28 1054.73 -159.28 1059.32 -159.29 1063.9 C-159.38 1101.84 -154.76 1135.69 -134.03 1168.39 C-133.65 1168.99 -133.27 1169.6 -132.88 1170.22 C-131.95 1171.65 -130.93 1173.02 -129.91 1174.39 C-129.25 1174.39 -128.59 1174.39 -127.91 1174.39 C-127.64 1174.96 -127.36 1175.54 -127.08 1176.14 C-123.81 1182.4 -119.4 1187.06 -113.91 1191.39 C-112.24 1193.05 -110.57 1194.72 -108.91 1196.39 C-105.4 1199.98 -105.4 1199.98 -100.91 1201.39 C-100.91 1202.05 -100.91 1202.71 -100.91 1203.39 C-98.31 1205.52 -95.38 1207.23 -92.53 1209.01 C-91.68 1209.55 -90.82 1210.08 -89.94 1210.64 C-64.23 1226.43 -35.76 1232.74 -5.78 1232.64 C-4.22 1232.64 -2.65 1232.65 -1.09 1232.65 C3.18 1232.66 7.45 1232.65 11.72 1232.65 C16.37 1232.64 21.03 1232.65 25.69 1232.66 C33.84 1232.67 41.99 1232.67 50.14 1232.66 C62.26 1232.66 74.38 1232.66 86.51 1232.67 C109.42 1232.69 132.33 1232.69 155.24 1232.69 C172.93 1232.69 190.62 1232.69 208.32 1232.69 C210.86 1232.69 213.4 1232.69 215.95 1232.69 C219.78 1232.69 223.61 1232.7 227.44 1232.7 C263.07 1232.7 298.69 1232.71 334.32 1232.71 C335.32 1232.7 335.32 1232.7 336.35 1232.7 C343.83 1232.7 351.32 1232.7 358.8 1232.7 C359.48 1232.7 360.15 1232.7 360.85 1232.7 C364.95 1232.7 364.95 1232.7 369.04 1232.7 C412.25 1232.7 455.46 1232.7 498.67 1232.72 C509.56 1232.73 520.44 1232.73 531.33 1232.74 C532 1232.74 532.67 1232.74 533.36 1232.74 C569.59 1232.75 605.81 1232.75 642.04 1232.75 C647.14 1232.75 652.23 1232.75 657.33 1232.75 C659.21 1232.75 659.21 1232.75 661.13 1232.75 C680.07 1232.75 699 1232.75 717.94 1232.76 C739.47 1232.78 761.01 1232.78 782.55 1232.76 C794.6 1232.76 806.64 1232.76 818.69 1232.77 C826.74 1232.78 834.8 1232.78 842.85 1232.77 C847.44 1232.76 852.02 1232.76 856.61 1232.77 C894.54 1232.86 928.4 1228.24 961.09 1207.51 C961.7 1207.13 962.3 1206.75 962.93 1206.36 C964.35 1205.42 965.73 1204.41 967.09 1203.39 C967.09 1202.73 967.09 1202.07 967.09 1201.39 C967.67 1201.11 968.25 1200.84 968.85 1200.56 C975.11 1197.29 979.76 1192.88 984.09 1187.39 C985.76 1185.72 987.43 1184.05 989.09 1182.39 C992.69 1178.88 992.69 1178.88 994.09 1174.39 C994.75 1174.39 995.41 1174.39 996.09 1174.39 C998.23 1171.79 999.93 1168.86 1001.72 1166.01 C1002.25 1165.16 1002.79 1164.3 1003.34 1163.42 C1019.08 1137.8 1025.44 1109.24 1025.35 1079.38 C1025.35 1077.82 1025.35 1076.26 1025.36 1074.69 C1025.36 1070.42 1025.36 1066.15 1025.35 1061.88 C1025.35 1057.22 1025.36 1052.57 1025.36 1047.91 C1025.37 1039.76 1025.37 1031.61 1025.37 1023.45 C1025.37 1011.33 1025.37 999.21 1025.38 987.08 C1025.39 964.17 1025.4 941.26 1025.39 918.34 C1025.39 900.65 1025.39 882.95 1025.4 865.26 C1025.4 862.71 1025.4 860.17 1025.4 857.63 C1025.4 853.79 1025.4 849.96 1025.4 846.13 C1025.41 810.5 1025.42 774.87 1025.41 739.24 C1025.41 738.57 1025.41 737.9 1025.41 737.21 C1025.41 729.72 1025.41 722.24 1025.41 714.75 C1025.41 714.08 1025.41 713.4 1025.41 712.71 C1025.41 708.61 1025.41 708.61 1025.41 704.51 C1025.4 661.29 1025.41 618.08 1025.43 574.86 C1025.43 563.98 1025.44 553.09 1025.44 542.2 C1025.44 541.53 1025.44 540.86 1025.44 540.17 C1025.46 503.94 1025.46 467.71 1025.46 431.48 C1025.45 426.38 1025.45 421.28 1025.45 416.18 C1025.45 414.93 1025.45 413.67 1025.45 412.38 C1025.45 393.44 1025.46 374.51 1025.47 355.57 C1025.48 334.03 1025.48 312.49 1025.47 290.95 C1025.46 278.9 1025.47 266.85 1025.48 254.8 C1025.49 246.74 1025.49 238.69 1025.47 230.63 C1025.47 226.05 1025.47 221.46 1025.48 216.88 C1025.57 178.94 1020.94 145.08 1000.22 112.39 C999.84 111.78 999.45 111.17 999.06 110.55 C998.13 109.12 997.12 107.75 996.09 106.39 C995.43 106.39 994.77 106.39 994.09 106.39 C993.82 105.81 993.55 105.23 993.26 104.63 C990 98.37 985.59 93.71 980.09 89.39 C978.43 87.72 976.76 86.05 975.09 84.39 C971.59 80.79 971.59 80.79 967.09 79.39 C967.09 78.73 967.09 78.07 967.09 77.39 C964.5 75.25 961.56 73.55 958.72 71.76 C957.86 71.22 957.01 70.69 956.13 70.13 C930.5 54.4 901.95 48.03 872.09 48.13 C870.53 48.13 868.96 48.13 867.4 48.12 C863.13 48.11 858.86 48.12 854.59 48.12 C849.93 48.13 845.27 48.12 840.62 48.11 C832.47 48.1 824.31 48.1 816.16 48.11 C804.04 48.11 791.91 48.11 779.79 48.1 C756.88 48.08 733.96 48.08 711.05 48.08 C693.35 48.08 675.66 48.08 657.96 48.08 C655.42 48.08 652.88 48.08 650.33 48.08 C646.5 48.08 642.67 48.08 638.83 48.07 C603.21 48.07 567.58 48.06 531.95 48.07 C531.28 48.07 530.61 48.07 529.91 48.07 C522.43 48.07 514.94 48.07 507.46 48.07 C506.45 48.07 506.45 48.07 505.41 48.07 C501.31 48.07 501.31 48.07 497.21 48.07 C454 48.08 410.79 48.07 367.57 48.05 C356.68 48.04 345.79 48.04 334.9 48.04 C333.9 48.03 333.9 48.03 332.87 48.03 C296.64 48.02 260.41 48.02 224.18 48.02 C219.09 48.02 213.99 48.02 208.89 48.02 C207.01 48.02 207.01 48.02 205.09 48.02 C186.15 48.02 167.21 48.02 148.28 48.01 C126.74 48 105.2 47.99 83.65 48.01 C71.61 48.01 59.56 48.01 47.51 48 C39.45 47.99 31.39 47.99 23.34 48 C18.75 48.01 14.17 48.01 9.58 48 C-28.36 47.91 -62.21 52.53 -94.91 73.26 Z " fill="#000000" transform="translate(206.90832968056202,-0.38540266267955303)"/>
<path d="M0 0 C5.28 0 10.56 0 16 0 C16 16.83 16 33.66 16 51 C33.16 51 50.32 51 68 51 C68 56.28 68 61.56 68 67 C50.84 67 33.68 67 16 67 C16.04 84.07 16.04 84.07 16.09 101.14 C16.09 103.27 16.1 105.4 16.1 107.53 C16.1 108.65 16.11 109.76 16.11 110.91 C16.11 112.5 16.11 112.5 16.11 114.11 C16.12 115.03 16.12 115.96 16.12 116.91 C16 119 16 119 15 120 C10.05 120 5.1 120 0 120 C-0.33 102.84 -0.66 85.68 -1 68 C-18.07 67.71 -18.07 67.71 -35.14 67.43 C-37.27 67.39 -39.4 67.36 -41.53 67.32 C-42.65 67.3 -43.76 67.28 -44.91 67.27 C-45.97 67.25 -47.03 67.23 -48.11 67.21 C-49.03 67.19 -49.96 67.17 -50.91 67.16 C-53 67 -53 67 -54 66 C-54.1 63.86 -54.13 61.71 -54.12 59.56 C-54.13 58.39 -54.13 57.21 -54.13 56 C-54 53 -54 53 -53 51 C-35.51 51 -18.02 51 0 51 C0 34.17 0 17.34 0 0 Z " fill="#000000" transform="translate(1011,614)"/>
<path d="M0 0 C0.98 -0 1.97 -0.01 2.98 -0.01 C6.21 -0.02 9.45 -0.01 12.69 -0.01 C14.94 -0.01 17.19 -0.01 19.44 -0.01 C24.15 -0.02 28.86 -0.01 33.57 -0 C39.62 0.01 45.67 0 51.72 -0.01 C56.36 -0.02 61.01 -0.01 65.65 -0.01 C67.88 -0.01 70.12 -0.01 72.35 -0.01 C75.46 -0.02 78.57 -0.01 81.68 0 C82.6 -0 83.53 -0.01 84.49 -0.01 C85.33 -0.01 86.18 -0 87.04 0 C87.78 0.01 88.51 0.01 89.27 0.01 C91.08 0.26 91.08 0.26 93.08 2.26 C91.49 5.87 89.88 9.47 88.27 13.07 C87.59 14.61 87.59 14.61 86.9 16.17 C86.46 17.16 86.01 18.14 85.56 19.15 C85.16 20.06 84.75 20.97 84.34 21.9 C82.35 25.63 82.35 25.63 80.08 27.26 C77.37 27.56 74.88 27.68 72.17 27.66 C71.37 27.67 70.56 27.68 69.73 27.68 C67.06 27.7 64.4 27.7 61.73 27.69 C59.87 27.7 58.01 27.7 56.16 27.71 C52.26 27.72 48.36 27.71 44.46 27.7 C39.48 27.69 34.5 27.71 29.52 27.74 C25.68 27.76 21.84 27.76 18 27.76 C16.16 27.75 14.33 27.76 12.5 27.77 C-5.19 27.88 -5.19 27.88 -12.92 23.26 C-16.37 22 -19.83 20.79 -23.3 19.6 C-25.92 18.26 -25.92 18.26 -26.89 16.28 C-26.94 12.9 -25.04 10.71 -22.92 8.26 C-15.99 1.19 -9.67 -0.04 0 0 Z " fill="#000000" transform="translate(851.9208984375,233.7412109375)"/>
<path d="M0 0 C1.29 -0.01 1.29 -0.01 2.6 -0.01 C3.54 -0.01 4.49 -0.01 5.46 -0.01 C6.45 -0.01 7.44 -0.02 8.47 -0.02 C11.76 -0.03 15.05 -0.03 18.34 -0.03 C20.62 -0.04 22.9 -0.04 25.18 -0.04 C29.96 -0.05 34.74 -0.05 39.52 -0.05 C45.66 -0.05 51.8 -0.07 57.94 -0.08 C62.65 -0.09 67.36 -0.1 72.07 -0.09 C74.33 -0.1 76.6 -0.1 78.86 -0.11 C82.02 -0.12 85.18 -0.12 88.34 -0.11 C89.76 -0.12 89.76 -0.12 91.2 -0.13 C92.06 -0.12 92.92 -0.12 93.8 -0.11 C94.55 -0.11 95.3 -0.11 96.07 -0.12 C97.9 0.13 97.9 0.13 99.9 2.13 C89.79 24.24 89.79 24.24 86.9 27.13 C84.33 27.25 81.79 27.3 79.22 27.31 C78.01 27.32 78.01 27.32 76.78 27.33 C74.1 27.35 71.42 27.36 68.74 27.37 C67.37 27.38 67.37 27.38 65.97 27.38 C61.13 27.41 56.28 27.42 51.43 27.43 C46.44 27.44 41.44 27.47 36.44 27.51 C32.6 27.54 28.75 27.55 24.9 27.55 C23.06 27.56 21.22 27.57 19.38 27.59 C1.61 27.76 1.61 27.76 -6.1 23.13 C-9.55 21.88 -13 20.67 -16.47 19.48 C-19.1 18.13 -19.1 18.13 -20.09 16.22 C-20.11 12.09 -17.76 9.14 -15.1 6.13 C-12.24 4.13 -9.27 2.59 -6.1 1.13 C-3.81 -0.01 -2.54 0.01 0 0 Z " fill="#000000" transform="translate(646.099365234375,233.8662872314453)"/>
<path d="M0 0 C1.85 0.01 3.71 0.02 5.56 0.03 C10.37 0.06 15.18 0.12 19.98 0.2 C24.92 0.28 29.85 0.31 34.79 0.34 C44.42 0.42 54.04 0.54 63.67 0.68 C65.48 4.23 67.08 7.54 68.09 11.39 C68.31 12.22 68.53 13.06 68.76 13.92 C68.98 14.77 69.2 15.62 69.42 16.5 C69.77 17.8 69.77 17.8 70.13 19.13 C71.37 23.91 71.37 23.91 71.67 25.68 C70.14 27.22 68.74 26.82 66.61 26.82 C65.73 26.83 64.85 26.84 63.95 26.84 C62.5 26.84 62.5 26.84 61.01 26.84 C59.49 26.85 59.49 26.85 57.94 26.86 C54.57 26.87 51.19 26.88 47.82 26.89 C45.48 26.89 43.14 26.9 40.8 26.9 C35.89 26.91 30.98 26.92 26.07 26.92 C19.77 26.93 13.48 26.95 7.18 26.98 C2.35 27 -2.48 27.01 -7.32 27.01 C-9.64 27.01 -11.96 27.02 -14.28 27.03 C-17.53 27.05 -20.78 27.05 -24.02 27.04 C-25.46 27.05 -25.46 27.05 -26.93 27.07 C-32.87 27.03 -37.56 26.46 -41.97 22.04 C-44.28 18.62 -45.94 15.9 -46.33 11.68 C-32.53 1.65 -16.59 -0.35 0 0 Z " fill="#000000" transform="translate(851.328125,431.31640625)"/>
<path d="M0 0 C0.9 -0 1.8 -0 2.72 -0 C5.68 0 8.63 0.02 11.58 0.03 C13.64 0.04 15.69 0.04 17.75 0.04 C23.14 0.05 28.54 0.07 33.93 0.09 C39.44 0.11 44.95 0.12 50.46 0.13 C61.27 0.15 72.07 0.18 82.87 0.23 C84.05 3.73 83.88 4.2 82.33 7.91 C81.6 9.31 80.87 10.71 80.12 12.1 C79.76 12.8 79.4 13.49 79.03 14.21 C78.32 15.57 77.6 16.94 76.88 18.3 C75.95 20.08 75.06 21.87 74.17 23.67 C72.87 26.23 72.87 26.23 71.87 27.23 C69.59 27.34 67.3 27.39 65.02 27.4 C64.3 27.41 63.58 27.42 62.84 27.42 C60.46 27.44 58.07 27.46 55.69 27.47 C54.87 27.47 54.06 27.47 53.22 27.48 C48.89 27.5 44.57 27.51 40.25 27.52 C35.8 27.53 31.35 27.57 26.9 27.61 C23.47 27.63 20.03 27.64 16.6 27.65 C14.96 27.65 13.32 27.66 11.68 27.68 C2.95 27.77 -4.36 27.7 -12.13 23.23 C-15.57 21.97 -19.03 20.76 -22.5 19.57 C-25.13 18.23 -25.13 18.23 -26.1 16.25 C-26.15 12.86 -24.24 10.68 -22.13 8.23 C-15.44 1.42 -9.35 -0.08 0 0 Z " fill="#000000" transform="translate(434.12646484375,233.77294921875)"/>
<path d="M0 0 C1.09 -0.01 1.09 -0.01 2.2 -0.02 C4.61 -0.05 7.02 -0.07 9.43 -0.08 C10.66 -0.09 10.66 -0.09 11.92 -0.1 C16.27 -0.12 20.62 -0.14 24.97 -0.16 C29.46 -0.17 33.96 -0.22 38.46 -0.27 C41.91 -0.3 45.36 -0.31 48.82 -0.32 C50.47 -0.33 52.13 -0.34 53.79 -0.37 C56.11 -0.4 58.42 -0.4 60.74 -0.39 C62.06 -0.4 63.38 -0.41 64.74 -0.42 C67.94 0.19 67.94 0.19 69.84 2.6 C70.78 4.82 71.65 6.95 72.32 9.26 C72.54 9.99 72.75 10.72 72.98 11.48 C73.19 12.23 73.4 12.98 73.62 13.76 C73.85 14.51 74.07 15.26 74.3 16.04 C75.36 19.68 75.94 22.34 75.94 26.19 C63.54 26.29 51.14 26.36 38.75 26.4 C32.99 26.42 27.24 26.45 21.48 26.49 C15.92 26.54 10.37 26.56 4.81 26.57 C2.69 26.58 0.57 26.59 -1.55 26.62 C-4.52 26.64 -7.49 26.65 -10.46 26.65 C-11.77 26.67 -11.77 26.67 -13.1 26.69 C-18.92 26.65 -22.29 25.57 -27.06 22.19 C-29.84 18.77 -31.94 15.69 -32.06 11.19 C-29.91 8.46 -27.72 7.49 -24.47 6.4 C-23.14 5.95 -23.14 5.95 -21.79 5.49 C-20.87 5.19 -19.95 4.88 -19 4.57 C-17.18 3.95 -15.35 3.33 -13.53 2.72 C-12.72 2.45 -11.91 2.18 -11.08 1.9 C-7.04 0.48 -4.44 0.04 0 0 Z " fill="#000000" transform="translate(638.064208984375,431.80712890625)"/>
<path d="M0 0 C0.78 -0.01 1.56 -0.03 2.36 -0.04 C4.92 -0.08 7.47 -0.08 10.03 -0.07 C11.82 -0.09 13.61 -0.1 15.4 -0.11 C19.14 -0.13 22.89 -0.13 26.63 -0.12 C31.41 -0.11 36.2 -0.16 40.98 -0.22 C44.67 -0.26 48.37 -0.27 52.06 -0.26 C53.82 -0.26 55.58 -0.28 57.35 -0.3 C71.05 -0.5 71.05 -0.5 75.81 2.4 C77.86 4.4 79.43 6.32 81.01 8.69 C81.57 9.4 82.13 10.1 82.7 10.82 C84.01 12.69 84.01 12.69 83.95 14.82 C82.74 17.23 81.48 17.74 79.01 18.69 C79.01 19.35 79.01 20.01 79.01 20.69 C75.54 25.12 71.67 27.42 66.13 28.35 C61.36 28.68 56.59 28.62 51.81 28.55 C50.04 28.55 48.27 28.56 46.5 28.56 C42.81 28.56 39.12 28.54 35.43 28.5 C30.7 28.45 25.97 28.45 21.25 28.47 C17.6 28.48 13.95 28.46 10.31 28.44 C8.57 28.43 6.82 28.43 5.08 28.44 C2.64 28.44 0.21 28.41 -2.22 28.37 C-3.3 28.38 -3.3 28.38 -4.39 28.39 C-8.26 28.3 -9.87 27.8 -12.89 25.3 C-14.65 23.12 -15.94 21.27 -16.99 18.69 C-17.65 18.69 -18.31 18.69 -18.99 18.69 C-18.99 18.03 -18.99 17.37 -18.99 16.69 C-19.65 16.69 -20.31 16.69 -20.99 16.69 C-21.32 15.7 -21.65 14.71 -21.99 13.69 C-20.78 12.46 -19.58 11.23 -18.36 10.01 C-17.69 9.32 -17.02 8.64 -16.33 7.93 C-15.55 7.19 -14.78 6.46 -13.99 5.69 C-12.68 4.41 -12.68 4.41 -11.34 3.1 C-7.82 0.2 -4.44 -0.03 0 0 Z " fill="#000000" transform="translate(649.98974609375,332.305419921875)"/>
<path d="M0 0 C0.73 -0 1.46 -0 2.22 -0 C4.62 0 7.02 0.02 9.43 0.03 C11.1 0.04 12.77 0.04 14.45 0.04 C18.83 0.05 23.22 0.07 27.61 0.09 C32.1 0.11 36.58 0.12 41.07 0.13 C49.86 0.15 58.65 0.18 67.43 0.23 C67.91 1.48 68.39 2.74 68.86 4 C69.13 4.7 69.39 5.39 69.66 6.12 C70.79 9.2 71.72 12.32 72.62 15.48 C72.97 16.66 73.31 17.84 73.66 19.06 C74.43 22.23 74.43 22.23 74.43 26.23 C62.02 26.3 49.61 26.35 37.19 26.38 C31.43 26.4 25.67 26.42 19.9 26.45 C14.34 26.49 8.78 26.5 3.21 26.51 C1.09 26.52 -1.03 26.53 -3.15 26.54 C-6.13 26.57 -9.1 26.57 -12.07 26.57 C-13.39 26.58 -13.39 26.58 -14.73 26.6 C-20.45 26.57 -24.98 25.82 -29.21 21.58 C-31.5 18.2 -33.33 15.43 -33.57 11.23 C-32.26 8.61 -31.24 8.55 -28.52 7.57 C-27.7 7.27 -26.87 6.97 -26.02 6.66 C-25.15 6.35 -24.28 6.04 -23.38 5.73 C-22.53 5.42 -21.68 5.11 -20.8 4.79 C-18.39 3.93 -15.98 3.07 -13.57 2.23 C-12.68 1.88 -11.8 1.54 -10.89 1.19 C-7.11 0.09 -3.94 -0.01 0 0 Z " fill="#000000" transform="translate(421.56591796875,431.77294921875)"/>
<path d="M0 0 C1.16 -0.02 1.16 -0.02 2.35 -0.05 C4.91 -0.09 7.46 -0.09 10.01 -0.09 C11.8 -0.11 13.59 -0.12 15.37 -0.14 C19.11 -0.16 22.85 -0.17 26.59 -0.16 C31.37 -0.16 36.14 -0.21 40.91 -0.29 C44.6 -0.34 48.29 -0.34 51.98 -0.34 C53.74 -0.34 55.5 -0.36 57.26 -0.39 C70.94 -0.63 70.94 -0.63 76.09 2.68 C79.25 5.78 81.58 9.04 84.03 12.71 C83.9 14.77 83.9 14.77 83.03 16.71 C80.96 17.96 80.96 17.96 79.03 18.71 C79.03 19.37 79.03 20.03 79.03 20.71 C75.56 25.13 71.68 27.42 66.16 28.38 C61.41 28.73 56.66 28.69 51.89 28.64 C50.13 28.64 48.37 28.65 46.6 28.66 C42.92 28.67 39.24 28.66 35.55 28.62 C30.84 28.58 26.14 28.61 21.43 28.65 C17.79 28.67 14.15 28.67 10.51 28.65 C8.78 28.64 7.04 28.65 5.31 28.66 C-9.91 28.78 -9.91 28.78 -14.59 24.28 C-16.97 21.26 -16.97 21.26 -16.97 18.71 C-17.63 18.71 -18.29 18.71 -18.97 18.71 C-20.6 16.21 -20.6 16.21 -21.97 13.71 C-21.02 12.7 -20.06 11.71 -19.1 10.71 C-18.3 9.88 -18.3 9.88 -17.48 9.02 C-15.97 7.71 -15.97 7.71 -13.97 7.71 C-13.97 7.05 -13.97 6.39 -13.97 5.71 C-9.57 1.17 -6.35 -0.03 0 0 Z " fill="#000000" transform="translate(431.973876953125,332.28955078125)"/>
<path d="M0 0 C2.5 1.38 2.5 1.38 5 3 C5 3.66 5 4.32 5 5 C5.66 5 6.32 5 7 5 C7.26 12.39 6.81 19.59 5.92 26.93 C5.28 32.31 4.73 37.7 4.23 43.1 C4.14 44.17 4.14 44.17 4.04 45.26 C3.77 48.16 3.5 51.07 3.24 53.97 C3.06 56.03 2.87 58.09 2.68 60.14 C2.58 61.34 2.47 62.54 2.36 63.78 C2.05 66.58 1.55 69.25 1 72 C0.86 73.66 0.76 75.32 0.68 76.98 C0.62 77.92 0.56 78.86 0.49 79.82 C0.37 81.76 0.27 83.69 0.19 85.63 C-0.41 94.16 -3.71 100.16 -9.94 106 C-13.4 108.26 -15.91 108.75 -20 109 C-27.09 91.44 -26.86 75.11 -24.63 56.6 C-24.1 52.1 -23.71 47.6 -23.34 43.09 C-23.16 40.97 -22.98 38.85 -22.8 36.74 C-22.68 35.34 -22.57 33.94 -22.47 32.54 C-22.32 30.56 -22.15 28.58 -21.98 26.6 C-21.84 24.87 -21.84 24.87 -21.7 23.11 C-20.51 17.82 -16.96 14.77 -12.94 11.38 C-11 9.73 -9.13 8.13 -7.38 6.29 C-6 5 -6 5 -4 5 C-4 4.34 -4 3.68 -4 3 C-2 1.38 -2 1.38 0 0 Z " fill="#000000" transform="translate(521,349)"/>
<path d="M0 0 C0.99 0.33 1.98 0.66 3 1 C3 1.66 3 2.32 3 3 C3.66 3 4.32 3 5 3 C7.17 6.25 7.25 7.19 7.19 10.94 C7.18 11.79 7.17 12.65 7.17 13.53 C7 16 7 16 6.52 17.87 C5.97 20.13 5.73 22.28 5.54 24.6 C5.46 25.5 5.38 26.41 5.3 27.34 C5.22 28.31 5.14 29.28 5.06 30.28 C4.98 31.28 4.89 32.28 4.8 33.32 C4.53 36.52 4.27 39.73 4 42.94 C3.73 46.14 3.47 49.34 3.2 52.55 C3.03 54.54 2.86 56.53 2.7 58.52 C2.62 59.43 2.54 60.34 2.46 61.27 C2.37 62.46 2.37 62.46 2.27 63.68 C1.98 66.16 1.5 68.56 1 71 C0.83 72.61 0.69 74.22 0.57 75.84 C0.5 76.74 0.42 77.64 0.35 78.56 C0.2 80.43 0.06 82.3 -0.07 84.16 C-0.83 93.15 -3.33 99.72 -10 106 C-14.87 109.18 -14.87 109.18 -18.68 108.56 C-19.83 108.28 -19.83 108.28 -21 108 C-28.63 85.68 -28.22 57.77 -22.44 34.77 C-21.86 32.82 -21.86 32.82 -22.21 30.04 C-22.45 25.03 -22.53 21.09 -19.52 16.98 C-15.48 12.59 -10.97 8.32 -6 5 C-5.34 5 -4.68 5 -4 5 C-4 4.34 -4 3.68 -4 3 C-3.34 3 -2.68 3 -2 3 C-2 2.34 -2 1.68 -2 1 C-1.34 0.67 -0.68 0.34 0 0 Z " fill="#000000" transform="translate(739,349)"/>
<path d="M0 0 C6.62 0.75 6.62 0.75 10 3 C10 3.66 10 4.32 10 5 C10.66 5 11.32 5 12 5 C20.11 18.95 14.69 47.8 11.5 63.47 C10.86 66.73 10.6 69.97 10.32 73.28 C10.19 74.69 10.07 76.11 9.94 77.52 C9.75 79.73 9.56 81.94 9.38 84.15 C9.2 86.3 9.01 88.44 8.82 90.59 C8.71 91.87 8.6 93.14 8.49 94.46 C7.86 99.04 6.96 102.71 4.19 106.44 C2 108 2 108 -0.38 108.12 C-4.02 106.56 -6.58 104.13 -9 101 C-9 100.34 -9 99.68 -9 99 C-9.66 99 -10.32 99 -11 99 C-14.82 95.19 -17.78 91.66 -18.5 86.25 C-18.23 84.46 -17.93 82.68 -17.53 80.92 C-16.76 76.65 -16.45 72.37 -16.1 68.05 C-15.93 66.07 -15.76 64.09 -15.59 62.1 C-15.32 58.99 -15.06 55.89 -14.8 52.78 C-14.55 49.77 -14.29 46.76 -14.04 43.74 C-13.96 42.83 -13.89 41.92 -13.81 40.98 C-12.97 31.25 -11.78 22.33 -7.06 13.69 C-6.54 12.69 -6.54 12.69 -6.01 11.68 C-5.33 10.39 -4.65 9.1 -3.97 7.82 C-2.59 5.24 -1.3 2.62 0 0 Z " fill="#000000" transform="translate(523,235)"/>
<path d="M0 0 C2.63 1.52 4.84 2.84 7 5 C7.78 13.35 6.94 21.79 5.93 30.08 C5.28 35.41 4.73 40.74 4.23 46.09 C4.17 46.8 4.1 47.51 4.04 48.25 C3.77 51.16 3.5 54.07 3.24 56.97 C3.06 59.03 2.87 61.09 2.68 63.14 C2.58 64.34 2.47 65.54 2.36 66.78 C2.05 69.58 1.56 72.25 1 75 C0.86 76.51 0.76 78.03 0.68 79.55 C-0.55 98.06 -0.55 98.06 -7 104 C-10.55 106.96 -13.27 109.11 -18 108.81 C-18.66 108.54 -19.32 108.28 -20 108 C-21.04 105.01 -22.02 102.01 -23 99 C-23.29 98.17 -23.57 97.34 -23.87 96.48 C-28.63 81.37 -25.33 64.94 -23.46 49.54 C-23.28 48.11 -23.11 46.68 -22.94 45.25 C-22.81 44.22 -22.81 44.22 -22.68 43.16 C-21.97 37.17 -21.61 31.19 -21.34 25.17 C-20.75 19.68 -19.21 16.74 -15 13.19 C-14.3 12.58 -13.6 11.98 -12.88 11.36 C-11 10 -11 10 -9 10 C-9 9.34 -9 8.68 -9 8 C-8.34 8 -7.68 8 -7 8 C-7 7.34 -7 6.68 -7 6 C-5.47 4.49 -5.47 4.49 -3.5 2.88 C-2.85 2.34 -2.2 1.8 -1.53 1.24 C-1.03 0.83 -0.52 0.42 0 0 Z " fill="#000000" transform="translate(361,349)"/>
<path d="M0 0 C4.88 0.45 7.48 1.57 11 5 C16.48 11.86 15.05 21.34 14.26 29.55 C14.17 30.52 14.08 31.5 13.99 32.5 C13.81 34.54 13.62 36.59 13.42 38.63 C13.12 41.75 12.84 44.88 12.56 48 C12.38 50 12.19 51.99 12.01 53.98 C11.92 54.91 11.84 55.84 11.75 56.8 C11.35 60.94 10.84 64.93 10 69 C9.73 71.46 9.5 73.92 9.28 76.38 C9.15 77.81 9.02 79.24 8.89 80.67 C8.7 82.9 8.5 85.14 8.3 87.38 C8.11 89.55 7.91 91.71 7.72 93.88 C7.6 95.18 7.49 96.47 7.37 97.8 C6.72 103.39 6.72 103.39 4.37 105.39 C3.73 105.82 3.09 106.25 2.44 106.69 C1.8 107.12 1.16 107.56 0.5 108.01 C0 108.34 -0.49 108.66 -1 109 C-3 107.62 -3 107.62 -5 106 C-5 105.34 -5 104.68 -5 104 C-5.66 104 -6.32 104 -7 104 C-8.73 102.32 -8.73 102.32 -10.62 100.12 C-11.26 99.41 -11.89 98.69 -12.54 97.95 C-14 96 -14 96 -14 94 C-14.66 94 -15.32 94 -16 94 C-17.66 92.61 -17.66 92.61 -19 90 C-19.17 86.69 -18.75 83.47 -18.38 80.19 C-18.27 79.2 -18.17 78.2 -18.07 77.18 C-17.84 74.99 -17.61 72.8 -17.38 70.6 C-16.97 66.75 -16.61 62.9 -16.26 59.04 C-16.07 56.99 -15.88 54.94 -15.69 52.89 C-15.5 50.93 -15.32 48.96 -15.14 47 C-12.87 23.29 -12.87 23.29 -8.12 14.06 C-7.79 13.36 -7.45 12.66 -7.1 11.94 C-5.02 7.72 -2.69 3.85 0 0 Z " fill="#000000" transform="translate(364,235)"/>
<path d="M0 0 C17.05 13.72 17.05 13.72 18 22 C17.84 24.92 17.61 27.77 17.29 30.68 C17.21 31.52 17.12 32.36 17.03 33.23 C16.76 35.92 16.47 38.62 16.19 41.31 C16.01 43.08 15.83 44.85 15.65 46.62 C15.21 50.93 14.74 55.23 14.27 59.53 C14.01 61.94 13.77 64.35 13.53 66.77 C13.38 68.22 13.22 69.67 13.07 71.12 C12.94 72.39 12.81 73.66 12.68 74.96 C12 78 12 78 10.44 79.73 C8.34 80.92 6.34 81.41 4 82 C1.6 82.91 -0.79 83.83 -3.19 84.75 C-7.3 86.26 -10.6 87.3 -15 87 C-15.1 80.35 -14.73 73.87 -14.06 67.25 C-13.98 66.33 -13.89 65.41 -13.8 64.46 C-13.12 57.54 -13.12 57.54 -12.51 54.83 C-11.74 50.55 -11.57 46.25 -11.31 41.91 C-11.1 38.87 -10.88 35.83 -10.66 32.78 C-10.51 30.68 -10.38 28.58 -10.26 26.48 C-10.08 23.43 -9.85 20.39 -9.62 17.35 C-9.58 16.42 -9.53 15.49 -9.49 14.53 C-9.02 9.13 -8.03 6.49 -3.9 2.85 C-2.62 1.88 -1.33 0.91 0 0 Z " fill="#000000" transform="translate(821,349)"/>
<path d="M0 0 C9.11 0.34 17.35 4.22 25 9 C24.49 20.3 23.61 31.47 22.27 42.7 C21.99 45.09 21.74 47.49 21.5 49.89 C21.41 50.69 21.33 51.49 21.24 52.32 C21.09 53.85 20.93 55.37 20.79 56.9 C20.3 61.47 19.38 65.62 18 70 C17.34 70 16.68 70 16 70 C16 70.66 16 71.32 16 72 C14.6 73.45 14.6 73.45 12.62 75.12 C11.91 75.74 11.19 76.35 10.45 76.98 C6.34 80.37 2.18 83.7 -2 87 C-2.66 86.67 -3.32 86.34 -4 86 C-4 85.34 -4 84.68 -4 84 C-4.66 84 -5.32 84 -6 84 C-8.57 80.14 -8.1 77.25 -7.81 72.81 C-7.74 71.54 -7.74 71.54 -7.66 70.25 C-7.11 61.5 -6.31 52.78 -5.5 44.06 C-5.43 43.35 -5.37 42.64 -5.3 41.91 C-5.11 39.87 -4.92 37.83 -4.72 35.79 C-4.55 34 -4.55 34 -4.37 32.19 C-4.05 29.41 -3.55 26.74 -3 24 C-2.81 22.17 -2.64 20.35 -2.5 18.52 C-2.42 17.5 -2.34 16.48 -2.25 15.43 C-2.08 13.3 -1.92 11.16 -1.75 9.02 C-1.67 8.01 -1.59 7 -1.5 5.95 C-1.43 5.03 -1.36 4.1 -1.28 3.15 C-1 1 -1 1 0 0 Z " fill="#000000" transform="translate(824,257)"/>
<path d="M0 0 C5.48 0.42 10.17 1.13 15.25 3.38 C16.22 3.8 17.2 4.22 18.2 4.65 C20.91 5.96 23.45 7.41 26 9 C25.86 11.75 25.71 14.5 25.56 17.25 C25.52 18.03 25.48 18.8 25.44 19.61 C25.38 20.74 25.38 20.74 25.32 21.89 C25.26 22.93 25.26 22.93 25.21 23.99 C25 26 25 26 24.52 27.81 C23.78 30.9 23.58 33.98 23.32 37.14 C23.19 38.56 23.07 39.97 22.94 41.38 C22.75 43.6 22.56 45.81 22.38 48.02 C22.2 50.17 22.01 52.31 21.82 54.46 C21.65 56.37 21.65 56.37 21.49 58.33 C20.53 65.55 18.82 69.97 13.5 74.94 C13 75.43 12.5 75.92 11.99 76.43 C8.3 80 8.3 80 6 80 C6 80.66 6 81.32 6 82 C4.47 83.29 4.47 83.29 2.5 84.62 C1.53 85.29 1.53 85.29 0.53 85.98 C0.03 86.31 -0.48 86.65 -1 87 C-3 85.62 -3 85.62 -5 84 C-5 83.34 -5 82.68 -5 82 C-5.66 82 -6.32 82 -7 82 C-7.28 73.74 -6.81 65.66 -6.06 57.44 C-5.98 56.47 -5.89 55.51 -5.8 54.52 C-5.42 50.57 -4.96 46.85 -4 43 C-3.82 41.52 -3.66 40.03 -3.54 38.54 C-3.46 37.66 -3.38 36.79 -3.3 35.89 C-3.22 34.96 -3.14 34.02 -3.06 33.06 C-2.89 31.09 -2.72 29.12 -2.54 27.15 C-2.45 26.14 -2.37 25.13 -2.27 24.09 C-1.83 19.1 -1.35 14.11 -0.88 9.12 C-0.79 8.21 -0.7 7.29 -0.61 6.35 C-0.41 4.23 -0.2 2.12 0 0 Z " fill="#000000" transform="translate(624,257)"/>
<path d="M0 0 C9.11 0.34 17.35 4.22 25 9 C24.45 20.25 23.53 31.4 22.27 42.59 C22 45.04 21.74 47.5 21.5 49.96 C21.33 51.55 21.17 53.15 21 54.75 C20.93 55.48 20.86 56.2 20.79 56.95 C20.3 61.52 19.37 65.64 18 70 C17.34 70 16.68 70 16 70 C16 70.66 16 71.32 16 72 C14.36 73.69 14.36 73.69 12.19 75.56 C11.13 76.49 11.13 76.49 10.04 77.44 C8 79 8 79 5 80 C5 80.66 5 81.32 5 82 C3.47 83.29 3.47 83.29 1.5 84.62 C0.53 85.29 0.53 85.29 -0.47 85.98 C-0.97 86.31 -1.48 86.65 -2 87 C-4 85 -6 83 -8 81 C-7.99 78.3 -7.9 75.63 -7.75 72.94 C-7.71 72.08 -7.66 71.23 -7.62 70.34 C-7.11 61.57 -6.32 52.82 -5.5 44.06 C-5.43 43.35 -5.37 42.65 -5.3 41.92 C-5.11 39.87 -4.92 37.83 -4.72 35.79 C-4.55 34 -4.55 34 -4.37 32.19 C-4.05 29.41 -3.55 26.74 -3 24 C-2.81 22.17 -2.64 20.35 -2.5 18.52 C-2.42 17.5 -2.33 16.48 -2.25 15.43 C-2.08 13.3 -1.92 11.16 -1.75 9.02 C-1.67 8.01 -1.58 7 -1.5 5.95 C-1.43 5.03 -1.36 4.1 -1.28 3.15 C-1 1 -1 1 0 0 Z " fill="#000000" transform="translate(407,257)"/>
<path d="M0 0 C25.08 0 50.16 0 76 0 C76 6.27 76 12.54 76 19 C50.92 19 25.84 19 0 19 C0 12.73 0 6.46 0 0 Z " fill="#000000" transform="translate(202,662)"/>
<path d="M0 0 C8.25 0 16.5 0 25 0 C25.77 3.83 26.12 5.71 25.7 9.32 C25.61 10.1 25.52 10.89 25.43 11.69 C25.33 12.49 25.23 13.3 25.12 14.12 C25.03 14.94 24.94 15.75 24.85 16.58 C24.46 19.9 24.06 22.82 23 26 C14.75 26 6.5 26 -2 26 C-2.85 22.6 -3.08 21.1 -2.7 17.81 C-2.61 17.03 -2.52 16.25 -2.43 15.45 C-2.33 14.64 -2.23 13.83 -2.12 13 C-2.03 12.19 -1.94 11.39 -1.85 10.55 C-1.42 6.92 -0.89 3.56 0 0 Z " fill="#000000" transform="translate(626,824)"/>
<path d="M0 0 C3.98 -0.03 7.96 -0.05 11.94 -0.06 C13.07 -0.07 14.21 -0.08 15.38 -0.09 C16.46 -0.09 17.54 -0.09 18.65 -0.1 C20.15 -0.11 20.15 -0.11 21.68 -0.11 C24 0 24 0 25 1 C24.96 3.89 24.85 6.74 24.69 9.62 C24.65 10.42 24.62 11.22 24.58 12.04 C24.54 12.82 24.49 13.61 24.45 14.41 C24.41 15.13 24.37 15.84 24.33 16.57 C23.89 19.78 22.89 22.89 22 26 C13.42 26 4.84 26 -4 26 C-3.71 22.64 -3.42 19.28 -3.12 15.81 C-3.04 14.76 -2.95 13.71 -2.86 12.63 C-2.79 11.79 -2.71 10.95 -2.63 10.08 C-2.56 9.23 -2.49 8.37 -2.41 7.5 C-1.96 4.78 -1.1 2.51 0 0 Z " fill="#000000" transform="translate(552,432)"/>
<path d="M0 0 C8.25 0 16.5 0 25 0 C25.77 3.83 26.12 5.71 25.7 9.32 C25.61 10.1 25.52 10.89 25.43 11.69 C25.33 12.49 25.23 13.3 25.12 14.12 C25.03 14.94 24.94 15.75 24.85 16.58 C24.46 19.9 24.06 22.82 23 26 C14.75 26 6.5 26 -2 26 C-2.85 22.6 -3.08 21.1 -2.7 17.81 C-2.61 17.03 -2.52 16.25 -2.43 15.45 C-2.33 14.64 -2.23 13.83 -2.12 13 C-2.03 12.19 -1.94 11.39 -1.85 10.55 C-1.42 6.92 -0.89 3.56 0 0 Z " fill="#000000" transform="translate(786,235)"/>
</svg>
