<?xml version="1.0" encoding="UTF-8" standalone="no"?>
<!-- Generator: visioncortex VTracer 0.6.3 -->

<svg
   version="1.1"
   width="1280"
   height="1280"
   id="svg1"
   sodipodi:docname="icon.svg"
   inkscape:version="1.3.2 (091e20e, 2023-11-25)"
   xmlns:inkscape="http://www.inkscape.org/namespaces/inkscape"
   xmlns:sodipodi="http://sodipodi.sourceforge.net/DTD/sodipodi-0.dtd"
   xmlns="http://www.w3.org/2000/svg"
   xmlns:svg="http://www.w3.org/2000/svg">
  <defs
     id="defs1" />
  <sodipodi:namedview
     id="namedview1"
     pagecolor="#ffffff"
     bordercolor="#000000"
     borderopacity="0.25"
     inkscape:showpageshadow="2"
     inkscape:pageopacity="0.0"
     inkscape:pagecheckerboard="0"
     inkscape:deskcolor="#d1d1d1"
     inkscape:zoom="0.56640625"
     inkscape:cx="640"
     inkscape:cy="649.71034"
     inkscape:window-width="2136"
     inkscape:window-height="1387"
     inkscape:window-x="0"
     inkscape:window-y="25"
     inkscape:window-maximized="0"
     inkscape:current-layer="svg1" />
  <path
     d="m 163.16921,15.589038 c 3.36397,0.007 6.72794,0 10.0919,-0.007 5.89221,-0.007 11.77739,-0.007 17.66257,0 8.75754,0.007 17.51509,0 26.26561,-0.007 15.63998,-0.007 31.27997,-0.007 46.91994,0 13.68762,0.007 27.37523,0.007 41.06285,0 0.90595,0 1.8119,0 2.75297,0 3.68702,0 7.37403,0 11.06105,0 10.30961,0 20.61921,0 30.9218,0 0.47053,-0.007 0.94107,-0.007 1.42564,-0.007 14.94472,0 29.89645,0.007 44.84818,0.007 0.72337,0 0.72337,0 1.46778,0 7.86565,0.007 15.73831,0.007 23.60395,0.007 31.20973,0.0141 62.41243,0.0141 93.62216,0 7.86564,0 15.73128,0 23.59692,-0.007 0.48457,0 0.96916,0 1.46779,0 14.93066,0 29.86835,-0.007 44.79901,0 0.70229,0 0.70229,0 1.41863,0 10.75906,0 21.51814,0 32.27721,0 3.67999,0 7.35999,0 11.04701,0 0.90594,0 1.8119,0 2.74594,0 13.67358,0.007 27.35417,0 41.02773,0 15.55571,-0.007 31.10439,-0.007 46.6601,0.007 8.70137,0.007 17.40271,0.007 26.10411,-0.007 5.81491,0 11.62989,0 17.44486,0.007 3.31481,0.007 6.62255,0.007 9.93736,0 25.14896,-0.04937 25.14896,-0.04937 35.93615,2.397921 0.79358,0.169266 1.58716,0.33853 2.4018,0.514848 36.68763,8.30104 65.74129,31.913516 86.08669,62.959551 0.70921,1.072012 0.70921,1.072012 1.43259,2.172236 5.91322,9.591691 10.50631,20.756126 13.31543,31.680766 0.18261,0.64181 0.36521,1.29066 0.55477,1.95361 0.58293,2.15813 1.07451,4.32332 1.55209,6.50965 0.27387,1.19897 0.27387,1.19897 0.54773,2.43319 2.35274,11.70044 1.86107,23.70415 1.833,35.58093 -0.008,3.38529 0,6.76354 0.008,10.14179 0.008,5.91017 0.008,11.82035 0,17.73757 -0.008,8.78768 -0.008,17.58241 0,26.37714 0.0147,15.70638 0.0147,31.41277 0.008,47.11915 -0.008,13.73869 -0.008,27.48443 -0.008,41.23015 0,0.90981 0,1.82666 0,2.76467 0,3.70267 0.008,7.40535 0.008,11.10802 0,10.35337 0,20.70676 0,31.06014 0,0.47253 0,0.93801 0,1.42464 0,15.01523 0,30.0234 -0.008,45.03862 0,0.48663 0,0.97327 0,1.47402 0,7.90609 0,15.80512 -0.008,23.71121 -0.008,31.33518 -0.008,62.67743 0,94.01264 0.008,7.89903 0.008,15.79806 0.008,23.69709 0,0.7335 0,0.7335 0,1.47403 0.008,15.00111 0.008,29.99517 0.008,44.98924 0,0.70527 0,0.70527 0,1.4317 0,10.80476 0,21.6095 0,32.41426 -0.008,3.69562 -0.008,7.39124 -0.008,11.08685 0,1.36823 0,1.36823 0,2.75763 0,13.73867 0,27.47031 0.008,41.20193 0.008,15.62175 0.008,31.2435 -0.008,46.85821 -0.008,8.73829 -0.008,17.47662 0,26.21494 0.008,5.83964 0.008,11.68636 -0.008,17.526 0,3.3218 -0.008,6.65067 0,9.97248 0.0565,25.26282 0.0565,25.26282 -2.38073,36.09581 -0.1686,0.7899 -0.34409,1.58687 -0.51973,2.41204 -8.25892,36.83631 -31.77152,66.01331 -62.68634,86.4521 -1.06746,0.70529 -1.06746,0.70529 -2.16301,1.43169 -9.55114,5.93835 -20.66836,10.55084 -31.54686,13.37895 -0.63903,0.18342 -1.28513,0.36676 -1.95236,0.5501 -2.14197,0.5925 -4.29799,1.07909 -6.47507,1.56576 -1.2009,0.26797 -1.2009,0.26797 -2.42293,0.5501 -11.65094,2.3556 -23.60391,1.86197 -35.43745,1.83374 -3.364,-0.008 -6.72799,0 -10.09192,0.008 -5.88521,0.008 -11.77743,0.008 -17.66258,0 -8.75759,-0.008 -17.5081,0 -26.26562,0.008 -15.63997,0.008 -31.27995,0.008 -46.91993,0 -13.68762,0 -27.37523,-0.008 -41.05582,0 -0.91298,0 -1.81894,0 -2.75298,0 -3.68701,0 -7.38106,0 -11.06807,0 -10.30259,0 -20.61219,0 -30.9218,0.008 -0.47053,0 -0.94106,0 -1.42565,0 -14.9447,0 -29.89644,-0.008 -44.84115,-0.008 -0.48458,0 -0.96916,0 -1.46779,0 -7.87266,-0.008 -15.7383,-0.008 -23.61095,-0.008 -31.20272,-0.0139 -62.41244,-0.0139 -93.62217,0 -7.86565,0 -15.73127,0 -23.5899,0.008 -0.48458,0 -0.96915,0 -1.46778,0 -14.9377,0 -29.86836,0.008 -44.80604,0.008 -0.7023,0 -0.7023,0 -1.41863,0 -10.75907,-0.008 -21.51814,-0.008 -32.27721,-0.008 -3.67999,0 -7.35999,0 -11.03998,0 -0.90595,0 -1.81191,0 -2.74596,0 -13.68059,-0.008 -27.35415,0 -41.03475,0 -15.54868,0.008 -31.10438,0.008 -46.66008,-0.008 -8.70137,0 -17.40273,0 -26.10409,0.008 -5.81496,0 -11.62991,0 -17.44487,-0.008 -3.3148,-0.008 -6.62258,-0.008 -9.93037,0 -25.15599,0.0499 -25.15599,0.0499 -35.94316,-2.39079 -0.79358,-0.17638 -1.58716,-0.34565 -2.40182,-0.52195 -36.687587,-8.29403 -65.734265,-31.91353 -86.086604,-62.9525 -0.470534,-0.71937 -0.941068,-1.43873 -1.425647,-2.17922 -5.920298,-9.59173 -10.506246,-20.75619 -13.322425,-31.67372 -0.273892,-0.9733 -0.273892,-0.9733 -0.554809,-1.96067 -0.582899,-2.15818 -1.074502,-4.32336 -1.552059,-6.50261 -0.182595,-0.80404 -0.36519,-1.608 -0.547785,-2.44024 -2.352668,-11.70048 -1.854043,-23.70416 -1.825952,-35.58089 0,-3.37828 -0.007,-6.76362 -0.007,-10.14181 -0.007,-5.91017 -0.007,-11.82035 -0.007,-17.73759 0.01405,-8.78766 0.007,-17.58246 0,-26.37716 -0.01404,-15.70638 -0.007,-31.41277 -0.007,-47.1121 0.007,-13.74573 0.007,-27.49147 0.007,-41.2372 0,-0.90981 0,-1.82666 0,-2.76466 0,-3.70267 0,-7.40536 0,-11.10802 -0.007,-10.35338 -0.007,-20.70676 -0.007,-31.06015 0,-0.47252 0,-0.938 0,-1.42463 0,-15.01523 0,-30.0234 0.007,-45.03862 0,-0.72643 0,-0.72643 0,-1.47402 0,-7.89903 0.007,-15.80512 0.007,-23.70416 0.01405,-31.34225 0.01405,-62.68449 0,-94.01969 0,-7.89903 -0.007,-15.79806 -0.007,-23.6971 0,-0.48664 0,-0.97328 0,-1.47402 -0.007,-14.99406 -0.007,-29.99518 -0.007,-44.98924 0,-0.47253 0,-0.94506 0,-1.43171 0,-10.80475 0,-21.60949 0.007,-32.40719 0,-3.70268 0,-7.3983 0,-11.09392 0,-0.9098 0,-1.8196 0,-2.75762 0,-13.73162 0,-27.47031 -0.007,-41.20193 -0.007,-15.62175 0,-31.24351 0.007,-46.85821 0.007,-8.73831 0.007,-17.47662 0,-26.21493 -0.007,-5.83964 0,-11.68633 0.007,-17.52598 0.007,-3.32183 0.007,-6.65071 0,-9.97254 -0.05618,-25.2628 -0.05618,-25.2628 2.38076,-36.08871 0.175573,-0.79696 0.344122,-1.59391 0.519695,-2.41203 8.258892,-36.843585 31.778556,-66.020649 62.686304,-86.452353 0.716328,-0.479584 1.432664,-0.952115 2.163053,-1.438752 9.558154,-5.938382 20.675399,-10.550856 31.546819,-13.37194 0.64612,-0.183371 1.2852,-0.373793 1.95237,-0.557164 2.14901,-0.585375 4.30503,-1.079065 6.4751,-1.558649 0.80062,-0.18337 1.60123,-0.366742 2.42994,-0.557164 11.65096,-2.355605 23.60392,-1.861916 35.43047,-1.833705 z M 96.514953,67.257197 c -0.421372,0.268003 -0.849767,0.536006 -1.285184,0.818114 -1.004281,0.655902 -1.97344,1.368226 -2.928546,2.094655 0,0.465479 0,0.930958 0,1.410543 -0.407327,0.190423 -0.814654,0.380845 -1.229012,0.578322 -4.396333,2.306235 -7.669,5.416483 -10.709906,9.295474 -1.165801,1.170748 -2.338626,2.348549 -3.511451,3.526353 -2.528238,2.468451 -2.528238,2.468451 -3.511444,5.642165 -0.46351,0 -0.927021,0 -1.404578,0 -1.502899,1.826661 -2.69679,3.893097 -3.946864,5.903123 -0.379237,0.606538 -0.758473,1.206012 -1.144732,1.826653 -11.089145,18.139571 -15.52059,38.218641 -15.450361,59.355611 -0.007,1.10023 -0.007,2.20751 -0.007,3.30772 -0.007,3.01151 -0.007,6.02302 0,9.03452 0,3.28657 0,6.57314 -0.007,9.85264 -0.007,5.74796 -0.007,11.49592 -0.007,17.25093 0.007,8.5479 0,17.09578 -0.007,25.64366 -0.007,16.15776 -0.007,32.31553 -0.007,48.47329 0,12.47624 0,24.95953 0,37.43578 -0.007,1.79139 -0.007,3.58982 -0.007,5.38122 0,2.70119 0,5.40238 0,8.11061 -0.007,25.12176 -0.007,50.25057 -0.007,75.37233 0,0.47253 0,0.94506 0,1.4317 0,5.28247 0,10.55791 0,15.83333 0.007,0.47959 0.007,0.95917 0.007,1.44581 0,2.89161 0,2.89161 0,5.78322 0,30.47476 -0.007,60.94248 -0.01405,91.41723 -0.007,7.68041 -0.007,15.36082 -0.01404,23.03416 0,0.47253 0,0.94506 0,1.43875 -0.007,25.54492 -0.007,51.09689 -0.007,76.64181 0,3.59688 0,7.19376 0,10.79064 0,0.8816 0,1.77024 0,2.68004 0,13.35078 -0.007,26.70861 -0.01405,40.05939 -0.007,15.19155 -0.007,30.38308 0,45.56757 0.007,8.49851 0.007,16.99706 -0.007,25.48853 0,5.68445 0,11.3619 0.007,17.04634 0.007,3.23014 0.007,6.46735 0,9.69749 -0.0632,26.75798 3.18137,50.63146 17.739824,73.69376 0.26687,0.42323 0.533739,0.85335 0.807632,1.29066 0.653129,1.00854 1.369464,1.97476 2.085799,2.94098 0.463511,0 0.927022,0 1.404578,0 0.189617,0.40196 0.386259,0.81112 0.5829,1.23419 2.296487,4.41507 5.39358,7.70162 9.249148,10.75546 1.172825,1.17068 2.345647,2.34856 3.511447,3.52636 2.465029,2.5319 2.465029,2.5319 5.618314,3.52636 0,0.46539 0,0.93094 0,1.41049 1.825949,1.50225 3.883652,2.70829 5.885182,3.96368 0.596945,0.38076 1.200913,0.75464 1.818931,1.14956 18.05586,11.13622 38.05002,15.58648 59.10465,15.51593 1.09558,0 2.19816,0.008 3.29374,0.008 2.99877,0.008 5.99755,0 8.99632,0 3.26564,-0.008 6.53832,0 9.81099,0.008 5.72365,0.008 11.4473,0.008 17.17096,0 8.51174,0 17.02349,0 25.54225,0.008 16.08945,0.0147 32.1789,0.0147 48.26834,0.0147 12.42349,0 24.84699,0 37.2775,0 1.78382,0 3.56764,0 5.35847,0 2.68977,0 5.37953,0.008 8.0693,0.008 25.02256,0 50.0381,0.008 75.06067,0.008 0.70229,-0.008 0.70229,-0.008 1.42565,-0.008 5.25313,0 10.51327,0 15.76639,0 0.47756,0 0.94809,0 1.43969,0 2.87939,0 2.87939,0 5.75175,0 30.34592,0 60.69182,0 91.03774,0.0147 7.64794,0.008 15.28884,0.008 22.93676,0.0147 0.47054,0 0.94107,0 1.42565,0 25.44394,0.008 50.88085,0.008 76.32478,0.008 3.58168,0 7.15633,0 10.73801,0 1.3203,0 1.3203,0 2.66869,0 13.30136,0 26.5957,0 39.89704,0.008 15.12029,0.0147 30.24759,0.0147 45.3749,0 8.46259,0 16.91814,0 25.38076,0.008 5.65344,0.008 11.31387,0.008 16.9673,0 3.22351,-0.008 6.44003,-0.008 9.66353,0 26.63782,0.0638 50.41734,-3.19487 73.3751,-17.81513 0.42839,-0.26797 0.84975,-0.53603 1.29222,-0.81104 0.99724,-0.66297 1.96641,-1.3753 2.92158,-2.09466 0,-0.46556 0,-0.93095 0,-1.41058 0.40728,-0.19742 0.81464,-0.38788 1.236,-0.58538 4.39632,-2.30624 7.66199,-5.4164 10.70291,-9.28841 1.1728,-1.17771 2.34561,-2.3556 3.51146,-3.52636 2.52822,-2.4755 2.52822,-2.4755 3.51138,-5.64214 0.46351,0 0.92701,0 1.4046,0 1.5029,-1.83365 2.69682,-3.90016 3.95385,-5.91019 0.37225,-0.59946 0.75145,-1.20604 1.13778,-1.82669 11.05396,-18.06901 15.52051,-38.21157 15.45732,-59.27096 0,-1.10023 0,-2.20045 0.008,-3.30767 0,-3.01156 0,-6.02303 -0.008,-9.03452 0,-3.28661 0.008,-6.56608 0.008,-9.85269 0.008,-5.7479 0.008,-11.49589 0.008,-17.25093 0,-8.54788 0,-17.09575 0.008,-25.65068 0.008,-16.15776 0.0139,-32.31552 0.008,-48.48034 0,-12.47624 0,-24.95954 0.008,-37.43579 0,-1.79844 0,-3.58982 0,-5.38121 0,-2.70824 0,-5.40943 0,-8.11062 0.008,-25.12881 0.0147,-50.25762 0.008,-75.38643 0,-0.47252 0,-0.94506 0,-1.4317 0,-5.28248 0,-10.5579 0,-15.84039 0,-0.47253 0,-0.95211 0,-1.43875 0,-2.89161 0,-2.89161 0,-5.78322 -0.008,-30.48182 0,-60.95658 0.0147,-91.4384 0,-7.67335 0.008,-15.35374 0.008,-23.03415 0,-0.47253 0,-0.94507 0,-1.4317 0.0147,-25.55197 0.0147,-51.10394 0.0147,-76.65591 -0.008,-3.59689 -0.008,-7.19377 -0.008,-10.79065 0,-0.88159 0,-1.77023 0,-2.68003 0,-13.35783 0.008,-26.70862 0.0139,-40.06645 0.008,-15.19154 0.008,-30.38308 0,-45.57462 -0.008,-8.49852 0,-16.99703 0.008,-25.49555 0.008,-5.68448 0.008,-11.36191 -0.008,-17.0464 0,-3.23014 0,-6.46733 0.008,-9.69748 0.0638,-26.75798 -3.18841,-50.63846 -17.73984,-73.693769 -0.2669,-0.43022 -0.54077,-0.860432 -0.81463,-1.297707 -0.65315,-1.008529 -1.36245,-1.974758 -2.08583,-2.933923 -0.46351,0 -0.92701,0 -1.4046,0 -0.18956,-0.409063 -0.3792,-0.818117 -0.58292,-1.241273 -2.28947,-4.414995 -5.38653,-7.701564 -9.24912,-10.748334 -1.16577,-1.1778 -2.33866,-2.355605 -3.51138,-3.526355 -2.45808,-2.538977 -2.45808,-2.538977 -5.61833,-3.526356 0,-0.465478 0,-0.930958 0,-1.410542 -1.819,-1.50928 -3.88371,-2.708241 -5.87819,-3.970676 -0.60396,-0.380846 -1.20096,-0.75464 -1.81892,-1.149592 -17.99963,-11.093914 -38.05003,-15.586491 -59.02035,-15.515963 -1.09561,0 -2.19814,0 -3.29376,-0.007 -2.99878,-0.007 -5.9975,0 -8.99629,0 -3.27269,0.007 -6.54538,0 -9.81101,-0.007 -5.72367,-0.007 -11.45435,-0.007 -17.17803,0 -8.51174,0 -17.0305,0 -25.54225,-0.007 -16.08943,-0.0141 -32.18591,-0.0141 -48.27534,-0.0141 -12.43052,0 -24.85402,0 -37.28453,0 -1.78382,0 -3.56764,0 -5.35847,0 -2.68977,0 -5.37954,0 -8.07633,-0.007 -25.01554,0 -50.0381,-0.007 -75.06066,0 -0.47054,0 -0.94107,0 -1.43267,0 -5.25313,0 -10.51327,0 -15.76639,0 -0.70931,0 -0.70931,0 -1.4397,0 -2.87938,0 -2.87938,0 -5.75877,0 -30.34591,0.007 -60.69182,0 -91.04476,-0.0141 -7.64793,-0.007 -15.29586,-0.007 -22.94378,-0.007 -0.70229,-0.007 -0.70229,-0.007 -1.42565,-0.007 -25.44394,-0.007 -50.88788,-0.007 -76.33181,-0.007 -3.57465,0 -7.15632,0 -10.738,0 -1.3203,0 -1.3203,0 -2.6687,0 -13.30135,0 -26.60271,0 -39.89704,-0.007 -15.12731,-0.007 -30.25461,-0.0141 -45.38895,0 -8.45555,0 -16.91815,0 -25.38073,-0.007 -5.66044,-0.007 -11.32089,-0.007 -16.97432,0 -3.22351,0.007 -6.43999,0.007 -9.6635,0 -26.64486,-0.06348 -50.41734,3.194877 -73.382204,17.815147 z"
     fill="#000000"
     id="path1"
     style="stroke-width:0.703779" />
  <path
     d="m 293.686,136.57821 c 12.63856,-0.0202 25.27711,-0.0402 37.91568,-0.0503 5.86397,-0.01 11.73795,-0.01 17.60191,-0.0301 5.66383,-0.01 11.31767,-0.01 16.97149,-0.01 2.17146,-0.01 4.33295,-0.01 6.4944,-0.0202 3.02206,0 6.03409,0 9.05614,0 0.91061,-0.01 1.81122,-0.01 2.74186,-0.01 6.17417,0.01 6.17417,0.01 7.28492,1.12551 0.10003,1.54759 0.13009,3.10523 0.13009,4.66288 0.01,1.01497 0.01,2.0199 0.01,3.05497 0,1.11547 0,2.241 0,3.3866 0.01,1.16572 0.01,2.33143 0.01,3.53733 0.01,2.55253 0.0201,5.09499 0.0201,7.64751 0.01,4.02974 0.0201,8.04945 0.04,12.07921 0.01,1.37675 0.01,2.76354 0.0201,4.14029 0,1.03509 0,1.03509 0.01,2.09024 0.04,9.38603 0.0701,18.762 0.09,28.14802 0,6.32098 0.0299,12.64196 0.0701,18.973 0.0201,3.3464 0.0299,6.69281 0.0201,10.03922 0,3.73832 0.0201,7.4666 0.05,11.20493 -0.01,1.66816 -0.01,1.66816 -0.0201,3.35645 0.0299,5.99941 0.0299,5.99941 2.4917,11.34563 0.68045,0.64315 1.3609,1.28631 2.06139,1.94956 7.77525,14.82266 10.54713,31.64513 7.00473,48.23646 -2.6718,8.57204 -7.06478,16.66169 -12.00813,24.11824 -0.66044,0 -1.3209,0 -2.00136,0 -0.25016,0.59291 -0.50033,1.17577 -0.76051,1.78877 -1.40094,2.52236 -2.92197,3.94937 -5.12347,5.80847 -0.67045,0.58286 -1.3509,1.16572 -2.05139,1.76867 -0.68045,0.55271 -1.37093,1.11547 -2.07139,1.68828 -0.68048,0.57281 -1.37094,1.13558 -2.07142,1.71842 -1.93129,1.29636 -1.93129,1.29636 -4.93333,1.29636 0,0.66325 0,1.32649 0,2.00986 -16.5312,7.47666 -32.77219,9.71764 -50.38412,4.42168 -8.72591,-3.36651 -16.75134,-8.12987 -23.66603,-14.47094 0,-0.66325 0,-1.32651 0,-2.00987 -0.66045,0 -1.32091,0 -2.00136,0 -11.91806,-13.19468 -17.5819,-29.20315 -17.26169,-46.89992 0.81056,-10.70247 3.70251,-21.97774 10.34702,-30.51961 3.74253,-5.57735 3.76254,-10.51154 3.68249,-17.08376 0.01,-1.17575 0.0201,-2.35152 0.04,-3.56748 0.0201,-3.86896 0.01,-7.72788 -0.01,-11.59686 0.0201,-2.6932 0.0299,-5.37635 0.05,-8.06956 0.0299,-6.34109 0.0299,-12.68217 0.0299,-19.02326 -0.01,-7.22542 0.0201,-14.45083 0.05,-21.67625 0.0601,-14.85282 0.0801,-29.70563 0.0701,-44.55846 z m 22.01491,22.10837 c 0.0201,7.48669 0.04,14.97341 0.06,22.69126 0,4.76334 -0.01,9.51664 -0.0201,14.28 -0.0299,7.53695 -0.05,15.08395 -0.01,22.63094 0.0299,6.08985 0.0201,12.16966 -0.0201,18.25951 -0.01,2.31134 0,4.63272 0.0201,6.94405 0.18012,22.00788 0.18012,22.00788 -7.08482,29.61519 -3.38228,3.71822 -4.5931,8.43131 -5.95401,13.20472 -0.29021,0.99488 -0.29021,0.99488 -0.5804,2.00986 -2.17147,10.44119 0.38026,20.78189 5.64384,29.83627 6.45436,9.53675 15.31036,15.35528 26.42788,17.97814 12.20827,2.02995 22.86549,-0.75371 33.03237,-7.6475 4.85329,-3.80866 9.12618,-8.27053 11.5278,-14.03883 0,-0.99487 0,-1.98975 0,-3.01476 0.66045,0 1.32091,0 2.00136,0 1.78121,-5.40651 2.39162,-10.21006 2.3816,-15.8879 -0.01,-0.7939 -0.01,-1.59784 -0.01,-2.41182 -0.12012,-6.29083 -1.28087,-11.34562 -4.37296,-16.87271 -0.54037,-1.03508 -1.07071,-2.07016 -1.6211,-3.13538 -0.46032,-0.62306 -0.91061,-1.2461 -1.38094,-1.88926 -0.66044,0 -1.32089,0 -2.00135,0 -0.2902,-0.60296 -0.58039,-1.20591 -0.88059,-1.81892 -1.1708,-2.39173 -1.1708,-2.39173 -3.12213,-5.21557 -0.26015,-2.0199 -0.26015,-2.0199 -0.28019,-4.37143 -0.01,-0.88433 -0.0201,-1.77871 -0.0299,-2.70326 0,-0.97477 -0.01,-1.94955 -0.01,-2.95447 -0.01,-1.02503 -0.0201,-2.06011 -0.0299,-3.11529 -0.0299,-3.41675 -0.05,-6.82343 -0.06,-10.23014 -0.0201,-2.36158 -0.04,-4.72315 -0.0601,-7.08473 -0.05,-6.2205 -0.09,-12.44099 -0.13009,-18.66148 -0.05,-7.45656 -0.11014,-14.92316 -0.1701,-22.37972 -0.0901,-11.33557 -0.1601,-22.68119 -0.23016,-34.01677 -17.50186,0 -35.0037,0 -53.03592,0 z"
     fill="#000000"
     id="path2"
     style="stroke-width:1.0028" />
  <path
     d="m 712.71735,424.75947 c 8.58137,0 17.16274,0 26.00426,0 0,27.46939 0,54.93875 0,83.24051 27.88954,0 55.77908,0 84.51374,0 0,8.61785 0,17.23568 0,26.11466 -27.88951,0 -55.77903,0 -84.51374,0 0.0653,27.86108 0.0653,27.86108 0.14672,55.72216 0,3.47652 0.0162,6.95304 0.0162,10.42957 0,1.82804 0.0162,3.63971 0.0162,5.5167 0,2.59516 0,2.59516 0,5.22296 0.0162,1.50157 0.0162,3.01948 0.0162,4.57005 -0.19486,3.41123 -0.19486,3.41123 -1.82018,5.04339 -8.04511,0 -16.09022,0 -24.379,0 -0.5364,-28.00797 -1.07264,-56.01595 -1.62523,-84.87264 -27.74338,-0.47334 -27.74338,-0.47334 -55.48665,-0.93035 -3.46182,-0.065 -6.92363,-0.11437 -10.38545,-0.17959 -1.82031,-0.0329 -3.62436,-0.0653 -5.49342,-0.0817 -1.72278,-0.0329 -3.44553,-0.065 -5.20085,-0.0979 -1.49525,-0.0329 -3.00673,-0.0653 -4.55074,-0.0817 -3.39679,-0.26114 -3.39679,-0.26114 -5.02206,-1.8933 -0.16246,-3.49281 -0.21129,-7.00199 -0.19509,-10.51115 -0.0162,-1.90963 -0.0162,-3.83559 -0.0162,-5.81051 0.21129,-4.8965 0.21129,-4.8965 1.83658,-8.16083 28.4259,0 56.85179,0 86.13908,0 0,-27.46935 0,-54.93872 0,-83.24051 z"
     fill="#000000"
     id="path3"
     style="stroke-width:1.62871" />
  <path
     d="m 581.34295,330.30087 c 0.84057,0 1.68113,0 2.54172,0 2.77189,0 5.53375,0.0202 8.30562,0.0301 1.92131,0.01 3.84262,0.01 5.76391,0.01 5.05342,0.01 10.10685,0.0301 15.16027,0.0503 5.15349,0.0202 10.31698,0.0301 15.47047,0.0402 10.11685,0.0202 20.2337,0.0503 30.35056,0.10046 0.64042,2.09025 1.29087,4.19056 1.93131,6.29086 0.54034,1.74857 0.54034,1.74857 1.09073,3.53732 1.01068,3.32631 1.94131,6.64258 2.79189,10.01913 0.25017,0.98483 0.51035,1.97971 0.77051,2.99468 0.14006,0.75369 0.2802,1.50738 0.42031,2.28118 -1.54106,1.53754 -2.932,1.13557 -5.07344,1.14561 -0.87059,0.01 -1.75121,0.0202 -2.6518,0.0301 -0.97067,0 -1.94132,0 -2.94201,0 -1.52102,0.01 -1.52102,0.01 -3.07207,0.0202 -3.38229,0.0202 -6.75457,0.0402 -10.13686,0.0503 -1.15077,0 -2.30156,0 -3.48235,0.01 -6.09414,0.0202 -12.18826,0.0301 -18.28238,0.0402 -6.29428,0.01 -12.59853,0.0503 -18.8928,0.0903 -4.83329,0.0202 -9.67655,0.0301 -14.50982,0.0402 -2.32158,0 -4.64315,0.01 -6.96473,0.0301 -3.2522,0.0202 -6.5044,0.0202 -9.7566,0.0202 -1.44098,0.0201 -1.44098,0.0201 -2.90197,0.0402 -5.66383,-0.0503 -8.92603,-0.72356 -13.40908,-4.53222 -3.67248,-3.78857 -4.83327,-7.04453 -6.00407,-12.05913 2.11145,-2.12039 3.18217,-2.56254 5.95405,-3.45694 0.79052,-0.26127 1.57106,-0.51252 2.3816,-0.7738 0.82056,-0.26128 1.64112,-0.52256 2.48168,-0.79388 1.61109,-0.52258 3.22218,-1.04512 4.83327,-1.57774 0.72049,-0.22109 1.43096,-0.45222 2.17147,-0.69339 2.2115,-0.70345 2.2115,-0.70345 4.30292,-1.78877 3.80257,-1.27625 7.395,-1.23607 11.35769,-1.19587 z"
     fill="#000000"
     id="path4"
     style="stroke-width:1.0028" />
  <path
     d="m 587.3141,131.31186 c 0.88059,0 1.76119,-0.01 2.6718,-0.01 1.44098,0.01 1.44098,0.01 2.90197,0.0202 1.02069,0 2.03138,0 3.08209,0 3.35227,0 6.71454,0.0202 10.06682,0.0402 2.33157,0 4.65316,0 6.98473,0 6.12415,0.01 12.24828,0.0301 18.38245,0.0503 6.24422,0.0202 12.49846,0.0301 18.7527,0.0402 12.2683,0.0202 24.5266,0.0603 36.79491,0.10046 0.50033,0.99489 0.50033,0.99489 1.00068,2.00986 -0.8806,2.33142 -0.8806,2.33142 -2.27154,5.21556 -0.50034,1.03509 -0.99068,2.07015 -1.50101,3.12533 -0.53037,1.08532 -1.06073,2.16059 -1.6011,3.27607 -0.53035,1.08532 -1.05071,2.17064 -1.58106,3.28609 -3.89263,8.04946 -3.89263,8.04946 -5.05342,9.21518 -2.56174,0.13066 -5.10347,0.19094 -7.6652,0.21104 -1.21081,0.01 -1.21081,0.01 -2.44165,0.0301 -2.67182,0.0301 -5.35363,0.0503 -8.03545,0.0704 -1.37092,0.01 -1.37092,0.01 -2.78188,0.0202 -4.86328,0.0301 -9.73659,0.0603 -14.60989,0.0804 -4.01272,0.01 -8.01542,0.0503 -12.02815,0.10046 -4.85328,0.0603 -9.70657,0.0903 -14.55985,0.10059 -1.84126,0.01 -3.68249,0.0301 -5.52375,0.0603 -12.45843,0.19094 -22.07495,-1.50739 -33.42262,-6.70286 -1.31089,-0.57279 -2.6318,-1.13556 -3.95267,-1.70836 -1.51103,-0.64316 -1.51103,-0.64316 -3.05208,-1.30641 0.90061,-5.63764 3.60245,-9.96886 8.00541,-13.37556 0.99068,-0.56277 1.98136,-1.12553 3.00204,-1.69835 0.95065,-0.54265 0.95065,-0.54265 1.91129,-1.09536 2.35161,-1.02503 3.97271,-1.16572 6.52443,-1.15566 z"
     fill="#000000"
     id="path5"
     style="stroke-width:1.0028" />
  <path
     d="m 338.62268,204.77974 c 1.19081,0 2.37161,0.01 3.59243,0.01 1.19081,0 2.38161,-0.01 3.60244,-0.01 2.90196,0.13066 2.90196,0.13066 3.90265,1.13557 0.0901,2.13044 0.11014,4.27093 0.10003,6.40137 0,1.38681 -0.01,2.7736 -0.01,4.1604 0,0.73361 -0.01,1.47725 -0.01,2.23094 -0.01,3.89912 0.01,7.79823 0.0299,11.69734 0.01,4.97438 0.0201,9.93872 -0.01,14.90306 -0.0201,4.00966 -0.01,8.01931 0.0299,12.02897 0,1.5275 0,3.05498 -0.0201,4.58247 -0.46031,8.16001 -0.46031,8.16001 2.51169,15.34524 2.11143,1.54759 2.11143,1.54759 5.38364,3.01476 0,0.66325 0,1.32651 0,2.00986 0.66046,0 1.3209,0 2.00137,0 3.88263,5.46681 4.35294,10.49144 4.00272,17.08376 -1.46101,6.00946 -4.02274,10.54167 -8.93607,14.3202 -5.82394,3.3464 -10.36702,4.6528 -17.08157,3.76848 -7.5451,-2.21083 -12.53849,-7.85854 -16.44113,-14.50109 -1.44097,-6.59232 -1.09072,-11.93853 2.23151,-17.86759 2.25153,-3.35647 4.83328,-6.02957 8.33565,-8.04946 2.17148,-1.70839 2.17148,-1.70839 2.39162,-4.77341 0,-1.22602 0.01,-2.44197 0.01,-3.70819 0.01,-0.67329 0.0201,-1.3466 0.0299,-2.04 0.0201,-2.23092 0.0201,-4.46187 0.0201,-6.69281 0.01,-1.54759 0.0201,-3.09516 0.0402,-4.64275 0.04,-4.06996 0.05,-8.14996 0.06,-12.2199 0.0201,-6.53203 0.0801,-13.05401 0.13009,-19.58603 0.0201,-2.28119 0.0201,-4.57242 0.0299,-6.8536 0.01,-1.39685 0.01,-2.78364 0.0201,-4.1805 0.01,-1.21596 0.01,-2.44196 0.01,-3.69813 0.18012,-3.77853 0.25016,-3.69812 4.04273,-3.86896 z"
     fill="#000000"
     id="path6"
     style="stroke-width:1.0028" />
  <path
     d="m 566.871,153.66196 c 3.72252,0.67328 7.23489,1.63801 10.81731,2.82384 0.98067,0.32157 1.95134,0.6331 2.96201,0.96473 3.89264,1.48728 7.54511,3.32631 11.23761,5.25575 -0.65044,8.71272 -1.32089,17.41538 -2.00134,26.1281 -0.13009,1.64808 -0.13009,1.64808 -0.2602,3.32631 -0.24015,3.05498 -0.49031,6.12 -0.74049,9.17498 -0.0701,0.90442 -0.14007,1.80886 -0.21014,2.74344 -1.61109,19.03332 -1.61109,19.03332 -7.29493,24.13835 -1.33091,1.21596 -1.33091,1.21596 -2.68183,2.45202 -4.21285,3.55742 -8.44572,7.07467 -12.82869,10.42107 -5.26356,-2.37161 -5.26356,-2.37161 -7.00474,-5.02463 -0.14006,-2.84393 -0.0901,-5.4065 0.12012,-8.23033 0.0601,-0.84416 0.11014,-1.69833 0.17012,-2.57263 0.5904,-8.78305 1.40094,-17.55606 2.21151,-26.31903 0.0701,-0.7135 0.13009,-1.42699 0.20012,-2.16058 0.19013,-2.05006 0.38026,-4.1001 0.58039,-6.15015 0.17013,-1.79882 0.17013,-1.79882 0.35025,-3.61774 0.32021,-2.79369 0.82054,-5.47684 1.37092,-8.23035 0.19015,-1.81891 0.36025,-3.64789 0.50034,-5.47684 0.0801,-1.01498 0.16012,-2.02997 0.25017,-3.08513 0.17012,-2.13045 0.33023,-4.27095 0.50035,-6.40137 0.0799,-1.01499 0.16009,-2.02997 0.25016,-3.07508 0.0701,-0.92453 0.14007,-1.84908 0.22015,-2.80375 0.28018,-2.27113 0.28018,-2.27113 1.28088,-4.28098 z"
     fill="#000000"
     id="path7"
     style="stroke-width:1.0028" />
  <path
     d="m 562.86829,247.12011 c 5.15348,1.36672 8.07546,4.75332 11.00745,9.04434 0,0.66326 0,1.32651 0,2.00985 0.66045,0 1.32088,0 2.00136,0 2.89195,2.23095 4.5831,4.68297 6.00406,8.03943 0.32021,6.18029 -0.20014,12.31035 -1.49101,18.37005 -0.62042,3.33636 -0.93063,6.66265 -1.23083,10.04927 -0.0601,0.6934 -0.12011,1.38679 -0.19013,2.1003 -0.20014,2.20078 -0.39028,4.40158 -0.5904,6.60236 -0.20014,2.19074 -0.39026,4.39153 -0.59041,6.59232 -0.18012,1.99981 -0.36024,3.98957 -0.54037,5.98936 -0.97063,9.25538 -0.97063,9.25538 -2.94197,10.88336 -0.70048,0.25123 -1.40097,0.5125 -2.12146,0.77378 -0.80054,0.31154 -1.60108,0.61301 -2.43163,0.92455 -1.42096,0.51251 -1.42096,0.51251 -2.88195,1.02501 -1.77121,0.69341 -1.77121,0.69341 -3.57243,1.39686 -10.73726,4.12019 -10.73726,4.12019 -14.43979,2.62286 -0.11014,-6.32098 0.31023,-12.49125 0.94065,-18.78209 0.0801,-0.92453 0.17012,-1.84906 0.26019,-2.81379 0.68045,-7.00433 0.68045,-7.00433 1.28086,-9.72768 0.79053,-4.32118 1.01069,-8.67252 1.32088,-13.054 0.1501,-2.01991 0.31021,-4.0398 0.47033,-6.0597 0.24016,-3.17557 0.48032,-6.35114 0.70047,-9.5267 0.21014,-3.07509 0.4503,-6.15017 0.70048,-9.2152 0.06,-0.95467 0.12012,-1.89931 0.18012,-2.87407 0.39026,-4.55232 0.66045,-6.73301 3.61246,-10.3608 0.84055,-0.66326 1.68113,-1.31646 2.5417,-1.9998 0.66046,-0.66326 1.3209,-1.32651 2.00137,-2.00987 z"
     fill="#000000"
     id="path8"
     style="stroke-width:1.0028" />
  <path
     d="m 423.09078,204.77702 c 1.14076,0 1.14076,0 2.31154,0.01 0.80054,-0.01 1.59109,-0.01 2.42164,-0.01 2.6518,0 5.3036,0 7.95541,0 1.84123,0 3.67248,0 5.51372,0 3.85261,0 7.70521,0 11.55783,0.01 4.94335,0 9.8967,0 14.85006,-0.01 3.79257,0 7.58515,0 11.37769,0 1.82124,0 3.65248,0 5.47372,0 2.55173,0 5.09345,0 7.64518,0.01 0.76051,-0.01 1.52101,-0.01 2.31155,-0.01 5.20354,0.0202 5.20354,0.0202 6.31429,1.1456 0.10002,1.55765 0.13009,3.11527 0.14006,4.67292 0,0.94463 0,1.88925 0,2.86404 0,0.99486 -0.01,1.98974 -0.01,3.01477 0,0.98484 0.01,1.9797 0.01,3.00473 0,0.94464 0,1.88927 0,2.86404 -0.01,0.87429 -0.01,1.74858 -0.01,2.64297 -0.13009,2.03998 -0.13009,2.03998 -1.13077,3.04492 -2.5117,0.10046 -5.0034,0.14064 -7.51509,0.14064 -0.79054,0 -1.58107,0.01 -2.39162,0.01 -2.61177,0.01 -5.23355,0.01 -7.84531,0.01 -1.81123,0.01 -3.62245,0.01 -5.43368,0.01 -3.80258,0.01 -7.60516,0.01 -11.40774,0.01 -4.8833,0 -9.75659,0.01 -14.63991,0.0301 -3.74253,0.01 -7.48505,0.01 -11.2276,0.01 -1.80122,0.01 -3.60243,0.01 -5.40365,0.0202 -2.5117,0.01 -5.02342,0 -7.53511,0 -0.7505,0 -1.50101,0.01 -2.27153,0.0202 -5.1535,-0.0402 -5.1535,-0.0402 -7.38501,-2.27113 -0.24016,-2.06009 -0.24016,-2.06009 -0.23015,-4.56237 0,-0.89439 0.01,-1.78878 0.01,-2.71329 0.01,-0.93458 0.0201,-1.87922 0.0402,-2.84395 0,-0.93459 0,-1.8792 0,-2.84395 0.05,-8.25044 0.05,-8.25044 6.50439,-8.2806 z"
     fill="#000000"
     id="path9"
     style="stroke-width:1.0028" />
  <path
     d="m 423.16537,150.52214 c 0.77055,0 1.55107,0.01 2.34161,0.01 1.22082,0 1.22082,0 2.45166,0 2.69183,0 5.38365,0.01 8.07547,0.0202 1.86124,0 3.72251,0 5.58377,0 4.90333,0 9.81665,0.01 14.71997,0.0301 5.00339,0.01 10.00677,0.01 15.01016,0.0202 9.82666,0.01 19.65331,0.0201 29.47997,0.0402 0,6.96415 0,13.92828 0,21.10347 -10.81732,0.0301 -21.62465,0.0503 -32.44196,0.0603 -5.0134,0 -10.03681,0.01 -15.05021,0.0202 -4.84327,0.01 -9.68656,0.0202 -14.52983,0.0202 -1.85126,0 -3.70251,0 -5.54375,0.01 -2.59176,0.01 -5.17351,0.01 -7.75525,0.01 -0.77053,0 -1.54105,0.01 -2.34161,0.01 -5.28356,-0.01 -5.28356,-0.01 -6.39432,-1.13555 -0.10002,-1.40692 -0.13009,-2.82385 -0.13009,-4.23074 -0.01,-0.85419 -0.01,-1.70839 -0.01,-2.59271 0.01,-0.89439 0.01,-1.79883 0.01,-2.72336 0,-0.89439 0,-1.78877 -0.01,-2.7133 0,-0.85419 0,-1.70838 0.01,-2.59271 0,-0.78384 0,-1.57773 0,-2.38169 0.28018,-4.0197 3.19216,-2.97457 6.5244,-2.98462 z"
     fill="#000000"
     id="path10"
     style="stroke-width:1.0028" />
  <path
     d="m 439.03247,260.05413 c 0.65044,0 1.30088,0 1.98135,-0.01 2.16146,0 4.33293,0 6.4944,0.01 1.501,0 3.00202,-0.01 4.50303,-0.01 3.14214,0 6.28427,0 9.4364,0.01 4.04274,0 8.08548,0 12.1182,0 3.10211,-0.01 6.1942,-0.01 9.29629,0 1.49102,0 2.98203,0 4.47304,-0.01 2.08141,0 4.16282,0 6.23422,0.01 1.7812,0 1.7812,0 3.59244,0 2.66179,0.13066 2.66179,0.13066 3.66248,1.13556 0.10002,1.55765 0.13009,3.11529 0.13009,4.68297 0.01,0.94464 0.01,1.88926 0.01,2.85399 -0.01,0.99488 -0.01,1.98974 -0.01,3.01479 0,0.99486 0,1.98974 0.01,3.01476 0,0.94464 0,1.87922 -0.01,2.85399 0,0.87431 0,1.74857 0,2.64297 -0.13009,2.04 -0.13009,2.04 -1.13078,3.04492 -2.0814,0.1006 -4.16282,0.13067 -6.25423,0.13067 -0.65043,0 -1.30087,0 -1.97134,0 -2.17147,0.01 -4.33293,0.01 -6.5044,0 -1.50101,0 -2.99204,0 -4.49305,0.01 -3.15213,0 -6.29426,-0.01 -9.43638,-0.01 -4.04274,-0.01 -8.08548,0 -12.1282,0 -3.10211,0.01 -6.1942,0.01 -9.2963,0 -1.49101,0 -2.98202,0 -4.46303,0.01 -2.08142,0 -4.16283,-0.01 -6.24423,-0.01 -1.7812,0 -1.7812,0 -3.59243,0 -2.6618,-0.13067 -2.6618,-0.13067 -3.66249,-1.13558 -0.10003,-1.55763 -0.13009,-3.11527 -0.13009,-4.68296 0,-0.94463 0,-1.88927 0,-2.854 0,-0.99486 0,-1.98974 0.01,-3.01476 -0.01,-0.99489 -0.01,-1.98976 -0.01,-3.01479 0,-0.94462 0,-1.88926 0,-2.85399 0,-0.87429 0,-1.74857 0,-2.653 0.28018,-4.40158 3.73253,-3.16552 7.38499,-3.16552 z"
     fill="#000000"
     id="path11"
     style="stroke-width:1.0028" />
  <path
     d="m 112.21869,508.04686 c 64.83527,0 129.67056,0 196.47046,0 0,7.94004 0,15.88007 0,24.06071 -64.83526,0 -129.67048,0 -196.47046,0 0,-7.94004 0,-15.88006 0,-24.06071 z"
     fill="#000000"
     id="path12"
     style="stroke-width:1.80932" />
  <path
     d="m 529.84591,131.55358 c 3.9827,-0.0301 7.9654,-0.0503 11.94811,-0.0603 1.13077,-0.01 2.27153,-0.0202 3.44232,-0.0301 1.08073,0 2.16146,0 3.27221,-0.01 1.50102,-0.01 1.50102,-0.01 3.03206,-0.01 2.32158,0.11057 2.32158,0.11057 3.32225,1.11546 -0.04,2.90425 -0.1501,5.76827 -0.31021,8.66247 -0.04,0.80394 -0.0701,1.60788 -0.11015,2.43192 -0.66046,12.09932 -0.66046,12.09932 -3.58243,15.03369 -1.68114,0.1006 -3.37228,0.13066 -5.06342,0.13066 -1.0207,0 -2.0514,0.01 -3.11213,0.01 -1.62108,-0.01 -1.62108,-0.01 -3.2722,-0.0202 -1.07073,0.01 -2.15146,0.01 -3.26221,0.0202 -1.54105,-0.01 -1.54105,-0.01 -3.11211,-0.01 -0.95065,0 -1.89128,0 -2.87194,0 -2.32157,-0.13066 -2.32157,-0.13066 -4.32293,-1.13557 0.28019,-3.41675 0.58039,-6.82345 0.8806,-10.24021 0.0701,-0.96473 0.1501,-1.92945 0.23015,-2.92433 0.0901,-0.93457 0.17013,-1.86915 0.26018,-2.83388 0.0701,-0.8542 0.14007,-1.71844 0.22015,-2.59273 0.4503,-2.73339 1.31089,-5.01458 2.41163,-7.53694 z"
     fill="#000000"
     id="path13"
     style="stroke-width:1.0028" />
  <path
     d="m 457.49274,617.00422 c 5.79388,0 11.58777,0 17.55723,0 0.54076,2.70119 0.78656,4.0271 0.4916,6.57313 -0.0632,0.55011 -0.12642,1.10727 -0.18962,1.67148 -0.0702,0.56423 -0.14045,1.1355 -0.21771,1.71382 -0.0632,0.57832 -0.12642,1.14959 -0.18962,1.73497 -0.27389,2.34149 -0.5548,4.40089 -1.29923,6.64364 -5.79389,0 -11.58777,0 -17.55723,0 -0.59695,-2.39791 -0.75847,-3.45582 -0.4916,-5.77616 0.0632,-0.55012 0.12641,-1.10023 0.18962,-1.66444 0.0702,-0.57127 0.14046,-1.14254 0.2177,-1.72792 0.0632,-0.57126 0.12642,-1.13548 0.18962,-1.72791 0.30199,-2.56014 0.67421,-4.92985 1.29924,-7.44061 z"
     fill="#000000"
     id="path14"
     style="stroke-width:0.703779" />
</svg>
