<?xml version="1.0" encoding="UTF-8" standalone="no"?>
<!-- Generator: visioncortex VTracer 0.6.3 -->

<svg
   version="1.1"
   width="1280"
   height="1280"
   id="svg14"
   sodipodi:docname="icon.svg"
   inkscape:version="1.3.2 (091e20e, 2023-11-25)"
   xmlns:inkscape="http://www.inkscape.org/namespaces/inkscape"
   xmlns:sodipodi="http://sodipodi.sourceforge.net/DTD/sodipodi-0.dtd"
   xmlns="http://www.w3.org/2000/svg"
   xmlns:svg="http://www.w3.org/2000/svg">
  <defs
     id="defs14" />
  <sodipodi:namedview
     id="namedview14"
     pagecolor="#ffffff"
     bordercolor="#000000"
     borderopacity="0.25"
     inkscape:showpageshadow="2"
     inkscape:pageopacity="0.0"
     inkscape:pagecheckerboard="0"
     inkscape:deskcolor="#d1d1d1"
     inkscape:zoom="0.56640625"
     inkscape:cx="645.29655"
     inkscape:cy="640"
     inkscape:window-width="1392"
     inkscape:window-height="1212"
     inkscape:window-x="0"
     inkscape:window-y="25"
     inkscape:window-maximized="0"
     inkscape:current-layer="svg14" />
  <path
     d="m 219.47757,15.612669 c 4.66457,0.0098 9.32913,0 13.99369,-0.0098 8.17029,-0.0098 16.33083,-0.0098 24.49138,0 12.14344,0.0098 24.28689,0 36.42059,-0.0098 21.6868,-0.0098 43.37361,-0.0098 65.06041,0 18.97961,0.0098 37.95921,0.0098 56.93882,0 1.25621,0 2.51243,0 3.81734,0 5.11252,0 10.22503,0 15.33755,0 14.29556,0 28.59113,0 42.87696,0 0.65245,-0.0098 1.30491,-0.0098 1.97684,-0.0098 20.72273,0 41.4552,0.0098 62.18766,0.0098 1.00303,0 1.00303,0 2.03527,0 10.9067,0.0098 21.82314,0.0098 32.72984,0.0098 43.27623,0.01956 86.54271,0.01956 129.81894,0 10.9067,0 21.8134,0 32.7201,-0.0098 0.67193,0 1.34386,0 2.03527,0 20.70325,0 41.41624,-0.0098 62.11949,0 0.97382,0 0.97382,0 1.96711,0 14.9188,0 29.83761,0 44.75642,0 5.10277,0 10.20555,0 15.31807,0 1.25621,0 2.51243,0 3.8076,0 18.96013,0.0098 37.93,0 56.89013,0 21.56994,-0.0098 43.13015,-0.0098 64.7001,0.0098 12.06555,0.0098 24.13105,0.0098 36.19665,-0.0098 8.0631,0 16.1263,0 24.1895,0.0098 4.5964,0.0098 9.183,0.0098 13.7794,0 34.8722,-0.06846 34.8722,-0.06846 49.83,3.32502 1.1004,0.234708 2.2008,0.469415 3.3304,0.713902 50.872,11.510439 91.1586,44.252115 119.37,87.301359 0.9835,1.48648 0.9835,1.48648 1.9865,3.01208 8.1995,13.30008 14.5683,28.78099 18.4635,43.92939 0.2532,0.88993 0.5064,1.78964 0.7693,2.70891 0.8083,2.99252 1.49,5.99482 2.1522,9.02646 0.3797,1.66251 0.3797,1.66251 0.7595,3.37392 3.2623,16.22414 2.5806,32.8688 2.5417,49.33744 -0.01,4.69414 0,9.37851 0.01,14.06288 0.01,8.1952 0.01,16.3904 0,24.59537 -0.01,12.18523 -0.01,24.38023 0,36.57523 0.02,21.77889 0.02,43.55778 0.01,65.33666 -0.01,19.05042 -0.01,38.11061 -0.01,57.1708 0,1.26156 0,2.53289 0,3.83356 0,5.13422 0.01,10.26844 0.01,15.40267 0,14.35626 0,28.71253 0,43.0688 0,0.65522 0,1.30067 0,1.97545 0,20.8205 0,41.63122 -0.01,62.45172 0,0.67478 0,1.34956 0,2.04391 0,10.96279 0,21.9158 -0.01,32.87859 -0.01,43.45019 -0.01,86.91017 0,130.36037 0.01,10.95301 0.01,21.90602 0.01,32.85903 0,1.01707 0,1.01707 0,2.04391 0.01,20.80094 0.01,41.5921 0.01,62.38326 0,0.97795 0,0.97795 0,1.98523 0,14.98216 0,29.96431 0,44.94646 -0.01,5.12445 -0.01,10.24889 -0.01,15.37333 0,1.89722 0,1.89722 0,3.82378 0,19.05041 0,38.09105 0.01,57.13168 0.01,21.66153 0.01,43.32307 -0.01,64.97482 -0.01,12.11674 -0.01,24.23354 0,36.35034 0.01,8.0974 0.01,16.2046 -0.01,24.302 0,4.6061 -0.01,9.222 0,13.8281 0.078,35.0301 0.078,35.0301 -3.3012,50.0514 -0.2338,1.0953 -0.4772,2.2004 -0.7207,3.3446 -11.452,51.0782 -44.0552,91.5358 -86.9225,119.8768 -1.4802,0.9779 -1.4802,0.9779 -2.9993,1.9852 -13.2439,8.2343 -28.6593,14.6301 -43.7437,18.5516 -0.8861,0.2543 -1.782,0.5086 -2.7072,0.7628 -2.9701,0.8215 -5.9597,1.4963 -8.9785,2.1711 -1.6652,0.3716 -1.6652,0.3716 -3.3597,0.7628 -16.1555,3.2663 -32.7298,2.5818 -49.1385,2.5427 -4.6646,-0.01 -9.3292,0 -13.9937,0.01 -8.1606,0.01 -16.3309,0.01 -24.4914,0 -12.1435,-0.01 -24.2772,0 -36.4206,0.01 -21.6868,0.01 -43.3736,0.01 -65.06041,0 -18.9796,0 -37.95921,-0.01 -56.92907,0 -1.26596,0 -2.52218,0 -3.81735,0 -5.11251,0 -10.23477,0 -15.34728,0 -14.28583,0 -28.5814,0 -42.87697,0.01 -0.65245,0 -1.3049,0 -1.97684,0 -20.72272,0 -41.45519,-0.01 -62.17792,-0.01 -0.67193,0 -1.34386,0 -2.03527,0 -10.91644,-0.01 -21.82314,-0.01 -32.73957,-0.01 -43.26649,-0.019 -86.54272,-0.019 -129.81895,0 -10.9067,0 -21.81339,0 -32.71036,0.01 -0.67193,0 -1.34386,0 -2.03526,0 -20.713,0 -41.41625,0.01 -62.12924,0.01 -0.97381,0 -0.97381,0 -1.9671,0 -14.91881,-0.01 -29.83762,-0.01 -44.75642,-0.01 -5.10278,0 -10.20556,0 -15.30833,0 -1.25622,0 -2.51244,0 -3.80761,0 -18.96987,-0.01 -37.93,0 -56.89986,0 -21.56021,0.01 -43.13016,0.01 -64.7001,-0.01 -12.06554,0 -24.13108,0 -36.19661,0.01 -8.06317,0 -16.12634,0 -24.18951,-0.01 -4.59639,-0.01 -9.18305,-0.01 -13.7697,0 -34.88197,0.069 -34.88197,0.069 -49.83973,-3.3152 -1.1004,-0.2445 -2.20081,-0.4792 -3.33043,-0.7237 -50.87197,-11.5007 -91.148852,-44.2521 -119.369937,-87.2916 -0.652455,-0.9975 -1.304909,-1.995 -1.97684,-3.0218 -8.209239,-13.3001 -14.568234,-28.781 -18.473222,-43.9196 -0.379787,-1.3496 -0.379787,-1.3496 -0.769312,-2.7187 -0.808264,-2.9926 -1.489933,-5.9949 -2.152126,-9.0167 -0.253191,-1.1149 -0.506382,-2.2297 -0.759573,-3.3837 -3.262272,-16.2242 -2.570865,-32.8688 -2.531913,-49.3374 0,-4.6844 -0.0097,-9.3786 -0.0097,-14.0629 -0.0097,-8.1952 -0.0097,-16.3904 -0.0097,-24.5954 0.01948,-12.1852 0.0097,-24.3803 0,-36.57526 -0.01948,-21.77888 -0.0097,-43.55777 -0.0097,-65.32688 0.0097,-19.06019 0.0097,-38.12038 0.0097,-57.18058 0,-1.26155 0,-2.53288 0,-3.83355 0,-5.13422 0,-10.26845 0,-15.40267 -0.0097,-14.35627 -0.0097,-28.71253 -0.0097,-43.0688 0,-0.65522 0,-1.30067 0,-1.97545 0,-20.8205 0,-41.63122 0.0097,-62.45172 0,-1.00728 0,-1.00728 0,-2.04391 0,-10.95301 0.0097,-21.9158 0.0097,-32.86881 0.01948,-43.45998 0.01948,-86.91995 0,-130.37015 0,-10.95301 -0.0097,-21.90602 -0.0097,-32.85903 0,-0.67479 0,-1.34957 0,-2.04391 -0.0097,-20.79116 -0.0097,-41.5921 -0.0097,-62.38326 0,-0.65523 0,-1.31045 0,-1.98524 0,-14.98215 0,-29.9643 0.0097,-44.93667 0,-5.13423 0,-10.25867 0,-15.38312 0,-1.26155 0,-2.5231 0,-3.82377 0,-19.04063 0,-38.09105 -0.0097,-57.13168 -0.0097,-21.66153 0,-43.32307 0.0097,-64.97482 0.0097,-12.11677 0.0097,-24.23354 0,-36.3503 -0.0097,-8.09741 0,-16.20459 0.0097,-24.30199 0.0097,-4.60614 0.0097,-9.22205 0,-13.82818 -0.0779,-35.03007 -0.0779,-35.03007 3.301224,-50.04156 0.243454,-1.10508 0.477169,-2.21016 0.720622,-3.34458 11.451996,-51.08827 44.064976,-91.545951 86.922467,-119.877085 0.99328,-0.665004 1.98657,-1.320228 2.99934,-1.995012 13.25359,-8.234316 28.66904,-14.630092 43.74365,-18.541881 0.89591,-0.254266 1.78208,-0.518312 2.7072,-0.772579 2.97987,-0.811696 5.96947,-1.496259 8.97855,-2.161263 1.11015,-0.254266 2.2203,-0.508533 3.3694,-0.772578 16.15554,-3.266344 32.72983,-2.581781 49.12883,-2.542663 z m -92.42454,71.64442 c -0.58428,0.37162 -1.17831,0.74324 -1.78207,1.134419 -1.39256,0.909491 -2.73642,1.897217 -4.0608,2.904503 0,0.645445 0,1.290891 0,1.955895 -0.56481,0.264046 -1.12962,0.528091 -1.70417,0.801917 -6.09607,3.197887 -10.63404,7.510637 -14.85064,12.889347 -1.61653,1.62339 -3.2428,3.25656 -4.86907,4.88973 -3.505721,3.42282 -3.505721,3.42282 -4.869059,7.82358 -0.642716,0 -1.285432,0 -1.947625,0 -2.083959,2.53289 -3.73944,5.39827 -5.472826,8.18542 -0.525859,0.84104 -1.051717,1.67229 -1.587314,2.53289 -15.376499,25.1528 -21.521256,52.99496 -21.423875,82.30404 -0.0097,1.5256 -0.0097,3.06098 -0.0097,4.58657 -0.0097,4.17584 -0.0097,8.35167 0,12.52751 0,4.55723 0,9.11447 -0.0097,13.66192 -0.0097,7.97027 -0.0097,15.94055 -0.0097,23.9206 0.0097,11.85272 0,23.70544 -0.0097,35.55816 -0.0097,22.40477 -0.0097,44.80955 -0.0097,67.21432 0,17.29989 0,34.60955 0,51.90944 -0.0097,2.48399 -0.0097,4.97775 -0.0097,7.46174 0,3.74554 0,7.49108 0,11.24639 -0.0097,34.83449 -0.0097,69.67875 -0.0097,104.51323 0,0.65523 0,1.31045 0,1.98524 0,7.32482 0,14.63987 0,21.95491 0.0097,0.66501 0.0097,1.33001 0.0097,2.0048 0,4.00958 0,4.00958 0,8.01916 0,42.25711 -0.0097,84.50443 -0.01948,126.76153 -0.0097,10.64985 -0.0097,21.2997 -0.01948,31.93976 0,0.65523 0,1.31045 0,1.99502 -0.0097,35.42125 -0.0097,70.85228 -0.0097,106.27353 0,4.98753 0,9.97506 0,14.96259 0,1.22244 0,2.45465 0,3.7162 0,18.51255 -0.0097,37.03487 -0.01948,55.54741 -0.0097,21.06499 -0.0097,42.12997 0,63.18518 0.0097,11.78426 0.0097,23.56856 -0.0097,35.34306 0,7.8822 0,15.7547 0.0097,23.6369 0.0097,4.479 0.0097,8.9678 0,13.4468 -0.08764,37.1033 4.41137,70.2069 24.598503,102.1857 0.370049,0.5868 0.740097,1.1833 1.119884,1.7897 0.905646,1.3984 1.898934,2.7382 2.892223,4.078 0.642716,0 1.285433,0 1.947625,0 0.262929,0.5574 0.535597,1.1247 0.808264,1.7114 3.18437,6.122 7.47888,10.6792 12.82511,14.9137 1.62627,1.6234 3.25253,3.2566 4.86906,4.8898 3.41808,3.5108 3.41808,3.5108 7.7905,4.8897 0,0.6454 0,1.2909 0,1.9559 2.53191,2.083 5.38518,3.7553 8.16055,5.4961 0.82774,0.528 1.66522,1.0464 2.52217,1.594 25.03672,15.4418 52.76116,21.6126 81.95606,21.5148 1.51915,0 3.04803,0.01 4.56718,0.01 4.15818,0.01 8.31636,0 12.47454,0 4.52822,-0.01 9.06619,0 13.60416,0.01 7.93657,0.01 15.87314,0.01 23.80971,0 11.80261,0 23.60522,0 35.41756,0.01 22.31004,0.02 44.62009,0.02 66.93013,0.02 17.22674,0 34.45349,0 51.68997,0 2.47348,0 4.94698,0 7.43019,0 3.7297,0 7.4594,0.01 11.1891,0.01 34.69694,0 69.38414,0.01 104.08109,0.01 0.9738,-0.01 0.9738,-0.01 1.97684,-0.01 7.28412,0 14.57797,0 21.86209,0 0.66219,0 1.31465,0 1.99631,0 3.99264,0 3.99264,0 7.97553,0 42.07844,0 84.15687,0 126.23531,0.02 10.60482,0.01 21.1999,0.01 31.80471,0.02 0.65246,0 1.30491,0 1.97684,0 35.28123,0.01 70.55272,0.01 105.83394,0.01 4.96645,0 9.92315,0 14.8896,0 1.83076,0 1.83076,0 3.70048,0 18.44401,0 36.87828,0 55.32228,0.01 20.96619,0.02 41.9421,0.02 62.91802,0 11.73444,0 23.45913,0 35.19363,0.01 7.8392,0.01 15.6881,0.01 23.5273,0 4.4698,-0.01 8.9299,-0.01 13.3997,0 36.9367,0.088 69.91,-4.4301 101.7439,-24.703 0.594,-0.3716 1.1783,-0.7432 1.7918,-1.1246 1.3828,-0.9193 2.7267,-1.907 4.0511,-2.9045 0,-0.6455 0,-1.2909 0,-1.9559 0.5648,-0.2738 1.1296,-0.5379 1.7139,-0.8117 6.0961,-3.1979 10.6243,-7.5106 14.8409,-12.8796 1.6263,-1.6331 3.2525,-3.2663 4.8691,-4.8897 3.5057,-3.4326 3.5057,-3.4326 4.869,-7.8236 0.6427,0 1.2854,0 1.9476,0 2.084,-2.5426 3.7395,-5.408 5.4826,-8.1952 0.5161,-0.8312 1.042,-1.6723 1.5776,-2.5329 15.3278,-25.055 21.5212,-52.9852 21.4336,-82.1867 0,-1.5256 0,-3.0512 0.01,-4.5865 0,-4.1759 0,-8.3517 -0.01,-12.5275 0,-4.5573 0.01,-9.1047 0.01,-13.662 0.01,-7.9702 0.01,-15.9405 0.01,-23.9206 0,-11.8527 0,-23.7054 0.01,-35.5679 0.01,-22.40477 0.019,-44.80954 0.01,-67.22409 0,-17.29989 0,-34.60956 0.01,-51.90945 0,-2.49376 0,-4.97775 0,-7.46174 0,-3.75531 0,-7.50085 0,-11.24639 0.01,-34.84426 0.02,-69.68853 0.01,-104.53279 0,-0.65522 0,-1.31045 0,-1.98523 0,-7.32483 0,-14.63987 0,-21.9647 0,-0.65522 0,-1.32023 0,-1.99501 0,-4.00959 0,-4.00959 0,-8.01917 -0.01,-42.26688 0,-84.52399 0.02,-126.79087 0,-10.64007 0.01,-21.28991 0.01,-31.93976 0,-0.65522 0,-1.31045 0,-1.98523 0.02,-35.43103 0.02,-70.86206 0.02,-106.29309 -0.01,-4.98754 -0.01,-9.97507 -0.01,-14.9626 0,-1.22243 0,-2.45465 0,-3.7162 0,-18.52232 0.01,-37.03486 0.019,-55.55718 0.01,-21.06499 0.01,-42.12998 0,-63.19496 -0.01,-11.78427 0,-23.56853 0.01,-35.3528 0.01,-7.88225 0.01,-15.75473 -0.01,-23.63698 0,-4.479 0,-8.96778 0.01,-13.44678 0.088,-37.10332 -4.4211,-70.21662 -24.5985,-102.18571 -0.3701,-0.59655 -0.7499,-1.1931 -1.1296,-1.79943 -0.9057,-1.39846 -1.8892,-2.73825 -2.8923,-4.06826 -0.6427,0 -1.2854,0 -1.9476,0 -0.2629,-0.56721 -0.5258,-1.13442 -0.8083,-1.72118 -3.1746,-6.12195 -7.4691,-10.67919 -12.8251,-14.90392 -1.6165,-1.63317 -3.2428,-3.266345 -4.869,-4.889738 -3.4084,-3.52061 -3.4084,-3.52061 -7.7905,-4.889736 0,-0.645445 0,-1.290891 0,-1.955895 -2.5222,-2.092807 -5.3852,-3.755318 -8.1508,-5.505843 -0.8375,-0.528092 -1.6653,-1.046404 -2.5222,-1.594054 -24.9588,-15.383112 -52.7612,-21.612636 -81.8392,-21.514841 -1.5192,0 -3.048,0 -4.5672,-0.0098 -4.1582,-0.0098 -8.3163,0 -12.4745,0 -4.538,0.0098 -9.076,0 -13.6042,-0.0098 -7.9366,-0.0098 -15.8829,-0.0098 -23.8195,0 -11.8026,0 -23.61494,0 -35.41755,-0.0098 -22.31004,-0.01956 -44.62983,-0.01956 -66.93987,-0.01956 -17.23648,0 -34.46322,0 -51.6997,0 -2.47349,0 -4.94697,0 -7.43019,0 -3.7297,0 -7.45941,0 -11.19885,-0.0098 -34.6872,0 -69.38413,-0.0098 -104.08107,0 -0.65246,0 -1.30491,0 -1.98658,0 -7.28412,0 -14.57797,0 -21.86209,0 -0.98355,0 -0.98355,0 -1.99632,0 -3.99263,0 -3.99263,0 -7.98526,0 -42.07843,0.0098 -84.15687,0 -126.24505,-0.01956 -10.60481,-0.0098 -21.20963,-0.0098 -31.81445,-0.0098 -0.97381,-0.0098 -0.97381,-0.0098 -1.97684,-0.0098 -35.28122,-0.0098 -70.56245,-0.0098 -105.84368,-0.0098 -4.9567,0 -9.92315,0 -14.88959,0 -1.83077,0 -1.83077,0 -3.70049,0 -18.444,0 -36.88801,0 -55.32228,-0.0098 -20.97592,-0.0098 -41.95184,-0.01956 -62.9375,0 -11.7247,0 -23.45915,0 -35.19359,-0.0098 -7.84892,-0.0098 -15.69785,-0.0098 -23.53704,0 -4.4698,0.0098 -8.92986,0.0098 -13.39966,0 -36.94645,-0.08802 -69.91,4.430101 -101.75367,24.702949 z"
     fill="#000000"
     id="path1"
     style="stroke-width:0.975878" />
  <path
     d="m 448.41277,230.16003 c 12.29926,-0.0196 24.59851,-0.0391 36.89776,-0.0489 5.70654,-0.01 11.42282,-0.01 17.12936,-0.0293 5.51178,-0.01 11.01382,-0.01 16.51586,-0.01 2.11317,-0.01 4.21661,-0.01 6.32004,-0.0196 2.94092,0 5.87209,0 8.81301,0 0.88616,-0.01 1.7626,-0.01 2.66824,-0.01 6.00842,0.01 6.00842,0.01 7.08936,1.0953 0.0974,1.50604 0.12659,3.02186 0.12659,4.53768 0.01,0.98772 0.01,1.96567 0.01,2.97296 0,1.08552 0,2.18082 0,3.29568 0.01,1.13442 0.01,2.26884 0.01,3.44237 0.01,2.48399 0.0195,4.9582 0.0195,7.44218 0.01,3.92157 0.0195,7.83336 0.039,11.75493 0.01,1.33979 0.01,2.68935 0.0195,4.02914 0,1.00729 0,1.00729 0.01,2.03413 0.0389,9.13403 0.0682,18.25828 0.0876,27.39231 0,6.15129 0.0292,12.30257 0.0682,18.46364 0.0195,3.25657 0.0292,6.51313 0.0195,9.7697 0,3.63796 0.0195,7.26614 0.0487,10.90411 -0.01,1.62339 -0.01,1.62339 -0.0195,3.26634 0.0292,5.83835 0.0292,5.83835 2.4248,11.04103 0.66219,0.62588 1.32438,1.25177 2.00605,1.89722 7.56652,14.42472 10.26398,30.79556 6.81669,46.94147 -2.60008,8.34189 -6.87512,16.21436 -11.68575,23.47073 -0.64272,0 -1.28544,0 -1.94763,0 -0.24345,0.57699 -0.4869,1.1442 -0.7401,1.74075 -1.36333,2.45465 -2.84353,3.84333 -4.98592,5.65253 -0.65245,0.56721 -1.31464,1.13442 -1.99631,1.72119 -0.66219,0.53787 -1.33412,1.08552 -2.01579,1.64295 -0.6622,0.55743 -1.33413,1.10508 -2.01579,1.67229 -1.87946,1.26155 -1.87946,1.26155 -4.8009,1.26155 0,0.64545 0,1.29089 0,1.9559 -16.08738,7.27593 -31.89236,9.45675 -49.03146,4.30297 -8.49164,-3.27613 -16.30162,-7.9116 -23.03066,-14.08244 0,-0.64545 0,-1.29089 0,-1.9559 -0.64272,0 -1.28544,0 -1.94763,0 -11.5981,-12.84045 -17.10988,-28.41915 -16.79826,-45.6408 0.78878,-10.41514 3.6031,-21.38771 10.06922,-29.70026 3.64206,-5.42761 3.66153,-10.22933 3.58363,-16.6251 0.01,-1.1442 0.0195,-2.2884 0.0389,-3.47172 0.0195,-3.76509 0.01,-7.52041 -0.01,-11.28551 0.0195,-2.6209 0.0292,-5.23202 0.0487,-7.85292 0.0292,-6.17084 0.0292,-12.34169 0.0292,-18.51254 -0.01,-7.03144 0.0195,-14.06288 0.0487,-21.09432 0.0584,-14.45406 0.0779,-28.90812 0.0682,-43.36219 z m 21.42388,21.51484 c 0.0195,7.28571 0.0389,14.57142 0.0584,22.08206 0,4.63547 -0.01,9.26116 -0.0195,13.89663 -0.0292,7.3346 -0.0487,14.67899 -0.01,22.02337 0.0292,5.92636 0.0195,11.84294 -0.0195,17.7693 -0.01,2.24928 0,4.50834 0.0195,6.75762 0.17529,21.41704 0.17529,21.41704 -6.89459,28.82011 -3.29149,3.6184 -4.4698,8.20497 -5.79418,12.85022 -0.28241,0.96817 -0.28241,0.96817 -0.56481,1.9559 -2.11318,10.16087 0.37004,20.22395 5.4923,29.03525 6.28109,9.28072 14.89933,14.94304 25.71839,17.49548 11.88051,1.97546 22.25161,-0.73346 32.14554,-7.44218 4.723,-3.70642 8.88117,-8.0485 11.21832,-13.66192 0,-0.96817 0,-1.93634 0,-2.93384 0.64272,0 1.28544,0 1.94763,0 1.73339,-5.26136 2.32741,-9.93595 2.31767,-15.46135 -0.01,-0.77258 -0.01,-1.55494 -0.01,-2.34707 -0.11685,-6.12195 -1.24648,-11.04103 -4.25556,-16.41974 -0.52585,-1.00729 -1.04197,-2.01457 -1.57757,-3.0512 -0.44796,-0.60632 -0.88617,-1.21265 -1.34386,-1.83854 -0.64272,0 -1.28544,0 -1.94763,0 -0.2824,-0.58676 -0.56481,-1.17353 -0.85695,-1.77008 -1.13936,-2.32752 -1.13936,-2.32752 -3.0383,-5.07555 -0.25319,-1.96567 -0.25319,-1.96567 -0.27267,-4.25407 -0.01,-0.86059 -0.0195,-1.73096 -0.0292,-2.63068 0,-0.94861 -0.01,-1.89721 -0.01,-2.87516 -0.01,-0.99751 -0.0195,-2.00479 -0.0292,-3.03164 -0.0292,-3.32502 -0.0487,-6.64026 -0.0584,-9.9555 -0.0195,-2.29818 -0.0389,-4.59635 -0.0584,-6.89453 -0.0487,-6.05349 -0.0876,-12.10699 -0.1266,-18.16048 -0.0487,-7.25637 -0.10711,-14.52252 -0.16554,-21.77889 -0.0876,-11.03124 -0.15581,-22.07227 -0.22398,-33.10352 -17.03198,0 -34.06396,0 -51.61206,0 z"
     fill="#000000"
     id="path2"
     style="stroke-width:0.975878" />
  <path
     d="m 1002.5121,616.44922 c 5.1417,0 10.2834,0 15.581,0 0,16.45886 0,32.91771 0,49.87532 16.7106,0 33.4212,0 50.6382,0 0,5.16356 0,10.32712 0,15.64715 -16.7106,0 -33.4212,0 -50.6382,0 0.039,16.69356 0.039,16.69356 0.088,33.38712 0,2.08303 0.01,4.16606 0.01,6.24909 0,1.0953 0.01,2.18082 0.01,3.30546 0,1.55494 0,1.55494 0,3.12943 0.01,0.89971 0.01,1.8092 0.01,2.73825 -0.1168,2.04391 -0.1168,2.04391 -1.0906,3.02186 -4.8204,0 -9.6408,0 -14.6072,0 -0.3214,-16.78158 -0.6427,-33.56315 -0.9738,-50.85326 -16.62302,-0.2836 -16.62302,-0.2836 -33.246,-0.55743 -2.07422,-0.0391 -4.14844,-0.0685 -6.22266,-0.10757 -1.09067,-0.0196 -2.1716,-0.0391 -3.29149,-0.0489 -1.03224,-0.0196 -2.06448,-0.0391 -3.1162,-0.0587 -0.89591,-0.0196 -1.80155,-0.0391 -2.72667,-0.0489 -2.03527,-0.15647 -2.03527,-0.15647 -3.00908,-1.13441 -0.0974,-2.09281 -0.1266,-4.1954 -0.11686,-6.29798 -0.01,-1.1442 -0.01,-2.29818 -0.01,-3.4815 0.1266,-2.93384 0.1266,-2.93384 1.10041,-4.88973 17.03198,0 34.06396,0 51.61205,0 0,-16.45886 0,-32.91771 0,-49.87532 z"
     fill="#000000"
     id="path3"
     style="stroke-width:0.975878" />
  <path
     d="m 728.34701,418.68182 c 0.818,0 1.636,0 2.47348,0 2.69746,0 5.38519,0.0196 8.08265,0.0293 1.86972,0.01 3.73944,0.01 5.60916,0.01 4.91775,0.01 9.8355,0.0293 14.75325,0.0489 5.01514,0.0196 10.04001,0.0293 15.05515,0.0391 9.84524,0.0196 19.69048,0.0489 29.53573,0.0978 0.62324,2.03413 1.25622,4.07804 1.87946,6.12195 0.52585,1.70163 0.52585,1.70163 1.06145,3.44237 0.98355,3.23701 1.8892,6.46424 2.71694,9.75014 0.24345,0.95839 0.49664,1.92656 0.74983,2.91428 0.13634,0.73346 0.27267,1.46692 0.40901,2.21994 -1.49968,1.49626 -2.85328,1.10508 -4.93723,1.11486 -0.84722,0.01 -1.70418,0.0196 -2.58061,0.0293 -0.9446,0 -1.88919,0 -2.86301,0 -1.48019,0.01 -1.48019,0.01 -2.9896,0.0196 -3.29149,0.0196 -6.57323,0.0391 -9.86472,0.0489 -1.11988,0 -2.23977,0 -3.38887,0.01 -5.93052,0.0196 -11.86103,0.0293 -17.79155,0.0391 -6.12528,0.01 -12.2603,0.0489 -18.38558,0.088 -4.70352,0.0196 -9.41677,0.0293 -14.12028,0.0391 -2.25925,0 -4.51849,0.01 -6.77774,0.0293 -3.16489,0.0196 -6.32978,0.0196 -9.49467,0.0196 -1.40229,0.0195 -1.40229,0.0195 -2.82405,0.0391 -5.51178,-0.0489 -8.68641,-0.70412 -13.04909,-4.41054 -3.57389,-3.68686 -4.70352,-6.85541 -5.84288,-11.73537 2.05475,-2.06347 3.09673,-2.49376 5.79419,-3.36414 0.76931,-0.25426 1.52888,-0.49875 2.31767,-0.75302 0.79853,-0.25426 1.59705,-0.50853 2.41506,-0.77257 1.56783,-0.50854 3.13567,-1.01707 4.70351,-1.53538 0.70115,-0.21515 1.39255,-0.44008 2.11317,-0.67478 2.15213,-0.68457 2.15213,-0.68457 4.1874,-1.74075 3.70048,-1.24199 7.19647,-1.20288 11.05277,-1.16376 z"
     fill="#000000"
     id="path4"
     style="stroke-width:0.975878" />
  <path
     d="m 734.15785,225.03509 c 0.85695,0 1.71391,-0.01 2.60008,-0.01 1.40229,0.01 1.40229,0.01 2.82405,0.0196 0.99329,0 1.97684,0 2.99935,0 3.26227,0 6.53428,0.0196 9.79655,0.0391 2.26898,0 4.52823,0 6.79721,0 5.95973,0.01 11.91946,0.0293 17.88893,0.0489 6.07659,0.0196 12.16292,0.0293 18.24925,0.0391 11.93894,0.0196 23.86814,0.0587 35.80708,0.0978 0.48691,0.96817 0.48691,0.96817 0.97382,1.95589 -0.85696,2.26884 -0.85696,2.26884 -2.21056,5.07555 -0.4869,1.00729 -0.96407,2.01457 -1.46072,3.04142 -0.51612,1.05618 -1.03224,2.10258 -1.5581,3.18811 -0.51612,1.05618 -1.0225,2.11236 -1.53862,3.19788 -3.78813,7.83336 -3.78813,7.83336 -4.91775,8.96778 -2.49296,0.12713 -4.96645,0.18581 -7.45941,0.20537 -1.17831,0.01 -1.17831,0.01 -2.3761,0.0293 -2.60008,0.0293 -5.20989,0.0489 -7.81971,0.0685 -1.33413,0.01 -1.33413,0.01 -2.7072,0.0196 -4.73273,0.0293 -9.4752,0.0587 -14.21766,0.0782 -3.90499,0.01 -7.80024,0.0489 -11.70523,0.0978 -4.72299,0.0587 -9.44598,0.088 -14.16897,0.0978 -1.79182,0.01 -3.58363,0.0293 -5.37545,0.0587 -12.12396,0.18581 -21.4823,-1.46692 -32.52533,-6.5229 -1.2757,-0.55743 -2.56113,-1.10508 -3.84656,-1.66251 -1.47046,-0.62589 -1.47046,-0.62589 -2.97013,-1.27134 0.87643,-5.48628 3.50573,-9.70123 7.7905,-13.01647 0.96408,-0.54766 1.92815,-1.09531 2.92144,-1.65274 0.92512,-0.52809 0.92512,-0.52809 1.85998,-1.06596 2.28846,-0.9975 3.86604,-1.13442 6.34926,-1.12464 z"
     fill="#000000"
     id="path5"
     style="stroke-width:0.975878" />
  <path
     d="m 492.14304,296.53057 c 1.15884,0 2.30794,0.01 3.49599,0.01 1.15883,0 2.31767,-0.01 3.50572,-0.01 2.82406,0.12713 2.82406,0.12713 3.79787,1.10508 0.0876,2.07325 0.10712,4.15627 0.0974,6.22952 0,1.34957 -0.01,2.69914 -0.01,4.0487 0,0.71391 -0.01,1.43759 -0.01,2.17105 -0.01,3.79443 0.01,7.58887 0.0292,11.3833 0.01,4.84084 0.0195,9.6719 -0.01,14.50296 -0.0195,3.90201 -0.01,7.80402 0.0292,11.70603 0,1.48648 0,2.97296 -0.0195,4.45944 -0.44795,7.94093 -0.44795,7.94093 2.44427,14.93326 2.05474,1.50604 2.05474,1.50604 5.23911,2.93384 0,0.64544 0,1.29089 0,1.95589 0.64272,0 1.28543,0 1.94763,0 3.77839,5.32004 4.23608,10.20977 3.89525,16.62511 -1.42177,5.84812 -3.91473,10.25867 -8.69615,13.93575 -5.66759,3.25656 -10.0887,4.52789 -16.62298,3.6673 -7.34254,-2.15148 -12.20187,-7.64755 -15.99974,-14.11178 -1.40229,-6.41533 -1.06145,-11.61801 2.1716,-17.3879 2.19108,-3.26635 4.70352,-5.86769 8.11186,-7.83336 2.11318,-1.66251 2.11318,-1.66251 2.32741,-4.64525 0,-1.1931 0.01,-2.37641 0.01,-3.60863 0.01,-0.65522 0.0195,-1.31045 0.0292,-1.98523 0.0195,-2.17104 0.0195,-4.34209 0.0195,-6.51313 0.01,-1.50604 0.0195,-3.01208 0.039,-4.51812 0.0389,-3.96068 0.0487,-7.93115 0.0584,-11.89183 0.0195,-6.35666 0.0779,-12.70354 0.1266,-19.0602 0.0195,-2.21994 0.0195,-4.44966 0.0292,-6.6696 0.01,-1.35935 0.01,-2.70891 0.0195,-4.06826 0.01,-1.18332 0.01,-2.37641 0.01,-3.59885 0.17528,-3.67708 0.24345,-3.59884 3.9342,-3.76509 z"
     fill="#000000"
     id="path6"
     style="stroke-width:0.975878" />
  <path
     d="m 714.26358,246.78514 c 3.62258,0.65522 7.04066,1.59405 10.52691,2.74803 0.95434,0.31294 1.89894,0.61611 2.88249,0.93883 3.78813,1.44736 7.34254,3.23701 10.93591,5.11466 -0.63298,8.47881 -1.28543,16.94783 -1.94762,25.42663 -0.1266,1.60384 -0.1266,1.60384 -0.2532,3.23701 -0.23371,2.97296 -0.47716,5.9557 -0.72062,8.92866 -0.0682,0.88015 -0.13633,1.7603 -0.2045,2.66979 -1.56784,18.52233 -1.56784,18.52233 -7.09909,23.4903 -1.29517,1.18332 -1.29517,1.18332 -2.60982,2.38619 -4.09975,3.46193 -8.21897,6.88475 -12.48427,10.14131 -5.12226,-2.30795 -5.12226,-2.30795 -6.81669,-4.88973 -0.13633,-2.76759 -0.0876,-5.26136 0.11686,-8.00939 0.0584,-0.82148 0.10712,-1.65273 0.16554,-2.50355 0.57455,-8.54726 1.36334,-17.08474 2.15213,-25.61244 0.0682,-0.69434 0.1266,-1.38868 0.19476,-2.10258 0.18503,-1.99502 0.37005,-3.99003 0.56481,-5.98504 0.16555,-1.75053 0.16555,-1.75053 0.34084,-3.52061 0.31162,-2.71869 0.79852,-5.32981 1.33412,-8.00939 0.18503,-1.77008 0.35057,-3.54995 0.48691,-5.32981 0.0779,-0.98773 0.15581,-1.97546 0.24345,-3.0023 0.16555,-2.07325 0.32136,-4.15628 0.48691,-6.22952 0.0779,-0.98773 0.15581,-1.97546 0.24345,-2.99252 0.0682,-0.89971 0.13633,-1.79943 0.21424,-2.72848 0.27267,-2.21016 0.27267,-2.21016 1.24648,-4.16605 z"
     fill="#000000"
     id="path7"
     style="stroke-width:0.975878" />
  <path
     d="m 710.36833,337.73424 c 5.01513,1.33001 7.85867,4.62569 10.71194,8.80152 0,0.64545 0,1.29089 0,1.9559 0.64271,0 1.28543,0 1.94762,0 2.81432,2.17104 4.46006,4.55723 5.84288,7.82358 0.31162,6.01437 -0.19477,11.97985 -1.45098,17.87687 -0.60377,3.24679 -0.90565,6.48379 -1.19779,9.77948 -0.0584,0.67478 -0.11686,1.34956 -0.18503,2.04391 -0.19476,2.1417 -0.37979,4.28341 -0.57455,6.42511 -0.19476,2.13193 -0.37978,4.27363 -0.57455,6.41534 -0.17528,1.94611 -0.35057,3.88245 -0.52586,5.82856 -0.94459,9.0069 -0.94459,9.0069 -2.863,10.59117 -0.68167,0.24449 -1.36334,0.49875 -2.06449,0.75302 -0.77905,0.30316 -1.5581,0.59655 -2.36636,0.89971 -1.38281,0.49876 -1.38281,0.49876 -2.80458,0.99751 -1.72365,0.67478 -1.72365,0.67478 -3.47651,1.35934 -10.44901,4.00959 -10.44901,4.00959 -14.05212,2.55245 -0.10711,-6.15129 0.30189,-12.15589 0.91539,-18.27784 0.0779,-0.89971 0.16555,-1.79942 0.25319,-2.73825 0.66219,-6.81629 0.66219,-6.81629 1.24648,-9.46653 0.76931,-4.20517 0.98355,-8.43969 1.28543,-12.70354 0.14607,-1.96567 0.30188,-3.93134 0.45769,-5.89702 0.23372,-3.09031 0.46743,-6.18063 0.68167,-9.27094 0.2045,-2.99252 0.43822,-5.98504 0.68167,-8.96778 0.0584,-0.92905 0.11686,-1.84832 0.17529,-2.79692 0.37978,-4.43011 0.64271,-6.55225 3.51546,-10.08264 0.818,-0.64545 1.63601,-1.28111 2.47348,-1.94612 0.64272,-0.64544 1.28544,-1.29089 1.94763,-1.95589 z"
     fill="#000000"
     id="path8"
     style="stroke-width:0.975878" />
  <path
     d="m 574.34342,296.52791 c 1.11014,0 1.11014,0 2.2495,0.01 0.77905,-0.01 1.54837,-0.01 2.35663,-0.01 2.5806,0 5.16121,0 7.74181,0 1.79181,0 3.57389,0 5.36571,0 3.74917,0 7.49835,0 11.24753,0.01 4.81063,0 9.631,0 14.45138,-0.01 3.69075,0 7.3815,0 11.07224,0 1.77234,0 3.55442,0 5.32676,0 2.48322,0 4.9567,0 7.43993,0.01 0.74009,-0.01 1.48019,-0.01 2.2495,-0.01 5.06383,0.0196 5.06383,0.0196 6.14476,1.11486 0.0974,1.51582 0.1266,3.03164 0.13633,4.54746 0,0.91927 0,1.83854 0,2.78715 0,0.96816 -0.01,1.93633 -0.01,2.93384 0,0.95839 0.01,1.92655 0.01,2.92406 0,0.91927 0,1.83854 0,2.78715 -0.01,0.85081 -0.01,1.70163 -0.01,2.572 -0.1266,1.98523 -0.1266,1.98523 -1.10041,2.96318 -2.44427,0.0978 -4.86907,0.13691 -7.31333,0.13691 -0.76932,0 -1.53863,0.01 -2.32742,0.01 -2.54165,0.01 -5.09304,0.01 -7.63469,0.01 -1.7626,0.01 -3.5252,0.01 -5.2878,0.01 -3.70049,0.01 -7.40097,0.01 -11.10146,0.01 -4.75221,0 -9.49467,0.01 -14.24688,0.0293 -3.64206,0.01 -7.28411,0.01 -10.92617,0.01 -1.75286,0.01 -3.50573,0.01 -5.25859,0.0196 -2.44427,0.01 -4.88854,0 -7.33281,0 -0.73036,0 -1.46072,0.01 -2.21055,0.0196 -5.01514,-0.0391 -5.01514,-0.0391 -7.18674,-2.21016 -0.23371,-2.00479 -0.23371,-2.00479 -0.22397,-4.43988 0,-0.87038 0.01,-1.74075 0.01,-2.64046 0.01,-0.90949 0.0195,-1.82876 0.039,-2.76759 0,-0.90949 0,-1.82876 0,-2.76759 0.0487,-8.02895 0.0487,-8.02895 6.32978,-8.05829 z"
     fill="#000000"
     id="path9"
     style="stroke-width:0.975878" />
  <path
     d="m 574.41603,243.72962 c 0.74984,0 1.50941,0.01 2.27872,0.01 1.18806,0 1.18806,0 2.38585,0 2.61955,0 5.23911,0.01 7.85866,0.0196 1.81129,0 3.62258,0 5.43388,0 4.77168,0 9.5531,0.01 14.32478,0.0293 4.86906,0.01 9.73812,0.01 14.60718,0.0196 9.56284,0.01 19.12568,0.0195 28.68852,0.0391 0,6.77718 0,13.55435 0,20.5369 -10.52691,0.0293 -21.04409,0.0489 -31.571,0.0587 -4.8788,0 -9.76734,0.01 -14.64614,0.0196 -4.71325,0.01 -9.42651,0.0196 -14.13976,0.0196 -1.80155,0 -3.6031,0 -5.39492,0.01 -2.52217,0.01 -5.03461,0.01 -7.54705,0.01 -0.74983,0 -1.49967,0.01 -2.27872,0.01 -5.14173,-0.01 -5.14173,-0.01 -6.22266,-1.10508 -0.0974,-1.36913 -0.12659,-2.74803 -0.12659,-4.11716 -0.01,-0.83125 -0.01,-1.66251 -0.01,-2.5231 0.01,-0.87038 0.01,-1.75053 0.01,-2.65024 0,-0.87037 0,-1.74075 -0.01,-2.64046 0,-0.83125 0,-1.66251 0.01,-2.5231 0,-0.7628 0,-1.53538 0,-2.31774 0.27266,-3.91179 3.10646,-2.89472 6.34925,-2.9045 z"
     fill="#000000"
     id="path10"
     style="stroke-width:0.975878" />
  <path
     d="m 589.85713,350.32101 c 0.63298,0 1.26596,0 1.92815,-0.01 2.10344,0 4.21661,0 6.32005,0.01 1.46071,0 2.92143,-0.01 4.38215,-0.01 3.05777,0 6.11554,0 9.18305,0.01 3.93421,0 7.86841,0 11.79287,0 3.01882,-0.01 6.0279,-0.01 9.04672,0 1.45098,0 2.90196,0 4.35294,-0.01 2.02553,0 4.05106,0 6.06685,0.01 1.73339,0 1.73339,0 3.49599,0 2.59034,0.12714 2.59034,0.12714 3.56415,1.10508 0.0974,1.51582 0.1266,3.03164 0.1266,4.55724 0.01,0.91927 0.01,1.83854 0.01,2.77737 -0.01,0.96817 -0.01,1.93633 -0.01,2.93384 0,0.96817 0,1.93634 0.01,2.93384 0,0.91927 0,1.82876 -0.01,2.77737 0,0.85082 0,1.70163 0,2.572 -0.1266,1.98524 -0.1266,1.98524 -1.10041,2.96318 -2.02553,0.0978 -4.05106,0.12714 -6.08633,0.12714 -0.63297,0 -1.26595,0 -1.91841,0 -2.11317,0.01 -4.21661,0.01 -6.32978,0 -1.46072,0 -2.9117,0 -4.37242,0.01 -3.06751,0 -6.12528,-0.01 -9.18305,-0.01 -3.9342,-0.01 -7.8684,0 -11.8026,0 -3.01882,0.01 -6.0279,0.01 -9.04672,0 -1.45098,0 -2.90196,0 -4.34321,0.01 -2.02553,0 -4.05106,-0.01 -6.07659,-0.01 -1.73338,0 -1.73338,0 -3.49598,0 -2.59034,-0.12714 -2.59034,-0.12714 -3.56416,-1.10508 -0.0974,-1.51582 -0.12659,-3.03164 -0.12659,-4.55724 0,-0.91927 0,-1.83854 0,-2.77737 0,-0.96817 0,-1.93633 0.01,-2.93384 -0.01,-0.96817 -0.01,-1.93634 -0.01,-2.93384 0,-0.91927 0,-1.83854 0,-2.77737 0,-0.85082 0,-1.70163 0,-2.58178 0.27267,-4.28341 3.63232,-3.08054 7.18673,-3.08054 z"
     fill="#000000"
     id="path11"
     style="stroke-width:0.975878" />
  <path
     d="m 214.69778,663.39069 c 24.42322,0 48.84644,0 74.00975,0 0,6.13173 0,12.26346 0,18.581 -24.42322,0 -48.84643,0 -74.00975,0 0,-6.13173 0,-12.26346 0,-18.581 z"
     fill="#000000"
     id="path12"
     style="stroke-width:0.975878" />
  <path
     d="m 678.23252,225.2703 c 3.87577,-0.0293 7.75154,-0.0489 11.62732,-0.0587 1.10041,-0.01 2.21055,-0.0196 3.34991,-0.0293 1.05172,0 2.10344,0 3.18437,-0.01 1.46072,-0.01 1.46072,-0.01 2.95065,-0.01 2.25925,0.10758 2.25925,0.10758 3.23306,1.08552 -0.0389,2.82627 -0.14607,5.61342 -0.30188,8.42991 -0.039,0.78236 -0.0682,1.56472 -0.10712,2.36663 -0.64272,11.77449 -0.64272,11.77449 -3.48625,14.63009 -1.63601,0.0978 -3.28175,0.12714 -4.92749,0.12714 -0.99329,0 -1.99632,0.01 -3.02856,0.01 -1.57757,-0.01 -1.57757,-0.01 -3.18437,-0.0196 -1.04197,0.01 -2.09369,0.01 -3.17462,0.0196 -1.49968,-0.01 -1.49968,-0.01 -3.02856,-0.01 -0.92512,0 -1.84051,0 -2.79484,0 -2.25925,-0.12714 -2.25925,-0.12714 -4.20687,-1.10508 0.27267,-3.32502 0.56481,-6.64026 0.85695,-9.96529 0.0682,-0.93883 0.14607,-1.87765 0.22398,-2.84582 0.0876,-0.90949 0.16555,-1.81898 0.25319,-2.75781 0.0682,-0.83126 0.13633,-1.67229 0.21424,-2.52311 0.43822,-2.66001 1.27569,-4.87995 2.34689,-7.3346 z"
     fill="#000000"
     id="path13"
     style="stroke-width:0.975878" />
  <path
     d="m 627.59427,821.81816 c 8.03395,0 16.0679,0 24.34531,0 0.74984,3.74554 1.09067,5.58408 0.68167,9.11447 -0.0876,0.7628 -0.17529,1.53538 -0.26293,2.31773 -0.0974,0.78236 -0.19476,1.5745 -0.30188,2.37642 -0.0876,0.80191 -0.17529,1.59405 -0.26293,2.40575 -0.37979,3.24678 -0.76931,6.10239 -1.80155,9.21226 -8.03396,0 -16.06791,0 -24.34532,0 -0.82774,-3.32502 -1.05171,-4.79194 -0.68166,-8.00939 0.0876,-0.7628 0.17528,-1.5256 0.26292,-2.30795 0.0974,-0.79214 0.19477,-1.58428 0.30189,-2.39598 0.0876,-0.79213 0.17528,-1.57449 0.26293,-2.39597 0.41874,-3.54995 0.93486,-6.83585 1.80155,-10.31734 z"
     fill="#000000"
     id="path14"
     style="stroke-width:0.975878" />
</svg>
