<?xml version="1.0" encoding="UTF-8" standalone="no"?>
<!-- Generator: visioncortex VTracer 0.6.3 -->

<svg
   version="1.1"
   width="1280"
   height="1280"
   id="svg23"
   sodipodi:docname="icon.svg"
   inkscape:version="1.3.2 (091e20e, 2023-11-25)"
   xmlns:inkscape="http://www.inkscape.org/namespaces/inkscape"
   xmlns:sodipodi="http://sodipodi.sourceforge.net/DTD/sodipodi-0.dtd"
   xmlns="http://www.w3.org/2000/svg"
   xmlns:svg="http://www.w3.org/2000/svg">
  <defs
     id="defs23" />
  <sodipodi:namedview
     id="namedview23"
     pagecolor="#ffffff"
     bordercolor="#000000"
     borderopacity="0.25"
     inkscape:showpageshadow="2"
     inkscape:pageopacity="0.0"
     inkscape:pagecheckerboard="0"
     inkscape:deskcolor="#d1d1d1"
     inkscape:zoom="0.56640625"
     inkscape:cx="643.53103"
     inkscape:cy="641.76552"
     inkscape:window-width="1392"
     inkscape:window-height="1212"
     inkscape:window-x="228"
     inkscape:window-y="25"
     inkscape:window-maximized="0"
     inkscape:current-layer="svg23" />
  <path
     d="m 156.03073,-0.40686121 c 3.61484,0.007547 7.22968,0 10.84452,-0.007547 6.33163,-0.007547 12.65572,-0.007547 18.9798,0 9.41067,0.007547 18.82133,0 28.22444,-0.007547 16.80637,-0.007547 33.61275,-0.007547 50.41912,0 14.7084,0.007547 29.41681,0.007547 44.12522,0 0.97352,0 1.94703,0 2.95828,0 3.96199,0 7.92398,0 11.88596,0 11.07847,0 22.15694,0 33.22787,0 0.50562,-0.007547 1.01124,-0.007547 1.53196,-0.007547 16.05926,0 32.12606,0.007547 48.19286,0.007547 0.77731,0 0.77731,0 1.57725,0 8.45223,0.007547 16.91202,0.007547 25.36426,0.007547 33.53728,0.0150933 67.067,0.0150933 100.60428,0 8.45225,0 16.90448,0 25.35672,-0.007547 0.52072,0 1.04144,0 1.57725,0 16.04416,0 32.09586,-0.007547 48.14003,0 0.75467,0 0.75467,0 1.52442,0 11.56145,0 23.12291,0 34.68437,0 3.95444,0 7.90888,0 11.87086,0 0.97352,0 1.94704,0 2.95074,0 14.69331,0.007547 29.39418,0 44.08748,0 16.71581,-0.007547 33.42408,-0.007547 50.1399,0.007547 9.35029,0.007547 18.70057,0.007547 28.05086,-0.007547 6.24862,0 12.49724,0 18.74586,0.007547 3.56202,0.007547 7.11648,0.007547 10.6785,0 27.02453,-0.0528265 27.02453,-0.0528265 38.61617,2.56585821 0.85276,0.1811194 1.70554,0.3622388 2.58095,0.5509049 39.42365,8.8823981 70.64411,34.1485551 92.50675,67.3688731 0.7622,1.147089 0.7622,1.147089 1.53952,2.324365 6.35424,10.263434 11.28974,22.209767 14.30838,33.899517 0.19628,0.68674 0.39246,1.38103 0.59625,2.09042 0.62631,2.30927 1.15457,4.62609 1.6678,6.96555 0.29433,1.28292 0.29433,1.28292 0.58865,2.60359 2.52813,12.51988 1.99978,25.36427 1.96963,38.07281 -0.009,3.62239 0,7.23723 0.009,10.85207 0.009,6.32409 0.009,12.64818 0,18.9798 -0.009,9.40312 -0.009,18.81378 0,28.22445 0.0147,16.80637 0.0147,33.61274 0.009,50.41911 -0.009,14.70086 -0.009,29.40927 -0.009,44.11767 0,0.97351 0,1.95458 0,2.95829 0,3.96199 0.009,7.92396 0.009,11.88595 0,11.07848 0,22.15694 0,33.23542 0,0.50562 0,1.0037 0,1.52442 0,16.0668 0,32.12606 -0.009,48.19286 0,0.52071 0,1.04143 0,1.57724 0,8.45979 0,16.91203 -0.009,25.37182 -0.009,33.52972 -0.009,67.067 0,100.59673 0.009,8.45223 0.009,16.90448 0.009,25.35672 0,0.78485 0,0.78485 0,1.57725 0.009,16.0517 0.009,32.09586 0.009,48.14003 0,0.75465 0,0.75465 0,1.53196 0,11.56146 0,23.12291 0,34.68437 -0.009,3.95444 -0.009,7.90888 -0.009,11.86332 0,1.46405 0,1.46405 0,2.95074 0,14.70086 0,29.39416 0.009,44.08748 0.009,16.71581 0.009,33.43162 -0.009,50.13988 -0.009,9.35029 -0.009,18.70058 0,28.05088 0.009,6.24862 0.009,12.50479 -0.009,18.7534 0,3.55447 -0.009,7.11649 0,10.67095 0.0605,27.03207 0.0605,27.03207 -2.55828,38.62372 -0.18115,0.84522 -0.36983,1.69799 -0.5585,2.58095 -8.87486,39.41611 -34.141,70.63655 -67.36131,92.5067 -1.14708,0.75469 -1.14708,0.75469 -2.32436,1.53201 -10.26343,6.35424 -22.20976,11.28974 -33.89952,14.31599 -0.68673,0.19618 -1.38103,0.39236 -2.09796,0.58864 -2.30173,0.63391 -4.61855,1.15466 -6.958,1.67531 -1.29048,0.28681 -1.29048,0.28681 -2.6036,0.58865 -12.51987,2.52062 -25.36426,1.99236 -38.08035,1.96212 -3.61484,-0.009 -7.22969,0 -10.84453,0.009 -6.32408,0.009 -12.65571,0.009 -18.9798,0 -9.41066,-0.009 -18.81378,0 -28.22444,0.009 -16.80637,0.009 -33.61275,0.009 -50.41912,0 -14.70841,0 -29.41681,-0.009 -44.11767,0 -0.98106,0 -1.95458,0 -2.95828,0 -3.96199,0 -7.93152,0 -11.89351,0 -11.07092,0 -22.14939,0 -33.22786,0.009 -0.50563,0 -1.01125,0 -1.53197,0 -16.05925,0 -32.12605,-0.009 -48.18531,-0.009 -0.52072,0 -1.04144,0 -1.57725,0 -8.45978,-0.009 -16.91202,-0.009 -25.37181,-0.009 -33.52973,-0.0147 -67.067,-0.0147 -100.60428,0 -8.45224,0 -16.90448,0 -25.34917,0.009 -0.52072,0 -1.04144,0 -1.57725,0 -16.05171,0 -32.09586,0.009 -48.14757,0.009 -0.75467,0 -0.75467,0 -1.52442,0 -11.56146,-0.009 -23.12292,-0.009 -34.68437,-0.009 -3.95444,0 -7.90889,0 -11.86332,0 -0.97352,0 -1.94704,0 -2.95074,0 -14.70086,-0.009 -29.39417,0 -44.09503,0 -16.70826,0.009 -33.42408,0.009 -50.13989,-0.009 -9.35029,0 -18.70058,0 -28.05086,0.009 -6.24862,0 -12.49725,0 -18.74587,-0.009 -3.56201,-0.009 -7.11648,-0.009 -10.67095,0 -27.03207,0.0531 -27.03207,0.0531 -38.62371,-2.55838 -0.85277,-0.18867 -1.70554,-0.36973 -2.58095,-0.5584 -39.42366,-8.87487 -70.636572,-34.14862 -92.50674,-67.36135 -0.505625,-0.76976 -1.01125,-1.53951 -1.531968,-2.33191 -6.36182,-10.26499 -11.2897767,-22.21133 -14.3159801,-33.89353 -0.294319,-1.04144 -0.294319,-1.04144 -0.5961847,-2.09797 -0.6263713,-2.30927 -1.1546362,-4.62609 -1.6678079,-6.958 -0.1962126,-0.86032 -0.3924253,-1.72064 -0.5886381,-2.61114 -2.52812501,-12.51988 -1.99231343,-25.36426 -1.96212686,-38.07281 0,-3.61484 -0.007547,-7.23723 -0.007547,-10.85207 -0.007547,-6.32409 -0.007547,-12.64817 -0.007547,-18.97981 0.0150933,-9.40311 0.007547,-18.81378 0,-28.22443 -0.0150933,-16.80638 -0.007547,-33.61275 -0.007547,-50.41157 0.007547,-14.70841 0.007547,-29.41681 0.007547,-44.12522 0,-0.97352 0,-1.95458 0,-2.95828 0,-3.96199 0,-7.92398 0,-11.88597 -0.007547,-11.07846 -0.007547,-22.15694 -0.007547,-33.2354 0,-0.50563 0,-1.00371 0,-1.52443 0,-16.06679 0,-32.12605 0.007547,-48.19285 0,-0.77731 0,-0.77731 0,-1.57725 0,-8.45224 0.007547,-16.91203 0.007547,-25.36426 0.0150933,-33.53728 0.0150933,-67.07456 0,-100.60429 0,-8.45224 -0.007547,-16.90448 -0.007547,-25.35671 0,-0.52072 0,-1.04144 0,-1.57725 -0.007547,-16.04417 -0.007547,-32.09588 -0.007547,-48.14003 0,-0.50563 0,-1.01126 0,-1.53197 0,-11.56146 0,-23.12292 0.007547,-34.67682 0,-3.96199 0,-7.91643 0,-11.87087 0,-0.97352 0,-1.94704 0,-2.95073 0,-14.69332 0,-29.39418 -0.007547,-44.08749 -0.007547,-16.71581 0,-33.43162 0.007547,-50.13989 0.007547,-9.35029 0.007547,-18.70058 0,-28.05087 -0.007547,-6.24861 0,-12.50478 0.007547,-18.7534 0.007547,-3.55447 0.007547,-7.11649 0,-10.67095 C -0.47153576,126.935 -0.47153576,126.935 2.1471489,115.35091 2.335815,114.49814 2.5169344,113.64537 2.7056004,112.76996 11.580452,73.346471 36.854156,42.126013 70.066927,20.263391 70.836685,19.75022 71.606442,19.244594 72.391293,18.723876 82.662273,12.369604 94.608604,7.4340998 106.29081,4.415443 c 0.69429,-0.1962127 1.38103,-0.3999721 2.09796,-0.5961847 2.30928,-0.6263713 4.6261,-1.1546362 6.95801,-1.6678079 0.86032,-0.1962127 1.72064,-0.3924254 2.61114,-0.5961847 12.51987,-2.52057842 25.36426,-1.99231348 38.07281,-1.96212691 z M 84.405546,54.879838 c -0.452798,0.286772 -0.913143,0.573544 -1.381035,0.87541 -1.079169,0.701838 -2.120606,1.464049 -3.146949,2.241353 0,0.498079 0,0.996157 0,1.509328 -0.437706,0.20376 -0.875411,0.407519 -1.320663,0.618825 -4.724198,2.467752 -8.240933,5.795821 -11.508629,9.946474 -1.252742,1.252742 -2.513032,2.513032 -3.77332,3.773321 -2.716792,2.641325 -2.716792,2.641325 -3.773322,6.037313 -0.498078,0 -0.996156,0 -1.509328,0 -1.614981,1.95458 -2.897911,4.165747 -4.241213,6.31654 -0.407519,0.649011 -0.815037,1.290475 -1.230103,1.954581 -11.916147,19.409967 -16.678078,40.895247 -16.602612,63.512537 -0.0075,1.17727 -0.0075,2.3621 -0.0075,3.53937 -0.0075,3.22243 -0.0075,6.44484 0,9.66726 0,3.51673 0,7.03346 -0.0075,10.54265 -0.0075,6.15052 -0.0075,12.30103 -0.0075,18.45909 0.0075,9.14653 0,18.29306 -0.0075,27.43959 -0.0075,17.28935 -0.0075,34.57871 -0.0075,51.86807 0,13.35001 0,26.70756 0,40.05758 -0.0075,1.91684 -0.0075,3.84124 -0.0075,5.75809 0,2.89035 0,5.78072 0,8.67863 -0.0075,26.88114 -0.0075,53.76983 -0.0075,80.65096 0,0.50563 0,1.01126 0,1.53197 0,5.65244 0,11.29732 0,16.94221 0.0075,0.51317 0.0075,1.02635 0.0075,1.54707 0,3.09412 0,3.09412 0,6.18824 0,32.60904 -0.0075,65.21053 -0.01509,97.81958 -0.0075,8.21829 -0.0075,16.43658 -0.01509,24.64733 0,0.50562 0,1.01125 0,1.53951 -0.0075,27.33394 -0.0075,54.67542 -0.0075,82.00936 0,3.84879 0,7.69758 0,11.54636 0,0.94333 0,1.89421 0,2.86773 0,14.28579 -0.0075,28.57913 -0.01509,42.86492 -0.0075,16.25547 -0.0075,32.51093 0,48.75885 0.0075,9.09371 0.0075,18.18741 -0.0075,27.27357 0,6.0826 0,12.15764 0.0075,18.24024 0.0075,3.45636 0.0075,6.92027 0,10.37663 -0.06792,28.63195 3.418628,54.17734 19.062817,78.85486 0.286773,0.4528 0.573545,0.91314 0.867863,1.38104 0.701839,1.07917 1.471596,2.11305 2.241353,3.14694 0.498079,0 0.996157,0 1.509329,0 0.203759,0.43016 0.415065,0.86787 0.626371,1.32067 2.467752,4.7242 5.795821,8.24093 9.938927,11.50862 1.26029,1.25275 2.520579,2.51304 3.773322,3.77332 2.648871,2.70925 2.648871,2.70925 6.037313,3.77333 0,0.49807 0,0.99615 0,1.50933 1.962127,1.60743 4.173293,2.89791 6.324086,4.24121 0.641465,0.40752 1.290476,0.80749 1.954581,1.2301 19.402406,11.91619 40.887696,16.67805 63.512526,16.60264 1.17729,0 2.3621,0.009 3.53938,0.009 3.22242,0.009 6.44483,0 9.66725,0 3.50919,-0.009 7.02592,0 10.54266,0.009 6.15052,0.009 12.30103,0.009 18.45155,0 9.14653,0 18.29305,0 27.44713,0.009 17.28936,0.0156 34.57871,0.0156 51.86807,0.0156 13.35001,0 26.70002,0 40.05758,0 1.91683,0 3.83369,0 5.75809,0 2.89035,0 5.78071,0.009 8.67109,0.009 26.88868,0 53.76982,0.009 80.6585,0.009 0.75467,-0.009 0.75467,-0.009 1.53198,-0.009 5.64489,0 11.29732,0 16.9422,0 0.51318,0 1.01879,0 1.54706,0 3.09412,0 3.09412,0 6.1807,0 32.60904,0 65.21808,0 97.82712,0.0147 8.21829,0.009 16.42904,0.009 24.64733,0.0147 0.50563,0 1.01126,0 1.53198,0 27.34148,0.009 54.67541,0.009 82.0169,0.009 3.84878,0 7.69002,0 11.53882,0 1.41876,0 1.41876,0 2.86772,0 14.29334,0 28.57913,0 42.87247,0.009 16.24791,0.0147 32.50339,0.0147 48.75885,0 9.0937,0 18.17986,0 27.27356,0.009 6.07506,0.009 12.15766,0.009 18.2327,0 3.4639,-0.009 6.92026,-0.009 10.38417,0 28.62441,0.0678 54.17735,-3.41862 78.84732,-19.06278 0.46034,-0.28678 0.91314,-0.57355 1.38858,-0.86786 1.07163,-0.70939 2.11306,-1.4716 3.13941,-2.24136 0,-0.49808 0,-0.99616 0,-1.50933 0.4377,-0.2113 0.8754,-0.41506 1.3282,-0.62637 4.72421,-2.46775 8.23339,-5.79582 11.50109,-9.93892 1.26028,-1.26029 2.52058,-2.52059 3.77331,-3.77333 2.71679,-2.64887 2.71679,-2.64887 3.77333,-6.03731 0.49808,0 0.99615,0 1.50932,0 1.61498,-1.96213 2.89792,-4.1733 4.24876,-6.32409 0.39998,-0.64146 0.80749,-1.29047 1.22256,-1.95458 11.87844,-19.33449 16.67814,-40.8877 16.61024,-63.42197 0,-1.17728 0,-2.35456 0.009,-3.53938 0,-3.22242 0,-6.44483 -0.009,-9.66725 0,-3.51673 0.009,-7.02592 0.009,-10.54266 0.009,-6.15051 0.009,-12.30102 0.009,-18.45908 0,-9.14654 0,-18.29306 0.009,-27.44714 0.009,-17.28936 0.0147,-34.57871 0.009,-51.87562 0,-13.35 0,-26.70757 0.009,-40.05758 0,-1.92439 0,-3.84123 0,-5.75808 0,-2.89791 0,-5.78827 0,-8.67864 0.009,-26.88869 0.0156,-53.77737 0.009,-80.66606 0,-0.50562 0,-1.01125 0,-1.53196 0,-5.65244 0,-11.29733 0,-16.94976 0,-0.50563 0,-1.01879 0,-1.53951 0,-3.09413 0,-3.09413 0,-6.18825 -0.009,-32.61659 0,-65.22563 0.0147,-97.84221 0,-8.21075 0.009,-16.42904 0.009,-24.64734 0,-0.50562 0,-1.01125 0,-1.53197 0.0147,-27.34148 0.0147,-54.68297 0.0147,-82.02445 -0.009,-3.84879 -0.009,-7.69757 -0.009,-11.54636 0,-0.94333 0,-1.8942 0,-2.86772 0,-14.29334 0.009,-28.57914 0.0156,-42.87248 0.009,-16.25546 0.009,-32.51093 0,-48.7664 -0.009,-9.0937 0,-18.1874 0.009,-27.28111 0.009,-6.08259 0.009,-12.15764 -0.009,-18.24023 0,-3.45637 0,-6.92027 0.009,-10.37663 0.0678,-28.63196 -3.42614,-54.18489 -19.06285,-78.854866 -0.28677,-0.460345 -0.58109,-0.920691 -0.87541,-1.388583 -0.70184,-1.07917 -1.46405,-2.113059 -2.24135,-3.139403 -0.49807,0 -0.99616,0 -1.50932,0 -0.20376,-0.437705 -0.40753,-0.87541 -0.62638,-1.328208 -2.46019,-4.724198 -5.78826,-8.240933 -9.93893,-11.501083 -1.25274,-1.260289 -2.51303,-2.520578 -3.77332,-3.773321 -2.64133,-2.716791 -2.64133,-2.716791 -6.03731,-3.773321 0,-0.498078 0,-0.996157 0,-1.509328 -1.95457,-1.614982 -4.17329,-2.897911 -6.31655,-4.24876 -0.649,-0.407518 -1.29046,-0.80749 -1.95457,-1.230102 -19.34205,-11.870868 -40.88771,-16.678079 -63.42198,-16.602612 -1.17727,0 -2.3621,0 -3.53938,-0.0075 -3.22241,-0.0075 -6.44483,0 -9.66723,0 -3.51675,0.0075 -7.03347,0 -10.54268,-0.0075 -6.1505,-0.0075 -12.30855,-0.0075 -18.45907,0 -9.14653,0 -18.30061,0 -27.44715,-0.0075 -17.28935,-0.01509 -34.58624,-0.01509 -51.87561,-0.01509 -13.35756,0 -26.70757,0 -40.06513,0 -1.91684,0 -3.83368,0 -5.75808,0 -2.89037,0 -5.78073,0 -8.67863,-0.0075 -26.88114,0 -53.76983,-0.0075 -80.65851,0 -0.50563,0 -1.01125,0 -1.53952,0 -5.6449,0 -11.29733,0 -16.94221,0 -0.76221,0 -0.76221,0 -1.54706,0 -3.09412,0 -3.09412,0 -6.18824,0 -32.60905,0.0075 -65.21809,0 -97.83467,-0.01509 -8.21829,-0.0075 -16.43659,-0.0075 -24.65488,-0.0075 -0.75467,-0.0075 -0.75467,-0.0075 -1.53197,-0.0075 -27.34148,-0.0075 -54.68297,-0.0075 -82.02445,-0.0075 -3.84124,0 -7.69003,0 -11.53882,0 -1.41877,0 -1.41877,0 -2.86772,0 -14.29334,0 -28.58668,0 -42.87248,-0.0075 -16.25546,-0.0075 -32.51093,-0.01509 -48.77394,0 -9.08616,0 -18.17986,0 -27.27357,-0.0075 -6.08259,-0.0075 -12.16519,-0.0075 -18.24022,0 -3.46392,0.0075 -6.92028,0.0075 -10.38419,0 -28.63196,-0.06792 -54.17734,3.418629 -78.854862,19.062819 z"
     fill="#000000"
     id="path1"
     style="stroke-width:0.754664" />
  <path
     d="m 762.84992,463.24781 c 3.98462,0 7.96925,0 12.07463,0 0,12.701 0,25.40199 0,38.48787 12.95003,0 25.90007,0 39.24253,0 0,3.98463 0,7.96926 0,12.07462 -12.95003,0 -25.90007,0 -39.24253,0 0.0301,12.88212 0.0301,12.88212 0.0679,25.76424 0,1.60743 0.007,3.21487 0.007,4.82231 0,0.84522 0.007,1.6829 0.007,2.55076 0,1.19992 0,1.19992 0,2.41493 0.007,0.69429 0.007,1.39613 0.007,2.11306 -0.0905,1.57725 -0.0905,1.57725 -0.84523,2.33191 -3.73558,0 -7.47117,0 -11.31996,0 -0.24904,-12.95004 -0.49807,-25.90008 -0.75466,-39.24254 -12.88212,-0.21886 -12.88212,-0.21886 -25.76424,-0.43016 -1.60743,-0.0302 -3.21487,-0.0528 -4.82231,-0.083 -0.84521,-0.0151 -1.6829,-0.0301 -2.55076,-0.0377 -0.79995,-0.0151 -1.59989,-0.0302 -2.41492,-0.0453 -0.6943,-0.0151 -1.39614,-0.0301 -2.11307,-0.0377 -1.57724,-0.12075 -1.57724,-0.12075 -2.3319,-0.87542 -0.0755,-1.61497 -0.0981,-3.23751 -0.0905,-4.86003 -0.007,-0.88296 -0.007,-1.77346 -0.007,-2.6866 0.0981,-2.264 0.0981,-2.264 0.85278,-3.77333 13.19907,0 26.39815,0 39.9972,0 0,-12.701 0,-25.402 0,-38.48787 z"
     fill="#000000"
     id="path2"
     style="stroke-width:0.754664" />
  <path
     d="m 642.79862,176.28011 c 0.73957,0 1.48668,-0.007 2.2489,-0.007 2.43757,-0.007 4.88267,0 7.32779,0 1.69799,0 3.39598,0 5.09398,0 3.55447,-0.007 7.10893,0 10.6634,0.007 4.56572,0.007 9.13144,0 13.69716,-0.007 3.50164,-0.007 7.01083,0 10.51248,0 1.6829,0 3.37334,0 5.05624,0 2.347,-0.007 4.69401,0 7.04102,0.007 0.69429,0 1.39612,-0.007 2.12061,-0.007 0.63392,0 1.27538,0.007 1.92439,0.007 0.55845,0.007 1.10936,0.007 1.6829,0.007 1.36594,0.18866 1.36594,0.18866 2.87527,1.69799 -1.19992,2.72434 -2.41492,5.44113 -3.62993,8.15792 -0.51318,1.16219 -0.51318,1.16219 -1.0339,2.33946 -0.33205,0.74712 -0.67164,1.48669 -1.01124,2.2489 -0.30187,0.68675 -0.61128,1.37349 -0.9207,2.07532 -1.50178,2.8149 -1.50178,2.8149 -3.21486,4.04501 -2.04514,0.2264 -3.92426,0.31696 -5.9694,0.30186 -0.60373,0.007 -1.21501,0.0151 -1.84138,0.0151 -2.01495,0.0151 -4.02236,0.0151 -6.03731,0.007 -1.40368,0.007 -2.80736,0.007 -4.20349,0.0151 -2.94318,0.007 -5.88637,0 -8.82957,-0.007 -3.75822,-0.007 -7.51645,0.007 -11.27467,0.0301 -2.89792,0.0151 -5.79583,0.0151 -8.69374,0.0151 -1.38858,-0.007 -2.76962,0 -4.15065,0.007 -13.35001,0.083 -13.35001,0.083 -19.18357,-3.40353 -2.60358,-0.95088 -5.21473,-1.86403 -7.83341,-2.76208 -1.97722,-1.01124 -1.97722,-1.01124 -2.70924,-2.50548 -0.0378,-2.55076 1.39613,-4.20348 2.99602,-6.05241 5.22982,-5.33547 9.99929,-6.26371 17.2969,-6.23352 z"
     fill="#000000"
     id="path3"
     style="stroke-width:0.754664" />
  <path
     d="m 487.47247,176.3745 c 0.97352,-0.007 0.97352,-0.007 1.96214,-0.007 0.70938,0 1.42631,0 2.15833,0 0.74712,0 1.49424,-0.007 2.27154,-0.007 2.48285,-0.007 4.96569,-0.007 7.44853,-0.007 1.72064,-0.007 3.44127,-0.007 5.16191,-0.007 3.60729,-0.007 7.21459,-0.007 10.82188,-0.007 4.63365,0 9.26728,-0.0151 13.90092,-0.0226 3.55447,-0.007 7.10894,-0.0151 10.6634,-0.007 1.70555,-0.007 3.41863,-0.007 5.12417,-0.0151 2.38474,-0.007 4.76948,-0.007 7.15422,0 1.07162,-0.007 1.07162,-0.007 2.15834,-0.0151 0.64901,0.007 1.29802,0.007 1.96213,0.0151 0.56599,0 1.132,0 1.71308,-0.007 1.38104,0.18867 1.38104,0.18867 2.89037,1.69799 -7.62965,16.68563 -7.62965,16.68563 -9.81064,18.8666 -1.93948,0.0905 -3.85633,0.1283 -5.79582,0.13585 -0.91314,0.007 -0.91314,0.007 -1.84138,0.0151 -2.02249,0.0151 -4.045,0.0226 -6.0675,0.0301 -1.03389,0.007 -1.03389,0.007 -2.09042,0.007 -3.65257,0.0226 -7.3127,0.0301 -10.97281,0.0378 -3.76578,0.007 -7.5391,0.0301 -11.31242,0.0604 -2.89791,0.0226 -5.80337,0.0302 -8.70883,0.0302 -1.38858,0.007 -2.77716,0.0151 -4.16574,0.0301 -13.41039,0.12829 -13.41039,0.12829 -19.22885,-3.3658 -2.60359,-0.94334 -5.20718,-1.85648 -7.82586,-2.75453 -1.98477,-1.0188 -1.98477,-1.0188 -2.73189,-2.4602 -0.0151,-3.11677 1.75837,-5.34303 3.76577,-7.61457 2.15835,-1.50933 4.3997,-2.67151 6.79198,-3.77332 1.72819,-0.86032 2.68661,-0.84522 4.60345,-0.85277 z"
     fill="#000000"
     id="path4"
     style="stroke-width:0.754664" />
  <path
     d="m 642.35128,325.38304 c 1.39612,0.007 2.79979,0.0151 4.19592,0.0226 3.62994,0.0226 7.25987,0.0679 10.88226,0.12829 3.72805,0.0604 7.44854,0.083 11.17658,0.10566 7.26741,0.0604 14.52728,0.15092 21.7947,0.25658 1.36594,2.67906 2.57341,5.177 3.33561,8.08245 0.16603,0.62637 0.33206,1.26029 0.50563,1.90931 0.16603,0.64146 0.33206,1.28292 0.49808,1.94703 0.26414,0.98106 0.26414,0.98106 0.53581,1.98476 0.93578,3.6073 0.93578,3.6073 1.16218,4.94305 -1.15463,1.16219 -2.21116,0.86032 -3.81859,0.86032 -0.66411,0.007 -1.32821,0.0151 -2.00741,0.0151 -1.09426,0 -1.09426,0 -2.21871,0 -1.14709,0.007 -1.14709,0.007 -2.31682,0.0151 -2.54322,0.007 -5.09399,0.0151 -7.63721,0.0226 -1.76591,0 -3.53183,0.007 -5.29774,0.007 -3.7054,0.007 -7.4108,0.0151 -11.11621,0.0151 -4.75437,0.007 -9.50121,0.0226 -14.2556,0.0453 -3.64502,0.0151 -7.29006,0.0226 -10.94263,0.0226 -1.75082,0 -3.50165,0.007 -5.25246,0.0151 -2.45266,0.0151 -4.90532,0.0151 -7.35044,0.007 -1.08671,0.007 -1.08671,0.007 -2.19606,0.0226 -4.48271,-0.0301 -8.02208,-0.46034 -11.35015,-3.79596 -1.74328,-2.58095 -2.99602,-4.63364 -3.29034,-7.81832 10.41437,-7.56928 22.44371,-9.07861 34.9636,-8.81448 z"
     fill="#000000"
     id="path5"
     style="stroke-width:0.754664" />
  <path
     d="m 327.50411,176.30406 c 0.67921,0 1.35841,0 2.05269,0 2.23381,0 4.46007,0.0151 6.68633,0.0226 1.55461,0.007 3.10167,0.007 4.65628,0.007 4.06764,0.007 8.14282,0.0226 12.21046,0.0377 4.1582,0.0151 8.3164,0.0226 12.4746,0.0301 8.15792,0.0151 16.3083,0.0378 24.45867,0.0755 0.8905,2.64133 0.76221,2.99602 -0.40752,5.79583 -0.55091,1.05653 -1.10181,2.11306 -1.66781,3.16204 -0.27167,0.52827 -0.54335,1.04899 -0.82258,1.59234 -0.53582,1.02634 -1.07917,2.06023 -1.62253,3.08658 -0.70184,1.3433 -1.37348,2.69415 -2.04514,4.05255 -0.98106,1.93193 -0.98106,1.93193 -1.73573,2.6866 -1.72063,0.083 -3.44882,0.12074 -5.16945,0.12829 -0.54335,0.007 -1.08672,0.0151 -1.64517,0.0151 -1.79609,0.0151 -3.59975,0.0301 -5.39584,0.0378 -0.61883,0 -1.23011,0 -1.86402,0.007 -3.2677,0.0151 -6.52785,0.0226 -9.788,0.0301 -3.35826,0.007 -6.71651,0.0378 -10.07477,0.0679 -2.58849,0.0151 -5.18454,0.0226 -7.77304,0.0302 -1.23765,0 -2.4753,0.007 -3.71295,0.0226 -6.58822,0.0679 -12.10481,0.0151 -17.96855,-3.35826 -2.59605,-0.95087 -5.20718,-1.86402 -7.82587,-2.76207 -1.98477,-1.01124 -1.98477,-1.01124 -2.71679,-2.50548 -0.0378,-2.55831 1.40368,-4.20348 2.99602,-6.05241 5.0487,-5.13926 9.6446,-6.27126 16.70071,-6.21088 z"
     fill="#000000"
     id="path6"
     style="stroke-width:0.754664" />
  <path
     d="m 481.40863,325.75337 c 0.82259,-0.007 0.82259,-0.007 1.66026,-0.0151 1.81874,-0.0226 3.63748,-0.0378 5.45622,-0.0453 0.92824,-0.007 0.92824,-0.007 1.87912,-0.0151 3.28278,-0.0151 6.56558,-0.0301 9.84837,-0.0453 3.38844,-0.007 6.78443,-0.0453 10.18042,-0.083 2.60359,-0.0226 5.20718,-0.0301 7.81832,-0.0378 1.2452,-0.007 2.49794,-0.0151 3.75068,-0.0378 1.75082,-0.0226 3.4941,-0.0226 5.24491,-0.0151 0.99616,-0.007 1.99232,-0.0151 3.01866,-0.0226 2.41493,0.46034 2.41493,0.46034 3.84879,2.27909 0.70938,1.67535 1.36594,3.28278 1.87156,5.02606 0.16603,0.5509 0.32451,1.1018 0.49808,1.67535 0.15849,0.566 0.31697,1.132 0.48298,1.72063 0.17358,0.56601 0.3396,1.132 0.51318,1.72064 0.79994,2.74698 1.23765,4.75438 1.23765,7.65984 -9.35784,0.0755 -18.71568,0.1283 -28.06596,0.15848 -4.34687,0.0151 -8.68619,0.0378 -13.03305,0.0679 -4.19594,0.0378 -8.38432,0.0529 -12.58026,0.0604 -1.59989,0.007 -3.19977,0.0151 -4.79966,0.0377 -2.24135,0.0151 -4.48271,0.0226 -6.72406,0.0226 -0.98861,0.0151 -0.98861,0.0151 -1.99231,0.0302 -4.39214,-0.0302 -6.93536,-0.84522 -10.53511,-3.39599 -2.09797,-2.58095 -3.68277,-4.90532 -3.77333,-8.3013 1.62254,-2.06024 3.27525,-2.79226 5.7279,-3.61485 1.00371,-0.3396 1.00371,-0.3396 2.02251,-0.68674 0.69429,-0.22641 1.38858,-0.46035 2.10551,-0.69429 1.37349,-0.46789 2.75452,-0.93578 4.12802,-1.39614 0.61128,-0.20375 1.22255,-0.40751 1.84892,-0.61882 3.04884,-1.07162 5.01097,-1.40368 8.36168,-1.43386 z"
     fill="#000000"
     id="path7"
     style="stroke-width:0.754664" />
  <path
     d="m 490.40841,250.66299 c 0.58864,-0.007 1.17727,-0.0226 1.781,-0.0301 1.93194,-0.0301 3.85634,-0.0301 5.78828,-0.0226 1.35085,-0.0151 2.70169,-0.0226 4.05255,-0.0302 2.82244,-0.0151 5.65243,-0.0151 8.47488,-0.007 3.60728,0.007 7.22213,-0.0301 10.82942,-0.0755 2.78472,-0.0301 5.57697,-0.0377 8.36169,-0.0301 1.3282,0 2.65641,-0.0151 3.99217,-0.0302 10.3389,-0.15092 10.3389,-0.15092 13.9311,2.0376 1.54706,1.50932 2.73189,2.95829 3.92425,4.74684 0.42261,0.53581 0.84523,1.06407 1.27539,1.60743 0.98861,1.41122 0.98861,1.41122 0.94332,3.01865 -0.91314,1.81875 -1.86402,2.20362 -3.72804,2.92056 0,0.49808 0,0.99616 0,1.50933 -2.61868,3.34316 -5.53923,5.07889 -9.72007,5.78073 -3.59975,0.24904 -7.19949,0.20375 -10.80679,0.15093 -1.33575,0 -2.67151,0.007 -4.00727,0.007 -2.78471,0 -5.56942,-0.0151 -8.35413,-0.0453 -3.56957,-0.0378 -7.13912,-0.0378 -10.70114,-0.0226 -2.75453,0.007 -5.50905,-0.007 -8.25603,-0.0226 -1.31311,-0.007 -2.63378,-0.007 -3.94689,0 -1.84138,0 -3.67521,-0.0226 -5.50905,-0.0529 -0.81503,0.007 -0.81503,0.007 -1.63761,0.0151 -2.92056,-0.0679 -4.13557,-0.44525 -6.41465,-2.33191 -1.32821,-1.64517 -2.30173,-3.0413 -3.09413,-4.98834 -0.49808,0 -0.99615,0 -1.50932,0 0,-0.49807 0,-0.99615 0,-1.50932 -0.49809,0 -0.99616,0 -1.50933,0 -0.24904,-0.74712 -0.49808,-1.49424 -0.75467,-2.26399 0.91315,-0.92824 1.81874,-1.85647 2.73943,-2.77717 0.50563,-0.52072 1.01126,-1.03388 1.53197,-1.5697 0.58864,-0.55845 1.16973,-1.10935 1.76592,-1.69045 0.98861,-0.96597 0.98861,-0.96597 1.99985,-1.95458 2.65642,-2.18853 5.20719,-2.3621 8.5579,-2.33945 z"
     fill="#000000"
     id="path8"
     style="stroke-width:0.754664" />
  <path
     d="m 318.02513,325.72757 c 0.5509,0 1.1018,0 1.67535,0 1.81119,0 3.62239,0.0151 5.44112,0.0226 1.26029,0.007 2.52059,0.007 3.78842,0.007 3.30543,0.007 6.6184,0.0226 9.93138,0.0378 3.38844,0.0151 6.76934,0.0226 10.15778,0.0302 6.6335,0.0151 13.267,0.0377 19.89295,0.0754 0.36224,0.94334 0.72448,1.89422 1.07917,2.84509 0.20375,0.52826 0.39997,1.04898 0.60373,1.59988 0.85277,2.32438 1.55461,4.67892 2.2338,7.06366 0.26414,0.89051 0.52072,1.78102 0.78486,2.7017 0.58109,2.39229 0.58109,2.39229 0.58109,5.41094 -9.36538,0.0529 -18.73076,0.0905 -28.1037,0.11321 -4.34686,0.0151 -8.69373,0.0301 -13.04814,0.0529 -4.19594,0.0301 -8.39186,0.0378 -12.59535,0.0453 -1.59988,0.007 -3.19977,0.0151 -4.79966,0.0226 -2.2489,0.0226 -4.49025,0.0226 -6.7316,0.0226 -0.99616,0.007 -0.99616,0.007 -2.00741,0.0226 -4.31668,-0.0226 -7.73531,-0.58864 -10.92754,-3.78842 -1.72818,-2.55076 -3.10921,-4.64118 -3.29033,-7.81077 0.9886,-1.97722 1.75837,-2.0225 3.81105,-2.76207 0.61882,-0.2264 1.24519,-0.4528 1.88666,-0.68674 0.65656,-0.23395 1.31311,-0.46789 1.99231,-0.70184 0.64147,-0.23395 1.28293,-0.46789 1.94704,-0.70939 1.81874,-0.649 3.63748,-1.29802 5.45622,-1.93194 0.67165,-0.26413 1.33576,-0.52072 2.0225,-0.78485 2.85263,-0.83013 5.24492,-0.90559 8.2183,-0.89805 z"
     fill="#000000"
     id="path9"
     style="stroke-width:0.754664" />
  <path
     d="m 325.87964,250.65102 c 0.87541,-0.0151 0.87541,-0.0151 1.77346,-0.0378 1.93194,-0.0301 3.85633,-0.0301 5.78072,-0.0301 1.35085,-0.0151 2.7017,-0.0226 4.045,-0.0378 2.82245,-0.0151 5.64489,-0.0226 8.46734,-0.0151 3.60729,0 7.20704,-0.0378 10.80679,-0.0981 2.78471,-0.0377 5.56942,-0.0377 8.35413,-0.0377 1.32821,0 2.65642,-0.0151 3.98463,-0.0378 10.32381,-0.18112 10.32381,-0.18112 14.21033,2.31682 2.38473,2.33946 4.1431,4.79967 5.99203,7.56928 -0.0981,1.55461 -0.0981,1.55461 -0.75467,3.01866 -1.56216,0.94333 -1.56216,0.94333 -3.01865,1.50933 0,0.49808 0,0.99615 0,1.50932 -2.61869,3.33562 -5.54679,5.06381 -9.71253,5.78828 -3.58466,0.26414 -7.16931,0.23394 -10.76906,0.19621 -1.32821,0 -2.65642,0.007 -3.99217,0.0151 -2.77717,0.007 -5.55433,0 -8.33905,-0.0301 -3.55446,-0.0301 -7.10138,-0.007 -10.65585,0.0226 -2.74697,0.0151 -5.49395,0.0151 -8.24094,0 -1.30556,-0.007 -2.61868,0 -3.92425,0.007 -11.48599,0.0905 -11.48599,0.0905 -15.01781,-3.30544 -1.7961,-2.27909 -1.7961,-2.27909 -1.7961,-4.20347 -0.49808,0 -0.99617,0 -1.50933,0 -1.2301,-1.88667 -1.2301,-1.88667 -2.264,-3.77333 0.71693,-0.76221 1.44141,-1.50932 2.16589,-2.26399 0.60373,-0.62637 0.60373,-0.62637 1.22255,-1.27538 1.13955,-0.98861 1.13955,-0.98861 2.64887,-0.98861 0,-0.49808 0,-0.99616 0,-1.50933 3.32053,-3.42617 5.75054,-4.33177 10.54267,-4.30913 z"
     fill="#000000"
     id="path10"
     style="stroke-width:0.754664" />
  <path
     d="m 393.06446,263.26179 c 1.88666,1.04144 1.88666,1.04144 3.77333,2.264 0,0.49808 0,0.99615 0,1.50932 0.49807,0 0.99615,0 1.50932,0 0.19621,5.57697 -0.14339,11.01056 -0.81503,16.54979 -0.48299,4.06009 -0.89805,8.12773 -1.27539,12.20292 -0.0679,0.80749 -0.0679,0.80749 -0.14338,1.63007 -0.20377,2.18853 -0.40752,4.38461 -0.60373,6.57313 -0.13585,1.55461 -0.27923,3.10922 -0.42262,4.65627 -0.0754,0.90561 -0.15848,1.8112 -0.24149,2.74698 -0.23394,2.11306 -0.61128,4.12802 -1.02634,6.20335 -0.10566,1.25274 -0.18112,2.50548 -0.24149,3.75822 -0.0453,0.70939 -0.0905,1.41877 -0.14339,2.14324 -0.0905,1.46406 -0.16603,2.92056 -0.2264,4.38461 -0.4528,6.43728 -2.9432,10.96527 -7.64475,15.37251 -2.61113,1.70553 -4.50535,2.07533 -7.59192,2.26399 -5.35057,-13.2519 -5.17699,-25.57557 -3.49409,-39.5444 0.39996,-3.39599 0.69429,-6.79198 0.97351,-10.19551 0.13584,-1.5999 0.27168,-3.19979 0.40752,-4.79213 0.0905,-1.05653 0.17357,-2.11306 0.24904,-3.16959 0.11319,-1.49423 0.24149,-2.98846 0.36978,-4.4827 0.10566,-1.30557 0.10566,-1.30557 0.21131,-2.63378 0.89805,-3.99217 3.57711,-6.29389 6.61086,-8.8522 1.46405,-1.2452 2.87527,-2.45267 4.19593,-3.84125 1.04144,-0.97352 1.04144,-0.97352 2.55077,-0.97352 0,-0.49808 0,-0.99615 0,-1.50932 1.50932,-1.22256 1.50932,-1.22256 3.01865,-2.264 z"
     fill="#000000"
     id="path11"
     style="stroke-width:0.754664" />
  <path
     d="m 557.58126,263.26179 c 0.74711,0.24904 1.49424,0.49808 2.26399,0.75467 0,0.49808 0,0.99615 0,1.50933 0.49808,0 0.99616,0 1.50933,0 1.63762,2.45266 1.698,3.16204 1.65271,5.99203 -0.007,0.64146 -0.0151,1.29047 -0.0151,1.95458 -0.12829,1.86402 -0.12829,1.86402 -0.49053,3.27524 -0.41507,1.70554 -0.59618,3.32807 -0.73957,5.0789 -0.0604,0.67919 -0.12075,1.36593 -0.18112,2.06777 -0.0604,0.73202 -0.12075,1.46405 -0.18112,2.21871 -0.0604,0.75467 -0.12829,1.50933 -0.19621,2.29418 -0.20376,2.41492 -0.39997,4.8374 -0.60374,7.25987 -0.20375,2.41493 -0.39996,4.82985 -0.60373,7.25232 -0.12829,1.50178 -0.25658,3.00357 -0.37733,4.50535 -0.0604,0.68674 -0.12074,1.37349 -0.18112,2.07533 -0.0679,0.89805 -0.0679,0.89805 -0.14338,1.81874 -0.21885,1.87157 -0.58109,3.68276 -0.95842,5.52414 -0.1283,1.21501 -0.23395,2.43002 -0.32451,3.65257 -0.0529,0.6792 -0.1132,1.3584 -0.16603,2.0527 -0.1132,1.41122 -0.21885,2.82244 -0.31695,4.22611 -0.57355,6.78443 -2.46021,11.74257 -7.49382,16.48187 -3.67522,2.39983 -3.67522,2.39983 -6.55048,1.93194 -0.86787,-0.2113 -0.86787,-0.2113 -1.75082,-0.42262 -5.75809,-16.8441 -5.44868,-37.90678 -1.08673,-55.26406 0.43771,-1.47159 0.43771,-1.47159 0.17358,-3.56956 -0.18112,-3.78086 -0.24149,-6.75424 2.03004,-9.85591 3.04885,-3.31297 6.45238,-6.53539 10.20307,-9.04088 0.49808,0 0.99615,0 1.50932,0 0,-0.49808 0,-0.99615 0,-1.50932 0.49809,0 0.99616,0 1.50933,0 0,-0.49809 0,-0.99616 0,-1.50933 0.49808,-0.24904 0.99616,-0.49808 1.50933,-0.75467 z"
     fill="#000000"
     id="path12"
     style="stroke-width:0.754664" />
  <path
     d="m 394.57379,177.23007 c 4.99588,0.56601 4.99588,0.56601 7.54665,2.264 0,0.49808 0,0.99615 0,1.50933 0.49807,0 0.99615,0 1.50932,0 6.12033,10.52756 2.03005,32.29963 -0.37733,44.12521 -0.48299,2.4602 -0.6792,4.90532 -0.89051,7.40325 -0.0981,1.06408 -0.18866,2.13571 -0.28677,3.19979 -0.14338,1.66781 -0.28677,3.3356 -0.42261,5.00341 -0.13584,1.62254 -0.27923,3.23752 -0.42261,4.86004 -0.083,0.96597 -0.16602,1.9244 -0.24904,2.92055 -0.47544,3.45637 -1.15463,6.22598 -3.24506,9.04088 -1.65271,1.17728 -1.65271,1.17728 -3.44881,1.26784 -2.74698,-1.17728 -4.67892,-3.01111 -6.50521,-5.37321 0,-0.49808 0,-0.99616 0,-1.50933 -0.49807,0 -0.99615,0 -1.50933,0 -2.88281,-2.87527 -5.11662,-5.53924 -5.65998,-9.62197 0.20376,-1.35085 0.43016,-2.69415 0.73202,-4.02236 0.5811,-3.22242 0.81505,-6.45237 1.07918,-9.71252 0.12829,-1.49424 0.25659,-2.98848 0.38488,-4.49026 0.20375,-2.34701 0.39997,-4.68646 0.59618,-7.03347 0.18867,-2.27153 0.38488,-4.54308 0.57354,-6.82216 0.0604,-0.68675 0.11321,-1.3735 0.17358,-2.08288 0.63391,-7.34288 1.53197,-14.07448 5.09398,-20.59479 0.39242,-0.75465 0.39242,-0.75465 0.7924,-1.51687 0.51317,-0.97352 1.02634,-1.94703 1.53951,-2.913 1.04144,-1.94704 2.01496,-3.92425 2.99602,-5.90148 z"
     fill="#000000"
     id="path13"
     style="stroke-width:0.754664" />
  <path
     d="m 272.31819,263.26179 c 1.98476,1.14709 3.65257,2.14325 5.28265,3.77332 0.58864,6.30145 -0.0453,12.67082 -0.80749,18.92698 -0.49053,4.02236 -0.9056,8.04472 -1.28293,12.08217 -0.0453,0.53581 -0.0981,1.07163 -0.14339,1.63008 -0.20376,2.19608 -0.40751,4.39214 -0.60372,6.58067 -0.13585,1.55461 -0.27923,3.10921 -0.42262,4.65628 -0.0754,0.9056 -0.15848,1.81119 -0.24149,2.74698 -0.23395,2.11306 -0.60373,4.12801 -1.02634,6.20334 -0.10566,1.13954 -0.18113,2.28663 -0.24149,3.43372 -0.92825,13.96883 -0.92825,13.96883 -5.79583,18.45154 -2.67905,2.2338 -4.73174,3.85634 -8.30131,3.62993 -0.49807,-0.20375 -0.99615,-0.39996 -1.50932,-0.61128 -0.78485,-2.25644 -1.52442,-4.52043 -2.264,-6.79197 -0.21885,-0.62638 -0.43015,-1.25275 -0.65655,-1.90175 -3.59221,-11.40298 -1.10181,-23.80212 0.30941,-35.42394 0.13584,-1.07918 0.26413,-2.15835 0.39243,-3.23751 0.0981,-0.77731 0.0981,-0.77731 0.19621,-1.57725 0.53581,-4.52044 0.80749,-9.03333 1.01125,-13.57641 0.44525,-4.1431 1.60743,-6.36182 4.78457,-9.04088 0.52827,-0.46034 1.05653,-0.91314 1.59989,-1.38104 1.41877,-1.02633 1.41877,-1.02633 2.92809,-1.02633 0,-0.49809 0,-0.99616 0,-1.50933 0.49809,0 0.99616,0 1.50933,0 0,-0.49808 0,-0.99616 0,-1.50933 1.15464,-1.13954 1.15464,-1.13954 2.64133,-2.35455 0.49053,-0.40753 0.98106,-0.81504 1.48669,-1.23765 0.37733,-0.30942 0.76221,-0.61883 1.15463,-0.93579 z"
     fill="#000000"
     id="path14"
     style="stroke-width:0.754664" />
  <path
     d="m 274.58219,177.23007 c 3.68275,0.3396 5.64488,1.18483 8.3013,3.77333 4.13556,5.177 3.05639,12.33121 2.4602,18.527 -0.0679,0.73203 -0.13583,1.47159 -0.20375,2.22626 -0.13584,1.53951 -0.27923,3.08658 -0.43016,4.62609 -0.2264,2.35455 -0.43771,4.71666 -0.64901,7.0712 -0.13585,1.50934 -0.27923,3.01112 -0.41507,4.5129 -0.0679,0.70183 -0.12829,1.40367 -0.19621,2.12815 -0.30186,3.12431 -0.68675,6.13542 -1.32066,9.20691 -0.20376,1.85647 -0.37733,3.71294 -0.54336,5.56942 -0.0981,1.07916 -0.19621,2.15833 -0.29432,3.23751 -0.14339,1.6829 -0.29432,3.37335 -0.44525,5.06379 -0.14339,1.63762 -0.29432,3.2677 -0.4377,4.90531 -0.0905,0.98108 -0.17358,1.95459 -0.26414,2.95829 -0.49053,4.21858 -0.49053,4.21858 -2.26399,5.72791 -0.48299,0.3245 -0.96597,0.649 -1.45651,0.98106 -0.48298,0.32451 -0.96596,0.65655 -1.46404,0.99615 -0.37733,0.24904 -0.74712,0.49054 -1.132,0.74713 -1.50933,-1.04144 -1.50933,-1.04144 -3.01866,-2.264 0,-0.49808 0,-0.99615 0,-1.50933 -0.49808,0 -0.99615,0 -1.50932,0 -1.30557,-1.26783 -1.30557,-1.26783 -2.73189,-2.92809 -0.48299,-0.53581 -0.95842,-1.07917 -1.44896,-1.63763 -1.1018,-1.47159 -1.1018,-1.47159 -1.1018,-2.98092 -0.49809,0 -0.99616,0 -1.50933,0 -1.25274,-1.04898 -1.25274,-1.04898 -2.264,-3.01866 -0.12829,-2.49794 0.18867,-4.92795 0.4679,-7.40326 0.083,-0.74711 0.15847,-1.50178 0.23394,-2.27153 0.17357,-1.65272 0.34715,-3.30544 0.52072,-4.96569 0.30942,-2.90546 0.5811,-5.81092 0.84523,-8.72392 0.14338,-1.54707 0.28677,-3.09412 0.43016,-4.64119 0.14338,-1.47914 0.27922,-2.96582 0.41506,-4.44497 1.71309,-17.89309 1.71309,-17.89309 5.29774,-24.85864 0.24904,-0.52827 0.50563,-1.05653 0.76976,-1.59989 1.5697,-3.18468 3.32807,-6.10523 5.35812,-9.01069 z"
     fill="#000000"
     id="path15"
     style="stroke-width:0.754664" />
  <path
     d="m 619.46373,263.26179 c 12.86701,10.354 12.86701,10.354 13.58394,16.60261 -0.12074,2.20362 -0.29431,4.35442 -0.53581,6.55049 -0.0604,0.63392 -0.12829,1.26784 -0.19621,1.92439 -0.20375,2.03005 -0.42261,4.06764 -0.63391,6.09769 -0.13585,1.33575 -0.27168,2.67152 -0.40753,4.00727 -0.33204,3.2526 -0.68674,6.49765 -1.04143,9.74271 -0.19622,1.81875 -0.37733,3.63748 -0.55845,5.46377 -0.1132,1.09426 -0.23394,2.18853 -0.34715,3.28279 -0.0981,0.95842 -0.19621,1.91685 -0.29431,2.89791 -0.51318,2.29418 -0.51318,2.29418 -1.69045,3.59975 -1.5848,0.89805 -3.09412,1.26783 -4.86004,1.71309 -1.8112,0.68674 -3.61484,1.38104 -5.42604,2.07533 -3.10167,1.13953 -5.59206,1.92438 -8.91258,1.69799 -0.0755,-5.01852 0.20376,-9.90874 0.70938,-14.90462 0.0604,-0.69429 0.1283,-1.38859 0.19622,-2.10551 0.51316,-5.22228 0.51316,-5.22228 0.97352,-7.26742 0.58108,-3.22997 0.70938,-6.47501 0.90559,-9.75026 0.15848,-2.29418 0.32451,-4.58836 0.49053,-6.89009 0.1132,-1.58479 0.21131,-3.16958 0.30187,-4.75438 0.13583,-2.30172 0.30941,-4.5959 0.48298,-6.89008 0.0302,-0.70184 0.0679,-1.40368 0.0981,-2.12815 0.35469,-4.0752 1.10181,-6.0675 4.21857,-8.81448 0.96597,-0.73203 1.93949,-1.46405 2.9432,-2.1508 z"
     fill="#000000"
     id="path16"
     style="stroke-width:0.754664" />
  <path
     d="m 621.72771,193.83268 c 6.875,0.25659 13.09342,3.18469 18.86661,6.79198 -0.38488,8.52771 -1.04898,16.95731 -2.06023,25.43219 -0.21131,1.80365 -0.39998,3.61484 -0.58109,5.42604 -0.0679,0.60372 -0.1283,1.20745 -0.19621,1.83382 -0.11321,1.15464 -0.23395,2.30173 -0.33961,3.45636 -0.36978,3.44883 -1.06407,6.58068 -2.10551,9.88611 -0.49808,0 -0.99615,0 -1.50933,0 0,0.49808 0,0.99616 0,1.50933 -1.05653,1.09426 -1.05653,1.09426 -2.55076,2.35455 -0.53581,0.46789 -1.07917,0.92824 -1.63763,1.40368 -3.10167,2.55831 -6.24107,5.07134 -9.39556,7.56174 -0.49809,-0.24905 -0.99616,-0.49809 -1.50933,-0.75467 0,-0.49808 0,-0.99616 0,-1.50933 -0.49808,0 -0.99616,0 -1.50933,0 -1.93949,-2.913 -1.5848,-5.09399 -1.36595,-8.4447 0.0529,-0.95841 0.0529,-0.95841 0.11321,-1.93193 0.41506,-6.60331 1.01879,-13.18399 1.63007,-19.76466 0.0529,-0.53581 0.0981,-1.07162 0.15094,-1.62253 0.14338,-1.53951 0.28677,-3.07903 0.4377,-4.61854 0.12829,-1.35085 0.12829,-1.35085 0.26413,-2.7168 0.2415,-2.09795 0.61883,-4.11291 1.0339,-6.1807 0.14338,-1.38102 0.27167,-2.75452 0.37733,-4.13555 0.0604,-0.76976 0.12074,-1.53952 0.18866,-2.33192 0.12829,-1.60743 0.24904,-3.22241 0.37733,-4.8374 0.0604,-0.7622 0.12075,-1.52441 0.18866,-2.31681 0.0529,-0.69429 0.10567,-1.39613 0.16603,-2.11306 0.21131,-1.62253 0.21131,-1.62253 0.96597,-2.3772 z"
     fill="#000000"
     id="path17"
     style="stroke-width:0.754664" />
  <path
     d="m 470.79487,193.83268 c 4.13556,0.31697 7.67494,0.85278 11.50864,2.55077 0.73202,0.31696 1.47159,0.63392 2.22626,0.95843 2.04513,0.9886 3.96198,2.08287 5.88637,3.28278 -0.10565,2.07533 -0.21885,4.15066 -0.33204,6.22599 -0.0302,0.58863 -0.0604,1.16972 -0.0905,1.781 -0.0453,0.85277 -0.0453,0.85277 -0.0905,1.72063 -0.0453,0.78485 -0.0453,0.78485 -0.083,1.5848 -0.15848,1.51687 -0.15848,1.51687 -0.52072,2.88282 -0.55844,2.33191 -0.70938,4.65628 -0.90559,7.04102 -0.0981,1.07162 -0.18867,2.1357 -0.28677,3.19977 -0.14339,1.67536 -0.28677,3.34317 -0.42261,5.01098 -0.13585,1.62252 -0.27923,3.2375 -0.42262,4.86003 -0.12829,1.44141 -0.12829,1.44141 -0.24904,2.92055 -0.72448,5.44867 -2.01494,8.78429 -6.02976,12.53498 -0.37733,0.36978 -0.75466,0.73956 -1.13955,1.12444 -2.7847,2.69415 -2.7847,2.69415 -4.52043,2.69415 0,0.49808 0,0.99616 0,1.50933 -1.15464,0.97352 -1.15464,0.97352 -2.64133,1.97722 -0.73202,0.50563 -0.73202,0.50563 -1.48669,1.02634 -0.37733,0.24905 -0.7622,0.50563 -1.15464,0.76977 -1.50932,-1.04144 -1.50932,-1.04144 -3.01865,-2.264 0,-0.49808 0,-0.99615 0,-1.50933 -0.49808,0 -0.99615,0 -1.50933,0 -0.2113,-6.23353 0.14339,-12.33122 0.70939,-18.53455 0.0604,-0.73202 0.12828,-1.4565 0.19621,-2.20362 0.28677,-2.98093 0.63391,-5.78827 1.3584,-8.69373 0.13583,-1.11691 0.25658,-2.24136 0.34714,-3.3658 0.0604,-0.66411 0.12075,-1.32066 0.18112,-1.99986 0.0604,-0.70184 0.12075,-1.41123 0.18112,-2.1357 0.12829,-1.48669 0.25658,-2.97338 0.39242,-4.46007 0.0679,-0.76221 0.1283,-1.52442 0.20376,-2.30927 0.33205,-3.76578 0.69429,-7.53155 1.04898,-11.29733 0.0679,-0.68674 0.13585,-1.38103 0.20377,-2.09041 0.15093,-1.5999 0.30941,-3.19224 0.46034,-4.79213 z"
     fill="#000000"
     id="path18"
     style="stroke-width:0.754664" />
  <path
     d="m 307.03274,193.83268 c 6.875,0.25659 13.09343,3.18469 18.86661,6.79198 -0.41506,8.48997 -1.10936,16.90449 -2.06024,25.34917 -0.20375,1.84893 -0.39996,3.7054 -0.58108,5.56188 -0.1283,1.19992 -0.24904,2.40737 -0.37734,3.61484 -0.0529,0.5509 -0.10565,1.09426 -0.15847,1.66026 -0.36979,3.44882 -1.07163,6.55803 -2.10552,9.84837 -0.49808,0 -0.99615,0 -1.50933,0 0,0.49808 0,0.99616 0,1.50933 -1.23764,1.27538 -1.23764,1.27538 -2.87527,2.6866 -0.79994,0.70184 -0.79994,0.70184 -1.62252,1.41877 -1.53953,1.17728 -1.53953,1.17728 -3.80351,1.93194 0,0.49808 0,0.99616 0,1.50933 -1.15464,0.97352 -1.15464,0.97352 -2.64133,1.97722 -0.73202,0.50563 -0.73202,0.50563 -1.48669,1.02634 -0.37733,0.24905 -0.76221,0.50563 -1.15463,0.76977 -1.50933,-1.50933 -3.01866,-3.01867 -4.52799,-4.528 0.007,-2.03759 0.0755,-4.05254 0.18867,-6.08259 0.0301,-0.64901 0.0679,-1.29047 0.0981,-1.96213 0.38488,-6.6184 0.98107,-13.22171 1.59989,-19.83257 0.0528,-0.53581 0.0981,-1.06407 0.15094,-1.61498 0.14338,-1.54706 0.28677,-3.08658 0.4377,-4.62609 0.12829,-1.35085 0.12829,-1.35085 0.26414,-2.7168 0.24148,-2.09795 0.61882,-4.11291 1.03388,-6.1807 0.14339,-1.38102 0.27168,-2.75452 0.37734,-4.13555 0.0604,-0.76976 0.12829,-1.53952 0.18866,-2.33192 0.12829,-1.60743 0.24904,-3.22241 0.37733,-4.8374 0.0604,-0.7622 0.1283,-1.52441 0.18867,-2.31681 0.0529,-0.69429 0.10565,-1.39613 0.16602,-2.11306 0.21131,-1.62253 0.21131,-1.62253 0.96597,-2.3772 z"
     fill="#000000"
     id="path19"
     style="stroke-width:0.754664" />
  <path
     d="m 152.32658,499.47169 c 18.92699,0 37.85396,0 57.35449,0 0,4.73174 0,9.46348 0,14.33861 -18.92699,0 -37.85396,0 -57.35449,0 0,-4.73174 0,-9.46348 0,-14.33861 z"
     fill="#000000"
     id="path20"
     style="stroke-width:0.754664" />
  <path
     d="m 472.3042,621.72728 c 6.22599,0 12.45196,0 18.86661,0 0.58109,2.89037 0.84522,4.30914 0.52826,7.03348 -0.0679,0.58863 -0.13584,1.18482 -0.20375,1.78855 -0.0755,0.60373 -0.15094,1.21501 -0.23395,1.83384 -0.0679,0.61882 -0.13585,1.2301 -0.20376,1.85647 -0.29432,2.50548 -0.59618,4.7091 -1.39613,7.10893 -6.22598,0 -12.45196,0 -18.86661,0 -0.64146,-2.56586 -0.81503,-3.69785 -0.52826,-6.1807 0.0679,-0.58863 0.13584,-1.17727 0.20376,-1.781 0.0755,-0.61128 0.15093,-1.22256 0.23394,-1.84893 0.0679,-0.61128 0.13585,-1.21501 0.20377,-1.84893 0.3245,-2.73943 0.72448,-5.2751 1.39612,-7.96171 z"
     fill="#000000"
     id="path21"
     style="stroke-width:0.754664" />
  <path
     d="m 416.45905,325.89893 c 3.00357,-0.0226 6.00713,-0.0378 9.01069,-0.0453 0.85278,-0.007 1.71309,-0.0151 2.59604,-0.0226 0.81505,0 1.63008,0 2.46776,-0.007 1.132,-0.007 1.132,-0.007 2.28663,-0.007 1.75082,0.083 1.75082,0.083 2.50549,0.83768 -0.0302,2.18099 -0.1132,4.33178 -0.23395,6.50521 -0.0301,0.60373 -0.0529,1.20746 -0.083,1.82628 -0.0301,0.58864 -0.0679,1.18483 -0.0981,1.78856 -0.0301,0.54336 -0.0604,1.07917 -0.0905,1.63007 -0.33205,2.42247 -1.08672,4.76948 -1.75836,7.11649 -6.47502,0 -12.95005,0 -19.62127,0 0.21885,-2.53567 0.4377,-5.07135 0.6641,-7.69003 0.0604,-0.79239 0.1283,-1.58479 0.19621,-2.39984 0.0529,-0.63391 0.1132,-1.26783 0.17357,-1.92438 0.0529,-0.64147 0.10566,-1.29048 0.16603,-1.94704 0.3396,-2.05269 0.98861,-3.76577 1.81874,-5.65998 z"
     fill="#000000"
     id="path22"
     style="stroke-width:0.754664" />
  <path
     d="m 593.05047,177.23007 c 6.22599,0 12.45196,0 18.86661,0 0.58109,2.89037 0.84523,4.30914 0.52826,7.03348 -0.0679,0.58864 -0.13583,1.18481 -0.20375,1.78855 -0.0755,0.60373 -0.15094,1.21501 -0.23395,1.83383 -0.0679,0.61883 -0.13584,1.23011 -0.20376,1.85648 -0.29432,2.50548 -0.59618,4.7091 -1.39613,7.10893 -6.22597,0 -12.45196,0 -18.86661,0 -0.64146,-2.56586 -0.81503,-3.69785 -0.52826,-6.1807 0.0679,-0.58863 0.13584,-1.17727 0.20376,-1.78101 0.0755,-0.61128 0.15093,-1.22255 0.23394,-1.84892 0.0679,-0.61128 0.13585,-1.21501 0.20377,-1.84893 0.3245,-2.73943 0.72448,-5.2751 1.39612,-7.96171 z"
     fill="#000000"
     id="path23"
     style="stroke-width:0.754664" />
</svg>
