<?xml version="1.0" encoding="UTF-8"?>
<!-- Generator: visioncortex VTracer 0.6.3 -->
<svg version="1.1" xmlns="http://www.w3.org/2000/svg" width="1280" height="1280">
<path d="M0 0 C1.44 -0 2.88 -0.01 4.32 -0.01 C8.28 -0.02 12.25 -0.02 16.21 -0.02 C20.52 -0.01 24.83 -0.02 29.14 -0.03 C36.69 -0.04 44.24 -0.05 51.8 -0.05 C63.03 -0.04 74.27 -0.06 85.5 -0.07 C107.9 -0.09 130.3 -0.1 152.7 -0.11 C154.44 -0.11 154.44 -0.11 156.22 -0.11 C157.38 -0.11 158.54 -0.11 159.74 -0.11 C172.62 -0.11 185.5 -0.12 198.38 -0.12 C237.29 -0.14 276.19 -0.16 315.09 -0.16 C316.33 -0.16 317.58 -0.16 318.86 -0.16 C323.9 -0.16 328.95 -0.16 333.99 -0.16 C337.78 -0.16 341.58 -0.17 345.38 -0.17 C346.63 -0.17 347.88 -0.17 349.18 -0.17 C388.59 -0.17 427.99 -0.19 467.4 -0.23 C511.67 -0.27 555.94 -0.29 600.2 -0.29 C604.93 -0.29 609.65 -0.29 614.37 -0.29 C615.53 -0.29 616.69 -0.29 617.89 -0.29 C636.59 -0.29 655.3 -0.31 674 -0.33 C692.8 -0.36 711.6 -0.36 730.41 -0.35 C741.57 -0.34 752.74 -0.34 763.91 -0.37 C771.37 -0.39 778.84 -0.38 786.3 -0.37 C790.55 -0.36 794.8 -0.35 799.05 -0.38 C802.93 -0.39 806.8 -0.39 810.68 -0.37 C812.71 -0.36 814.74 -0.38 816.77 -0.4 C829.72 -0.28 842 3.19 852.91 10.26 C854.52 11.22 854.52 11.22 856.16 12.2 C859.31 14.56 861.48 17.18 863.91 20.26 C864.56 20.89 865.2 21.51 865.87 22.16 C877.42 34.06 880.22 50.53 880.17 66.35 C880.17 67.79 880.18 69.23 880.18 70.67 C880.19 74.63 880.19 78.6 880.19 82.56 C880.18 86.87 880.19 91.18 880.2 95.49 C880.21 103.04 880.22 110.59 880.22 118.15 C880.22 129.38 880.23 140.62 880.24 151.85 C880.26 174.25 880.27 196.65 880.28 219.05 C880.28 220.21 880.28 221.37 880.28 222.57 C880.28 223.73 880.28 224.89 880.28 226.09 C880.28 238.97 880.29 251.85 880.29 264.73 C880.31 303.63 880.33 342.54 880.33 381.44 C880.33 382.68 880.33 383.93 880.33 385.21 C880.33 390.25 880.33 395.3 880.34 400.34 C880.34 404.13 880.34 407.93 880.34 411.73 C880.34 412.98 880.34 414.23 880.34 415.53 C880.34 454.93 880.36 494.34 880.4 533.75 C880.44 578.02 880.46 622.29 880.46 666.55 C880.46 671.27 880.46 676 880.46 680.72 C880.46 681.88 880.46 683.04 880.46 684.24 C880.46 702.94 880.48 721.65 880.5 740.35 C880.53 759.15 880.53 777.95 880.52 796.76 C880.51 807.92 880.51 819.09 880.54 830.26 C880.56 837.72 880.55 845.19 880.54 852.65 C880.53 856.9 880.53 861.15 880.55 865.4 C880.57 869.28 880.56 873.15 880.54 877.03 C880.53 879.06 880.55 881.09 880.57 883.12 C880.45 896.06 876.98 908.35 869.91 919.26 C869.27 920.33 868.63 921.41 867.97 922.51 C865.61 925.66 862.99 927.82 859.91 930.26 C858.97 931.23 858.97 931.23 858.01 932.22 C846.11 943.77 829.64 946.57 813.82 946.52 C812.38 946.52 810.94 946.53 809.5 946.53 C805.54 946.54 801.58 946.54 797.61 946.54 C793.3 946.53 788.99 946.54 784.68 946.55 C777.13 946.56 769.58 946.57 762.02 946.57 C750.79 946.56 739.55 946.58 728.32 946.59 C705.92 946.61 683.52 946.62 661.12 946.63 C659.96 946.63 658.8 946.63 657.6 946.63 C656.44 946.63 655.28 946.63 654.08 946.63 C641.2 946.63 628.32 946.64 615.44 946.64 C576.54 946.66 537.63 946.68 498.73 946.68 C496.87 946.68 496.87 946.68 494.96 946.68 C489.92 946.68 484.88 946.68 479.83 946.68 C476.04 946.69 472.24 946.69 468.44 946.69 C467.19 946.69 465.94 946.69 464.64 946.69 C425.24 946.69 385.83 946.71 346.42 946.75 C302.15 946.79 257.88 946.81 213.62 946.81 C208.9 946.81 204.17 946.81 199.45 946.81 C198.29 946.81 197.13 946.81 195.93 946.81 C177.23 946.81 158.52 946.83 139.82 946.85 C121.02 946.88 102.22 946.88 83.42 946.87 C72.25 946.86 61.08 946.86 49.91 946.89 C42.45 946.91 34.98 946.9 27.52 946.89 C23.27 946.88 19.02 946.88 14.77 946.9 C10.89 946.91 7.02 946.91 3.14 946.89 C1.11 946.88 -0.92 946.9 -2.95 946.92 C-15.89 946.8 -28.17 943.33 -39.09 936.26 C-40.16 935.62 -41.23 934.98 -42.34 934.32 C-45.49 931.96 -47.65 929.34 -50.09 926.26 C-50.74 925.63 -51.38 925.01 -52.05 924.36 C-63.6 912.46 -66.4 895.99 -66.35 880.17 C-66.35 878.73 -66.36 877.29 -66.36 875.85 C-66.37 871.89 -66.37 867.92 -66.37 863.96 C-66.36 859.65 -66.37 855.34 -66.38 851.03 C-66.39 843.48 -66.4 835.93 -66.4 828.37 C-66.39 817.14 -66.4 805.9 -66.42 794.67 C-66.44 772.27 -66.45 749.87 -66.46 727.47 C-66.46 726.31 -66.46 725.15 -66.46 723.95 C-66.46 722.21 -66.46 722.21 -66.46 720.43 C-66.46 707.55 -66.47 694.67 -66.47 681.79 C-66.49 642.89 -66.51 603.98 -66.51 565.08 C-66.51 563.84 -66.51 562.59 -66.51 561.31 C-66.51 556.27 -66.51 551.23 -66.51 546.18 C-66.51 542.39 -66.51 538.59 -66.52 534.79 C-66.52 533.54 -66.52 532.29 -66.52 530.99 C-66.52 491.59 -66.54 452.18 -66.58 412.77 C-66.62 368.5 -66.64 324.23 -66.64 279.97 C-66.64 275.25 -66.64 270.52 -66.64 265.8 C-66.64 264.64 -66.64 263.48 -66.64 262.28 C-66.64 243.58 -66.66 224.87 -66.68 206.17 C-66.71 187.37 -66.71 168.57 -66.7 149.77 C-66.69 138.6 -66.69 127.43 -66.72 116.26 C-66.73 108.8 -66.73 101.33 -66.72 93.87 C-66.71 89.62 -66.7 85.37 -66.73 81.12 C-66.74 77.24 -66.74 73.37 -66.72 69.49 C-66.71 67.46 -66.73 65.43 -66.75 63.4 C-66.63 50.46 -63.16 38.18 -56.09 27.26 C-55.45 26.19 -54.81 25.12 -54.15 24.01 C-51.79 20.86 -49.17 18.7 -46.09 16.26 C-45.46 15.61 -44.84 14.97 -44.19 14.3 C-32.29 2.75 -15.82 -0.05 0 0 Z M-34.09 30.26 C-34.09 30.92 -34.09 31.58 -34.09 32.26 C-34.67 32.47 -35.24 32.67 -35.84 32.89 C-41.66 36.44 -44.07 44.05 -46.09 50.26 C-46.89 54.34 -47.21 58.19 -47.22 62.34 C-47.22 63.55 -47.22 64.76 -47.22 66 C-47.22 67.32 -47.22 68.64 -47.22 70 C-47.22 71.42 -47.22 72.85 -47.22 74.28 C-47.23 78.21 -47.23 82.14 -47.22 86.08 C-47.22 90.35 -47.23 94.63 -47.23 98.9 C-47.24 106.39 -47.24 113.89 -47.24 121.39 C-47.23 132.53 -47.24 143.68 -47.24 154.82 C-47.25 175.89 -47.26 196.95 -47.26 218.01 C-47.26 234.27 -47.26 250.54 -47.26 266.8 C-47.26 271.48 -47.26 276.15 -47.26 280.83 C-47.27 281.99 -47.27 283.16 -47.27 284.36 C-47.27 317.07 -47.28 349.79 -47.28 382.51 C-47.28 383.74 -47.28 384.97 -47.28 386.25 C-47.28 392.5 -47.28 398.76 -47.27 405.01 C-47.27 406.25 -47.27 407.49 -47.27 408.77 C-47.27 411.29 -47.27 413.8 -47.27 416.31 C-47.27 455.4 -47.28 494.5 -47.3 533.59 C-47.31 577.49 -47.32 621.39 -47.32 665.28 C-47.32 669.96 -47.32 674.64 -47.32 679.32 C-47.32 680.47 -47.32 681.62 -47.32 682.81 C-47.32 701.37 -47.32 719.93 -47.33 738.49 C-47.34 757.13 -47.34 775.78 -47.34 794.42 C-47.33 805.5 -47.33 816.59 -47.34 827.67 C-47.35 835.07 -47.35 842.47 -47.34 849.87 C-47.34 854.08 -47.34 858.3 -47.34 862.52 C-47.35 866.36 -47.35 870.2 -47.34 874.03 C-47.34 876.06 -47.35 878.09 -47.35 880.12 C-47.3 892.69 -45.18 904.85 -36.09 914.26 C-35.43 914.26 -34.77 914.26 -34.09 914.26 C-33.88 914.84 -33.68 915.42 -33.46 916.01 C-29.91 921.83 -22.3 924.24 -16.09 926.26 C-12.01 927.06 -8.16 927.39 -4.01 927.39 C-2.8 927.39 -1.59 927.39 -0.35 927.39 C0.97 927.39 2.29 927.39 3.65 927.39 C5.08 927.39 6.5 927.39 7.93 927.39 C11.86 927.4 15.79 927.4 19.73 927.39 C24 927.39 28.28 927.4 32.55 927.4 C40.05 927.41 47.54 927.41 55.04 927.41 C66.18 927.4 77.33 927.41 88.47 927.41 C109.54 927.42 130.6 927.43 151.66 927.43 C167.92 927.43 184.19 927.43 200.45 927.43 C205.13 927.43 209.8 927.43 214.48 927.44 C216.23 927.44 216.23 927.44 218.01 927.44 C250.72 927.44 283.44 927.45 316.16 927.45 C318.01 927.45 318.01 927.45 319.9 927.45 C326.15 927.45 332.41 927.45 338.66 927.45 C340.52 927.45 340.52 927.45 342.42 927.45 C344.94 927.45 347.45 927.45 349.96 927.45 C389.05 927.44 428.15 927.45 467.24 927.47 C511.14 927.48 555.04 927.49 598.93 927.49 C603.61 927.49 608.29 927.49 612.97 927.49 C614.12 927.49 615.27 927.49 616.46 927.49 C635.02 927.49 653.58 927.5 672.14 927.5 C690.78 927.51 709.43 927.51 728.07 927.51 C739.15 927.5 750.24 927.5 761.32 927.51 C768.72 927.52 776.12 927.52 783.52 927.51 C787.73 927.51 791.95 927.51 796.17 927.52 C800.01 927.52 803.85 927.52 807.68 927.51 C809.71 927.51 811.74 927.52 813.77 927.52 C826.34 927.47 838.5 925.35 847.91 916.26 C847.91 915.6 847.91 914.94 847.91 914.26 C848.49 914.05 849.07 913.85 849.66 913.64 C855.48 910.08 857.89 902.47 859.91 896.26 C860.71 892.18 861.04 888.33 861.04 884.18 C861.04 882.97 861.04 881.76 861.05 880.52 C861.04 878.54 861.04 878.54 861.04 876.52 C861.04 875.1 861.04 873.67 861.04 872.24 C861.05 868.31 861.05 864.38 861.05 860.44 C861.04 856.17 861.05 851.89 861.05 847.62 C861.06 840.13 861.06 832.63 861.06 825.13 C861.06 813.99 861.06 802.84 861.06 791.7 C861.07 770.63 861.08 749.57 861.08 728.51 C861.08 712.25 861.08 695.98 861.08 679.72 C861.08 675.04 861.09 670.37 861.09 665.69 C861.09 664.53 861.09 663.36 861.09 662.16 C861.09 629.45 861.1 596.73 861.1 564.01 C861.1 562.78 861.1 561.55 861.1 560.27 C861.1 554.02 861.1 547.76 861.1 541.51 C861.1 540.27 861.1 539.03 861.1 537.75 C861.1 535.23 861.1 532.72 861.1 530.21 C861.1 491.12 861.1 452.02 861.12 412.93 C861.13 369.03 861.14 325.14 861.14 281.24 C861.14 276.56 861.14 271.88 861.14 267.2 C861.14 266.05 861.14 264.9 861.14 263.71 C861.14 245.15 861.15 226.59 861.15 208.03 C861.16 189.39 861.16 170.74 861.16 152.1 C861.15 141.02 861.16 129.93 861.16 118.85 C861.17 111.45 861.17 104.05 861.16 96.66 C861.16 92.44 861.16 88.22 861.17 84 C861.17 80.16 861.17 76.32 861.16 72.49 C861.16 70.46 861.17 68.43 861.17 66.4 C861.13 53.83 859 41.67 849.91 32.26 C849.25 32.26 848.59 32.26 847.91 32.26 C847.7 31.68 847.5 31.11 847.29 30.51 C843.73 24.69 836.12 22.28 829.91 20.26 C825.83 19.46 821.98 19.13 817.83 19.13 C816.02 19.13 816.02 19.13 814.17 19.13 C812.85 19.13 811.53 19.13 810.17 19.13 C808.75 19.13 807.32 19.13 805.89 19.13 C801.96 19.12 798.03 19.12 794.09 19.13 C789.82 19.13 785.55 19.12 781.27 19.12 C773.78 19.11 766.28 19.11 758.79 19.11 C747.64 19.12 736.49 19.11 725.35 19.11 C704.29 19.1 683.22 19.09 662.16 19.09 C645.9 19.09 629.63 19.09 613.37 19.09 C608.69 19.09 604.02 19.09 599.34 19.08 C598.18 19.08 597.01 19.08 595.81 19.08 C563.1 19.08 530.38 19.07 497.66 19.07 C496.43 19.07 495.2 19.07 493.92 19.07 C487.67 19.07 481.42 19.07 475.16 19.07 C473.92 19.07 472.68 19.07 471.4 19.07 C468.88 19.07 466.37 19.07 463.86 19.07 C424.77 19.08 385.68 19.07 346.58 19.05 C302.68 19.04 258.79 19.03 214.89 19.03 C210.21 19.03 205.53 19.03 200.85 19.03 C199.12 19.03 199.12 19.03 197.36 19.03 C178.8 19.03 160.24 19.03 141.68 19.02 C123.04 19.01 104.39 19.01 85.75 19.01 C74.67 19.02 63.58 19.02 52.5 19.01 C45.1 19 37.7 19 30.31 19.01 C26.09 19.01 21.87 19.01 17.65 19 C13.81 19 9.97 19 6.14 19.01 C4.11 19.01 2.08 19 0.05 19 C-12.52 19.05 -24.68 21.17 -34.09 30.26 Z " fill="#000000" transform="translate(233.08951568603516,166.7399377822876)"/>
<path d="M0 0 C0.91 0 1.82 0.01 2.75 0.01 C4.11 0 4.11 0 5.5 0 C7.75 0.13 7.75 0.13 8.75 1.13 C8.84 3.94 8.87 6.73 8.85 9.54 C8.85 10.29 8.85 11.03 8.84 11.8 C8.84 14.6 8.83 17.4 8.81 20.2 C8.79 26.44 8.77 32.69 8.75 39.13 C21.62 39.13 34.49 39.13 47.75 39.13 C47.75 43.09 47.75 47.05 47.75 51.13 C34.88 51.13 22.01 51.13 8.75 51.13 C8.79 63.92 8.79 63.92 8.84 76.71 C8.84 78.31 8.85 79.91 8.85 81.5 C8.85 82.34 8.86 83.18 8.86 84.04 C8.86 86.07 8.81 88.1 8.75 90.13 C7.75 91.13 7.75 91.13 5.5 91.27 C4.59 91.26 3.68 91.26 2.75 91.26 C1.39 91.26 1.39 91.26 0 91.27 C-2.25 91.13 -2.25 91.13 -3.25 90.13 C-3.34 87.25 -3.37 84.39 -3.35 81.5 C-3.35 80.74 -3.35 79.97 -3.34 79.18 C-3.34 76.31 -3.33 73.44 -3.31 70.57 C-3.28 60.95 -3.28 60.95 -3.25 51.13 C-16.45 51.13 -29.65 51.13 -43.25 51.13 C-43.25 47.17 -43.25 43.21 -43.25 39.13 C-30.05 39.13 -16.85 39.13 -3.25 39.13 C-3.29 26.67 -3.29 26.67 -3.34 14.21 C-3.34 12.66 -3.35 11.1 -3.35 9.54 C-3.35 8.73 -3.36 7.91 -3.36 7.07 C-3.36 5.09 -3.31 3.11 -3.25 1.13 C-2.25 0.13 -2.25 0.13 0 0 Z " fill="#000000" transform="translate(922.25,619.8671875)"/>
<path d="M0 0 C1.16 -0 1.16 -0 2.34 -0 C4.87 0 7.39 0.03 9.92 0.06 C11.68 0.07 13.44 0.08 15.2 0.08 C19.82 0.1 24.44 0.14 29.06 0.18 C33.77 0.22 38.49 0.24 43.21 0.26 C52.46 0.3 61.71 0.37 70.95 0.45 C68.82 7.7 65.73 13.92 61.95 20.45 C53.9 20.62 45.85 20.74 37.8 20.82 C34.06 20.85 30.32 20.9 26.58 20.98 C-5.23 21.65 -5.23 21.65 -19.05 13.45 C-17.85 8.33 -16.39 5.37 -11.93 2.33 C-8.02 0.19 -4.4 -0.09 0 0 Z " fill="#000000" transform="translate(798.046630859375,334.5458984375)"/>
<path d="M0 0 C1.16 -0 1.16 -0 2.34 -0 C4.87 0 7.39 0.04 9.92 0.08 C11.68 0.09 13.44 0.1 15.2 0.1 C19.82 0.12 24.44 0.17 29.06 0.22 C33.77 0.28 38.49 0.3 43.21 0.32 C52.46 0.38 61.71 0.46 70.95 0.57 C70.16 5.07 68.54 8.78 66.45 12.82 C66.13 13.45 65.81 14.09 65.48 14.75 C63.11 19.41 63.11 19.41 61.95 20.57 C60.08 20.7 58.2 20.76 56.33 20.79 C55.12 20.81 53.91 20.84 52.67 20.86 C47.08 20.93 41.49 20.99 35.9 21.03 C32.96 21.05 30.03 21.09 27.1 21.15 C-5.18 21.79 -5.18 21.79 -18.05 13.57 C-18.38 12.91 -18.71 12.25 -19.05 11.57 C-14.49 3.73 -9.35 -0.24 0 0 Z " fill="#000000" transform="translate(648.046630859375,334.432373046875)"/>
<path d="M0 0 C3.74 0.06 7.48 0.09 11.22 0.12 C18.52 0.18 25.81 0.28 33.1 0.41 C35.57 6.64 37.41 12.92 39.1 19.41 C28.75 19.48 18.41 19.53 8.06 19.57 C3.26 19.58 -1.54 19.6 -6.35 19.64 C-10.98 19.67 -15.62 19.69 -20.25 19.7 C-22.02 19.7 -23.79 19.71 -25.56 19.73 C-28.04 19.75 -30.51 19.75 -32.99 19.75 C-33.72 19.76 -34.45 19.77 -35.2 19.79 C-39.63 19.76 -42.37 19.09 -45.9 16.41 C-48.17 13.9 -49.45 11.79 -49.9 8.41 C-48.04 4.68 -43.31 3.8 -39.55 2.49 C-26.87 -1.34 -13.12 -0.24 0 0 Z " fill="#000000" transform="translate(813.9039306640625,483.5880126953125)"/>
<path d="M0 0 C0.69 -0 1.39 -0 2.1 -0 C4.37 0 6.65 0.02 8.92 0.05 C10.5 0.05 12.08 0.06 13.67 0.06 C17.82 0.07 21.97 0.1 26.13 0.13 C30.37 0.17 34.61 0.18 38.86 0.19 C47.17 0.23 55.49 0.28 63.8 0.34 C63.09 5.29 61.75 8.77 59.3 13.15 C58.36 14.86 58.36 14.86 57.4 16.61 C55.8 19.34 55.8 19.34 54.8 20.34 C53.14 20.47 51.48 20.53 49.82 20.57 C48.75 20.59 47.68 20.61 46.59 20.63 C41.64 20.7 36.68 20.76 31.73 20.8 C29.14 20.83 26.55 20.87 23.95 20.92 C8.46 21.25 -4.47 21.04 -18.2 13.34 C-17.45 8.91 -16.38 6.61 -13.2 3.34 C-8.64 0.59 -5.29 -0.03 0 0 Z " fill="#000000" transform="translate(484.19873046875,334.659423828125)"/>
<path d="M0 0 C1.2 -0.03 2.4 -0.05 3.63 -0.08 C4.92 -0.08 6.2 -0.09 7.53 -0.09 C8.87 -0.1 10.22 -0.12 11.56 -0.13 C14.37 -0.16 17.19 -0.16 20 -0.16 C23.59 -0.16 27.18 -0.21 30.77 -0.28 C33.54 -0.33 36.32 -0.34 39.09 -0.33 C41.05 -0.34 43.02 -0.38 44.98 -0.43 C53.64 -0.34 53.64 -0.34 57.36 2.28 C60.7 5.89 61.94 7.54 61.94 12.58 C59.88 16.05 57.33 18.4 53.94 20.58 C49.18 21.75 44.55 21.73 39.66 21.68 C38.28 21.69 36.9 21.7 35.52 21.71 C32.63 21.73 29.75 21.71 26.86 21.68 C23.18 21.64 19.51 21.68 15.83 21.73 C12.98 21.77 10.13 21.77 7.28 21.75 C5.27 21.74 3.26 21.77 1.25 21.81 C-7.72 21.62 -7.72 21.62 -11.72 18.5 C-13.7 16.28 -15.44 14.08 -17.06 11.58 C-7.57 0.11 -7.57 0.11 0 0 Z " fill="#000000" transform="translate(484.05615234375,408.4189453125)"/>
<path d="M0 0 C1.79 -0.04 1.79 -0.04 3.61 -0.09 C8.38 -0.17 13.14 -0.25 17.91 -0.29 C21.52 -0.33 25.13 -0.38 28.74 -0.48 C32.24 -0.57 35.73 -0.62 39.23 -0.64 C41.2 -0.66 43.17 -0.72 45.14 -0.79 C52.07 -0.77 55.79 -0.18 60.82 4.81 C62.06 6.26 63.28 7.74 64.43 9.26 C62.72 13.02 60.74 14.76 57.43 17.26 C56.79 18.04 56.79 18.04 56.14 18.85 C53.65 20.9 51.72 20.68 48.52 20.74 C47.31 20.77 46.09 20.8 44.84 20.83 C43.53 20.84 42.21 20.85 40.86 20.87 C39.49 20.88 38.12 20.9 36.76 20.92 C33.89 20.95 31.02 20.97 28.15 20.98 C24.5 20.99 20.84 21.07 17.18 21.15 C14.36 21.21 11.53 21.22 8.71 21.23 C6.71 21.24 4.71 21.3 2.71 21.35 C-6.25 21.29 -6.25 21.29 -10.23 18.19 C-12.22 15.96 -13.95 13.76 -15.57 11.26 C-14.42 7.82 -13.3 6.92 -10.57 4.63 C-9.85 4.02 -9.13 3.41 -8.38 2.78 C-7.78 2.28 -7.19 1.77 -6.57 1.26 C-4.82 -0.49 -2.38 0.06 0 0 Z " fill="#000000" transform="translate(646.5703125,408.74365234375)"/>
<path d="M0 0 C2.5 1.57 2.5 1.57 5 4 C5.38 7.05 5.38 7.05 5 10.88 C4.91 11.95 4.91 11.95 4.81 13.05 C4.66 14.72 4.49 16.39 4.31 18.05 C3.96 21.42 3.64 24.79 3.32 28.16 C2.7 34.61 2.04 41.06 1.36 47.51 C1.04 50.57 0.75 53.63 0.46 56.69 C0.31 58.27 0.16 59.85 0 61.44 C-0.06 62.12 -0.12 62.81 -0.18 63.51 C-0.72 68.79 -2.03 73.54 -5.39 77.74 C-8.95 80.58 -11.56 81.42 -16 82 C-16.7 80.01 -17.35 78.01 -18 76 C-18.37 74.89 -18.74 73.77 -19.12 72.62 C-20.74 65.9 -20.22 58.86 -20 52 C-19.96 50.86 -19.96 50.86 -19.93 49.7 C-19.75 44.88 -19.46 40.08 -19.06 35.27 C-18.94 33.63 -18.84 31.98 -18.77 30.34 C-18.35 21.32 -17.54 14.66 -10.89 8.12 C-4.04 2.02 -4.04 2.02 0 0 Z " fill="#000000" transform="translate(551,421)"/>
<path d="M0 0 C4.86 0.74 6.77 2.24 10 6 C12.29 9.51 12.1 12.09 11.71 16.2 C11.61 17.44 11.5 18.69 11.38 19.97 C11.32 20.63 11.26 21.29 11.19 21.97 C11 24 10.83 26.02 10.66 28.05 C9.84 38.04 8.92 48.02 8 58 C7.91 59.04 7.81 60.07 7.71 61.14 C7.49 63.53 7.25 65.92 7 68.31 C6.88 69.53 6.75 70.74 6.62 71.99 C5.94 75.28 5.04 77.33 3 80 C0.81 81.31 0.81 81.31 -1 82 C-2.63 80.4 -4.25 78.79 -5.88 77.19 C-6.78 76.29 -7.68 75.4 -8.62 74.48 C-11.84 71.13 -12.98 69.83 -13.08 65.1 C-13.01 63.42 -12.92 61.74 -12.81 60.06 C-12.76 59.15 -12.71 58.25 -12.66 57.31 C-12.16 49.3 -11.47 41.3 -10.69 33.31 C-10.58 32.14 -10.48 30.98 -10.37 29.77 C-9.62 22.58 -8.11 16.53 -5 10 C-4.51 8.96 -4.02 7.91 -3.52 6.84 C-3.1 6.02 -2.68 5.21 -2.25 4.38 C-1.82 3.54 -1.39 2.7 -0.95 1.84 C-0.64 1.23 -0.32 0.62 0 0 Z " fill="#000000" transform="translate(552,335)"/>
<path d="M0 0 C3.16 1.37 3.99 1.99 6 5 C6.02 7.34 6.02 7.34 5.71 10.16 C5.6 11.23 5.49 12.31 5.38 13.41 C5.25 14.6 5.13 15.78 5 17 C4.78 19.62 4.56 22.25 4.35 24.87 C2.17 51.01 2.17 51.01 0.5 63.31 C0.34 64.55 0.34 64.55 0.18 65.82 C-0.66 71.58 -2.15 75.2 -6.31 79.25 C-9.3 81.2 -11.51 81.52 -15 82 C-15.69 79.8 -16.35 77.59 -17 75.38 C-17.37 74.15 -17.74 72.92 -18.12 71.65 C-20.6 60.87 -18.86 49.14 -17.83 38.23 C-17.62 36.04 -17.43 33.85 -17.24 31.66 C-17.11 30.24 -16.98 28.83 -16.85 27.41 C-16.68 25.53 -16.68 25.53 -16.5 23.6 C-15.06 13.27 -15.06 13.27 -11 9.73 C-10.42 9.21 -9.84 8.7 -9.25 8.17 C-8.65 7.66 -8.05 7.15 -7.44 6.62 C-6.83 6.09 -6.23 5.56 -5.61 5.01 C-4.08 3.66 -2.54 2.33 -1 1 C-0.67 0.67 -0.34 0.34 0 0 Z " fill="#000000" transform="translate(430,421)"/>
<path d="M0 0 C3.45 1.15 4.21 1.91 6 5 C6.14 7.26 6.14 7.26 5.81 9.91 C5.69 10.97 5.57 12.03 5.45 13.12 C5.3 14.4 5.15 15.68 5 17 C4.77 19.48 4.55 21.96 4.33 24.44 C4.01 28.16 3.67 31.89 3.33 35.62 C3.15 37.54 2.98 39.46 2.8 41.38 C0.03 72.41 0.03 72.41 -5 78 C-8.75 80.97 -10.16 82 -15 82 C-21.58 65.75 -19.69 50.02 -17.5 33.09 C-17.15 30.36 -16.89 27.64 -16.7 24.89 C-16.05 17.43 -15.27 12.73 -9.49 7.71 C-8.44 6.89 -8.44 6.89 -7.38 6.06 C-6.32 5.16 -6.32 5.16 -5.23 4.24 C-3.52 2.79 -1.78 1.38 0 0 Z " fill="#000000" transform="translate(714,421)"/>
<path d="M0 0 C3.42 0.29 4.96 0.97 7.69 3.12 C12.03 8.52 12.26 13.82 11.61 20.52 C11.55 21.22 11.48 21.92 11.42 22.64 C11.21 24.89 10.98 27.13 10.75 29.38 C10.6 30.92 10.46 32.47 10.31 34.01 C9.46 42.9 8.54 51.78 7.39 60.64 C7 63.99 6.84 67.31 6.69 70.69 C6.31 76.01 4.9 78.4 1 82 C-2.07 80.63 -4.16 79.09 -6.5 76.69 C-7.07 76.11 -7.63 75.54 -8.22 74.95 C-8.81 74.31 -9.39 73.66 -10 73 C-10.71 72.33 -11.41 71.66 -12.14 70.97 C-14.82 66.69 -14.14 63.48 -13.55 58.61 C-13.46 57.7 -13.37 56.79 -13.27 55.86 C-12.97 52.97 -12.64 50.08 -12.31 47.19 C-12.11 45.25 -11.91 43.32 -11.71 41.39 C-11.25 37.02 -10.77 32.66 -10.27 28.29 C-10.09 26.78 -9.93 25.27 -9.77 23.76 C-9.38 20.12 -8.9 17.04 -7.19 13.79 C-6.83 13.1 -6.48 12.41 -6.12 11.71 C-5.75 11.02 -5.38 10.33 -5 9.62 C-4.45 8.56 -4.45 8.56 -3.88 7.47 C-2.93 5.64 -1.97 3.82 -1 2 C-0.67 1.34 -0.34 0.68 0 0 Z " fill="#000000" transform="translate(432,335)"/>
<path d="M0 0 C3.39 0.06 6.77 0.09 10.16 0.12 C16.76 0.18 23.35 0.28 29.95 0.41 C30.78 3.2 31.62 5.99 32.45 8.79 C32.8 9.98 32.8 9.98 33.17 11.19 C33.39 11.95 33.62 12.71 33.85 13.5 C34.17 14.55 34.17 14.55 34.49 15.62 C34.95 17.41 34.95 17.41 34.95 19.41 C25.51 19.48 16.08 19.53 6.65 19.57 C2.27 19.58 -2.11 19.6 -6.49 19.64 C-10.72 19.67 -14.94 19.69 -19.17 19.7 C-20.78 19.7 -22.39 19.71 -24.01 19.73 C-26.27 19.75 -28.53 19.75 -30.79 19.75 C-32.07 19.76 -33.36 19.77 -34.68 19.77 C-38.32 19.38 -40.16 18.59 -43.05 16.41 C-45.13 13.79 -46.06 12.31 -46.04 8.95 C-45.05 6.41 -45.05 6.41 -42.29 4.62 C-28.66 -1.05 -14.51 -0.3 0 0 Z " fill="#000000" transform="translate(497.05389404296875,483.5880126953125)"/>
<path d="M0 0 C1.88 0 1.88 0 3.8 0.01 C7.12 0.02 10.44 0.04 13.75 0.06 C17.14 0.08 20.54 0.09 23.93 0.1 C30.57 0.12 37.21 0.15 43.85 0.2 C45.65 3.74 47.23 6.92 48.04 10.82 C48.19 11.56 48.35 12.29 48.52 13.05 C48.85 15.2 48.85 15.2 48.85 19.2 C39.55 19.26 30.25 19.32 20.94 19.35 C16.62 19.37 12.31 19.39 7.99 19.42 C3.82 19.45 -0.35 19.47 -4.52 19.48 C-6.11 19.49 -7.7 19.5 -9.29 19.51 C-11.52 19.53 -13.75 19.54 -15.98 19.54 C-17.24 19.54 -18.51 19.55 -19.82 19.56 C-24.3 19.07 -26.87 17.52 -29.96 14.32 C-31.4 11.76 -31.24 10.08 -31.15 7.2 C-29.47 6.4 -27.78 5.61 -26.09 4.82 C-25.15 4.38 -24.21 3.94 -23.24 3.48 C-15.3 0.17 -8.57 -0.07 0 0 Z " fill="#000000" transform="translate(646.15234375,483.8046875)"/>
<path d="M0 0 C4.71 3.43 8.25 7.6 12 12 C12.33 12.33 12.66 12.66 13 13 C13.53 22.57 12.69 32.06 11.62 41.56 C11.44 43.41 11.44 43.41 11.24 45.29 C10.07 56.06 10.07 56.06 8 60 C6.35 61.12 6.35 61.12 4.41 61.8 C3.71 62.06 3.01 62.31 2.28 62.57 C1.18 62.94 1.18 62.94 0.06 63.31 C-0.67 63.58 -1.4 63.84 -2.15 64.11 C-5.2 65.19 -7.74 66 -11 66 C-11.2 57.95 -10.6 50.17 -9.62 42.19 C-8.47 32.34 -7.45 22.51 -6.65 12.63 C-6.58 11.78 -6.5 10.93 -6.43 10.06 C-6.37 9.32 -6.31 8.58 -6.25 7.82 C-6 6 -6 6 -5 4 C-4.34 4 -3.68 4 -3 4 C-2.67 3.01 -2.34 2.02 -2 1 C-1.34 0.67 -0.68 0.34 0 0 Z " fill="#000000" transform="translate(776,421)"/>
<path d="M0 0 C4.84 0.54 8.9 1.54 13.38 3.44 C14.41 3.87 15.45 4.3 16.52 4.75 C19 6 19 6 20 8 C19.83 10.86 19.59 13.67 19.29 16.52 C19.21 17.36 19.12 18.21 19.03 19.09 C18.85 20.89 18.67 22.69 18.48 24.48 C18.19 27.22 17.92 29.97 17.65 32.71 C17.47 34.46 17.29 36.2 17.11 37.95 C17.03 38.77 16.94 39.58 16.86 40.43 C16.07 47.81 14.95 52.73 9.06 57.69 C7.75 58.81 7.75 58.81 6.41 59.95 C5.22 60.96 5.22 60.96 4 62 C3.16 62.88 3.16 62.88 2.31 63.77 C1 65 1 65 -1 65 C-3.94 63.53 -4.64 61.99 -6 59 C-6 56.1 -5.85 53.53 -5.49 50.68 C-5.4 49.88 -5.31 49.07 -5.22 48.24 C-4.94 45.64 -4.62 43.04 -4.31 40.44 C-4.11 38.66 -3.91 36.89 -3.72 35.11 C-3.33 31.64 -2.94 28.17 -2.54 24.69 C-1.88 18.99 -1.3 13.28 -0.75 7.56 C-0.6 6.04 -0.45 4.52 -0.3 3 C-0.2 2.01 -0.1 1.02 0 0 Z " fill="#000000" transform="translate(464,352)"/>
<path d="M0 0 C4.9 0.54 8.93 1.59 13.44 3.56 C15.01 4.25 15.01 4.25 16.62 4.94 C17.41 5.29 18.19 5.64 19 6 C18.48 15.36 17.83 24.72 17.06 34.06 C16.95 35.52 16.95 35.52 16.84 37.02 C16.14 45.28 15.4 51.32 9.12 57.25 C8.26 58.08 7.4 58.91 6.51 59.77 C4.4 61.64 2.29 63.36 0 65 C-2.66 64.02 -3.79 63.39 -5.16 60.86 C-6.2 57.31 -5.99 54.61 -5.64 50.92 C-5.58 50.23 -5.52 49.55 -5.46 48.85 C-5.26 46.63 -5.03 44.41 -4.81 42.19 C-4.67 40.66 -4.52 39.13 -4.38 37.6 C-3.19 25.04 -1.71 12.51 0 0 Z " fill="#000000" transform="translate(778,352)"/>
<path d="M0 0 C4.9 0.63 8.91 1.58 13.44 3.56 C15.01 4.25 15.01 4.25 16.62 4.94 C17.41 5.29 18.19 5.64 19 6 C19.21 15.05 18.59 23.88 17.62 32.88 C17.44 34.79 17.44 34.79 17.24 36.75 C17.11 37.98 16.98 39.22 16.85 40.49 C16.74 41.6 16.62 42.71 16.5 43.85 C15.64 49.27 14.59 53.07 10.25 56.56 C9.54 57.14 8.84 57.72 8.11 58.32 C7.07 59.15 7.07 59.15 6 60 C4.83 60.98 3.66 61.96 2.5 62.94 C1.26 63.96 1.26 63.96 0 65 C-2.41 64.04 -3.74 63.41 -5.14 61.18 C-6.09 58.77 -6.15 57.4 -5.9 54.84 C-5.82 54 -5.75 53.16 -5.67 52.3 C-5.57 51.37 -5.47 50.45 -5.38 49.5 C-5.28 48.53 -5.19 47.56 -5.09 46.56 C-3.57 31.02 -1.77 15.51 0 0 Z " fill="#000000" transform="translate(628,352)"/>
<path d="M0 0 C18.81 0 37.62 0 57 0 C57 4.95 57 9.9 57 15 C38.19 15 19.38 15 0 15 C0 10.05 0 5.1 0 0 Z " fill="#000000" transform="translate(311,656)"/>
<path d="M0 0 C0.75 0.01 1.5 0.01 2.27 0.02 C3.08 0.02 3.89 0.02 4.72 0.03 C5.57 0.03 6.42 0.04 7.3 0.05 C8.15 0.06 9 0.06 9.88 0.06 C12 0.08 14.12 0.09 16.23 0.11 C17.19 3.99 17.23 7.27 16.86 11.24 C16.77 12.27 16.68 13.31 16.59 14.37 C16.23 17.11 16.23 17.11 15.23 20.11 C8.96 20.11 2.69 20.11 -3.77 20.11 C-5.06 16.23 -4.43 12.95 -3.89 8.99 C-3.8 8.25 -3.71 7.51 -3.61 6.74 C-2.76 0.18 -2.76 0.18 0 0 Z " fill="#000000" transform="translate(631.765869140625,777.886474609375)"/>
<path d="M0 0 C2.98 -0.03 5.96 -0.05 8.94 -0.06 C9.79 -0.07 10.64 -0.08 11.51 -0.09 C12.32 -0.09 13.13 -0.09 13.96 -0.1 C14.71 -0.1 15.46 -0.11 16.23 -0.11 C18 0 18 0 19 1 C18.94 3.83 18.81 6.62 18.62 9.44 C18.58 10.23 18.54 11.02 18.49 11.83 C18.13 17.74 18.13 17.74 17 20 C10.73 20 4.46 20 -2 20 C-2.2 13 -1.62 6.81 0 0 Z " fill="#000000" transform="translate(750,335)"/>
<path d="M0 0 C6.27 0 12.54 0 19 0 C20.3 3.91 19.62 7.21 19.06 11.19 C18.54 15.05 18.54 15.05 18 19 C11.4 19 4.8 19 -2 19 C-1.86 16.61 -1.71 14.21 -1.56 11.75 C-1.52 11 -1.48 10.26 -1.43 9.49 C-1.22 6.16 -0.81 3.25 0 0 Z " fill="#000000" transform="translate(573,484)"/>
</svg>
