<?xml version="1.0" encoding="UTF-8" standalone="no"?>
<!-- Generator: visioncortex VTracer 0.6.3 -->

<svg
   version="1.1"
   width="1000"
   height="1000"
   id="svg23"
   sodipodi:docname="icon.svg"
   inkscape:version="1.3.2 (091e20e, 2023-11-25)"
   xmlns:inkscape="http://www.inkscape.org/namespaces/inkscape"
   xmlns:sodipodi="http://sodipodi.sourceforge.net/DTD/sodipodi-0.dtd"
   xmlns="http://www.w3.org/2000/svg"
   xmlns:svg="http://www.w3.org/2000/svg">
  <defs
     id="defs23" />
  <sodipodi:namedview
     id="namedview23"
     pagecolor="#ffffff"
     bordercolor="#000000"
     borderopacity="0.25"
     inkscape:showpageshadow="2"
     inkscape:pageopacity="0.0"
     inkscape:pagecheckerboard="0"
     inkscape:deskcolor="#d1d1d1"
     inkscape:zoom="0.45818298"
     inkscape:cx="706.04979"
     inkscape:cy="651.48644"
     inkscape:window-width="1392"
     inkscape:window-height="1212"
     inkscape:window-x="758"
     inkscape:window-y="77"
     inkscape:window-maximized="0"
     inkscape:current-layer="svg23" />
  <path
     d="m 92.269348,12.721428 c 1.46,0 2.92,-0.01 4.38,-0.02 3.980002,-0.01 7.960002,-0.01 11.940002,0.01 4.34,0.01 8.68,-0.01 13.02,-0.02 7.6,-0.02 15.19,-0.02 22.79,-0.01 11.3,0.01 22.6,0 33.9,-0.01 20.18,-0.02 40.37,-0.03 60.55,-0.02 17.66,0.01 35.33,0.01 52.99,0 2.37,0 4.74,0 7.11,0 3.57,0 7.14,0 10.72,0 33.2,-0.02 66.4,-0.02 99.61,-0.01 1.25,0 2.5,0 3.79,0 10.16,0 20.32,0.01 30.48,0.01 39.64,0.02 79.28,0.01 118.92,-0.02 44.54,-0.03 89.08,-0.05 133.63,-0.04 4.75,0 9.5,0.01 14.25,0.01 1.17,0 2.34,0 3.54,0 17.65,0 35.3,-0.01 52.95,-0.02 20.08,-0.02 40.15,-0.02 60.22,0 11.23,0.01 22.46,0.01 33.69,-0.01 7.51,-0.01 15.02,-0.01 22.52,0.01 4.28,0.01 8.55,0.02 12.82,0 24.92,-0.1 47.5,1.24 67.14,18.65 0.88,0.78 1.77,1.56 2.68,2.36 12.62,11.81 22.66,28.81 23.45,46.48 0,1.58 0,1.58 0,3.19 0,1.23 0.01,2.45 0.01,3.71 0,1.36 0,2.71 0,4.07 0,1.44 0,2.89 0,4.34 0.01,3.99 0.01,7.990002 0.01,11.980002 0,4.34 0.01,8.68 0.02,13.02 0.01,8.61 0.01,17.22 0.02,25.84 0,10.31 0.01,20.63 0.02,30.94 0.03,24.93 0.04,49.87 0.06,74.8 0,8.26 0,16.52 0.01,24.77 0.02,43.91 0.05,87.82 0.06,131.72 0,10.18 0.01,20.35 0.01,30.52 0,1.27 0,2.53 0,3.83 0.01,40.98 0.04,81.96 0.08,122.94 0.05,42.12 0.07,84.24 0.08,126.37 0,5.95 0,11.9 0,17.85 0,1.17 0,2.34 0,3.55 0.01,18.84 0.03,37.68 0.05,56.53 0.03,18.94 0.04,37.88 0.03,56.83 -0.01,11.25 0,22.5 0.03,33.75 0.01,7.52 0.01,15.05 0,22.57 -0.01,4.28 -0.01,8.56 0.01,12.84 0.13,28.67 -3.1,51.52 -24.01,72.88 -13.87,13.77 -32.24,20.69 -51.67,20.85 -1.32,-0.01 -2.64,-0.02 -3.99,-0.03 -1.46,0.01 -2.92,0.01 -4.38,0.02 -3.98,0.02 -7.96,0.01 -11.94,0 -4.34,-0.01 -8.68,0 -13.02,0.01 -7.6,0.02 -15.2,0.02 -22.8,0.01 -11.29,-0.01 -22.59,0 -33.89,0.01 -20.19,0.03 -40.37,0.03 -60.55,0.02 -17.67,-0.01 -35.33,-0.01 -52.99,0 -2.37,0 -4.74,0 -7.11,0 -3.58,0 -7.15,0.01 -10.72,0.01 -33.2,0.01 -66.41,0.02 -99.61,0 -1.25,0 -2.5,0 -3.79,0 -10.16,0 -20.32,-0.01 -30.49,-0.01 -39.63,-0.01 -79.27,0 -118.91,0.02 -44.54,0.03 -89.09,0.05 -133.63,0.04 -4.75,0 -9.5,0 -14.25,0 -1.17,0 -2.34,0 -3.55,0 -17.65,-0.01 -35.3,0 -52.95,0.02 -20.07,0.01 -40.14,0.01 -60.22,-0.01 -11.23,-0.01 -22.46,-0.01 -33.69,0.01 -7.5,0.01 -15.01,0.01 -22.52,-0.01 -4.27,-0.01 -8.54,-0.02 -12.82,0 -24.910002,0.11 -47.500002,-1.23 -67.130002,-18.64 -0.89,-0.78 -1.77,-1.56 -2.69,-2.37 -12.61,-11.81 -22.65,-28.81 -23.44,-46.48 0,-1.05 0,-2.11 0,-3.19 -0.01,-1.23 -0.01,-2.45 -0.01,-3.71 0,-1.35 0,-2.71 0,-4.07 0,-1.44 0,-2.89 -0.01,-4.34 0,-3.99 -0.01,-7.98 -0.01,-11.98 0,-4.34 0,-8.68 -0.01,-13.01 -0.01,-8.62 -0.02,-17.23 -0.02,-25.84 0,-10.32 -0.02,-20.63 -0.03,-30.95 -0.02,-24.93 -0.04,-49.86 -0.05,-74.8 0,-8.26 -0.01,-16.51 -0.01,-24.77 -0.03,-43.91 -0.05,-87.81 -0.06,-131.72 -0.01,-10.17 -0.01,-20.35 -0.01,-30.52 0,-1.27 0,-2.53 0,-3.83 -0.02,-40.98 -0.05,-81.96 -0.09,-122.93 -0.04,-42.13 -0.07,-84.25 -0.07,-126.37 0,-5.96 0,-11.91 -0.01,-17.86 0,-1.17 0,-2.34 0,-3.54 0,-18.85 -0.02,-37.69 -0.05,-56.53 -0.02,-18.95 -0.03,-37.89 -0.02,-56.83 0.01,-11.26 0,-22.51 -0.03,-33.76 -0.02,-7.52 -0.01,-15.04 0,-22.57 0.01,-4.28 0.01,-8.56 -0.01,-12.84 -0.14,-28.670002 3.1,-51.520002 24,-72.880002 15.19,-15.07 34.65,-20.97 55.67,-20.82 z m -24.04,59.51 c -3.97,6.54 -6.13,12.15 -6.13,19.8 0,1.2 -0.01,2.39 -0.01,3.63 0,1.31 0,2.63 0,3.99 0,1.420002 0,2.830002 0,4.250002 -0.01,3.92 -0.01,7.83 -0.01,11.75 0,4.25 0,8.5 -0.01,12.75 -0.01,8.44 -0.01,16.88 -0.02,25.33 0,10.1 -0.01,20.21 -0.02,30.32 -0.02,24.43 -0.03,48.87 -0.04,73.3 0,11.56 -0.01,23.11 -0.01,34.67 -0.02,39.54 -0.03,79.08 -0.04,118.62 0,2.48 0,4.97 0,7.45 0,1.23 0,2.46 0,3.73 0,6.24 -0.01,12.48 -0.01,18.72 0,1.24 0,2.47 0,3.75 -0.01,40.15 -0.03,80.31 -0.06,120.46 -0.04,42.43 -0.06,84.87 -0.06,127.31 0,4.65 0,9.31 0,13.97 0,1.14 0,2.29 0,3.47 0,18.47 -0.02,36.94 -0.04,55.41 -0.02,18.55 -0.02,37.11 -0.02,55.67 0.01,11.03 0,22.05 -0.02,33.08 -0.01,7.37 -0.01,14.73 0,22.1 0.01,4.2 0.01,8.39 -0.01,12.59 -0.01,3.82 -0.01,7.65 0.01,11.47 0,2.01 -0.01,4.03 -0.03,6.05 0.08,9.88 1.67,19.41 8.68,26.86 6.41,5.2 13.51,7.62 21.65,7.62 1.8,0.01 1.8,0.01 3.63,0.01 1.32,0 2.63,0 3.99,0 1.420002,0 2.840002,0 4.250002,0.01 3.92,0 7.83,0 11.75,0 4.25,0 8.5,0.01 12.75,0.01 8.44,0.01 16.89,0.02 25.33,0.02 10.11,0 20.21,0.01 30.32,0.02 24.44,0.02 48.87,0.03 73.3,0.04 11.56,0 23.11,0.01 34.67,0.02 39.54,0.01 79.08,0.03 118.62,0.04 2.49,0 4.97,0 7.45,0 1.23,0 2.46,0 3.73,0 6.24,0 12.48,0 18.72,0 1.24,0 2.48,0 3.75,0 40.15,0.01 80.31,0.03 120.46,0.07 42.44,0.03 84.87,0.05 127.31,0.05 4.66,0 9.31,0 13.97,0 1.72,0 1.72,0 3.47,0 18.47,0.01 36.94,0.02 55.41,0.04 18.55,0.02 37.11,0.03 55.67,0.02 11.03,-0.01 22.06,0 33.09,0.02 7.36,0.02 14.73,0.01 22.09,0 4.2,-0.01 8.4,-0.01 12.59,0.01 3.83,0.02 7.65,0.01 11.47,0 2.02,-0.01 4.03,0.01 6.05,0.02 9.88,-0.07 19.41,-1.66 26.86,-8.68 5.21,-6.4 7.62,-13.51 7.63,-21.65 0,-1.79 0,-1.79 0.01,-3.62 0,-1.32 -0.01,-2.64 -0.01,-4 0,-1.41 0.01,-2.83 0.01,-4.25 0.01,-3.91 0.01,-7.83 0.01,-11.74 0,-4.26 0,-8.51 0.01,-12.76 0.01,-8.44 0.01,-16.88 0.01,-25.32 0.01,-10.11 0.01,-20.22 0.02,-30.33 0.02,-24.43 0.03,-48.86 0.04,-73.3 0.01,-11.55 0.01,-23.11 0.02,-34.66 0.02,-39.54 0.03,-79.09 0.04,-118.63 0,-2.48 0,-4.96 0,-7.45 0,-1.23 0,-2.46 0,-3.73 0,-6.24 0,-12.48 0,-18.72 0,-1.85 0,-1.85 0,-3.75 0.01,-40.15 0.04,-80.3 0.07,-120.46 0.03,-42.43 0.05,-84.87 0.06,-127.3 0,-4.66 0,-9.32 0,-13.97 0,-1.15 0,-2.3 0,-3.48 0,-18.47 0.02,-36.94 0.04,-55.4 0.02,-18.56 0.02,-37.12 0.01,-55.67 0,-11.03 0,-22.06 0.02,-33.09 0.02,-7.37 0.02,-14.73 0,-22.1 0,-4.2 0,-8.39 0.01,-12.59 0.02,-3.82 0.02,-7.64 0,-11.47 -0.01,-2.01 0.01,-4.030002 0.02,-6.040002 -0.07,-9.89 -1.66,-19.42 -8.68,-26.86 -6.4,-5.21 -13.51,-7.63 -21.65,-7.63 -1.79,-0.01 -1.79,-0.01 -3.62,-0.01 -1.32,0 -2.64,0 -4,0 -1.41,0 -2.83,0 -4.25,-0.01 -3.91,0 -7.83,0 -11.74,0 -4.25,0 -8.5,-0.01 -12.76,-0.01 -8.44,-0.01 -16.88,-0.02 -25.32,-0.02 -10.11,0 -20.22,-0.01 -30.33,-0.02 -24.43,-0.02 -48.86,-0.03 -73.3,-0.04 -11.55,0 -23.11,-0.01 -34.66,-0.01 -39.54,-0.02 -79.08,-0.04 -118.63,-0.04 -2.48,0 -4.96,0 -7.45,0 -1.23,0 -2.46,-0.01 -3.73,-0.01 -6.24,0 -12.47,0 -18.71,0 -1.24,0 -2.48,0 -3.76,0 -40.15,-0.01 -80.3,-0.03 -120.45,-0.06 -42.44,-0.04 -84.88,-0.06 -127.31,-0.06 -4.66,0 -9.32,0 -13.97,0 -1.15,0 -2.3,0 -3.48,0 -18.47,0 -36.93,-0.02 -55.4,-0.04 -18.56,-0.02 -37.12,-0.03 -55.67,-0.02 -11.03,0.01 -22.06,0 -33.09,-0.02 -7.36,-0.01 -14.73,-0.01 -22.1,0 -4.19,0.01 -8.39,0.01 -12.59,-0.01 -3.82,-0.01 -7.64,-0.01 -11.46,0.01 -2.02,0 -4.040002,-0.01 -6.050002,-0.03 -10.53,0.08 -21.36,1.92 -28.36,10.53 z"
     fill="#000000"
     id="path1" />
  <path
     d="m 783.47759,481.09477 c 0.91,0 1.82,0.01 2.75,0.01 1.36,-0.01 1.36,-0.01 2.75,-0.01 2.25,0.13 2.25,0.13 3.25,1.13 0.09,2.81 0.12,5.6 0.1,8.41 0,0.75 0,1.49 -0.01,2.26 0,2.8 -0.01,5.6 -0.03,8.4 -0.02,6.24 -0.04,12.49 -0.06,18.93 12.87,0 25.74,0 39,0 0,3.96 0,7.92 0,12 -12.87,0 -25.74,0 -39,0 0.04,12.79 0.04,12.79 0.09,25.58 0,1.6 0.01,3.2 0.01,4.79 0,0.84 0.01,1.68 0.01,2.54 0,2.03 -0.05,4.06 -0.11,6.09 -1,1 -1,1 -3.25,1.14 -0.91,-0.01 -1.82,-0.01 -2.75,-0.01 -1.36,0 -1.36,0 -2.75,0.01 -2.25,-0.14 -2.25,-0.14 -3.25,-1.14 -0.09,-2.88 -0.12,-5.74 -0.1,-8.63 0,-0.76 0,-1.53 0.01,-2.32 0,-2.87 0.01,-5.74 0.03,-8.61 0.03,-9.62 0.03,-9.62 0.06,-19.44 -13.2,0 -26.4,0 -40,0 0,-3.96 0,-7.92 0,-12 13.2,0 26.4,0 40,0 -0.04,-12.46 -0.04,-12.46 -0.09,-24.92 0,-1.55 -0.01,-3.11 -0.01,-4.67 0,-0.81 -0.01,-1.63 -0.01,-2.47 0,-1.98 0.05,-3.96 0.11,-5.94 1,-1 1,-1 3.25,-1.13 z"
     fill="#000000"
     id="path2" />
  <path
     d="m 659.27422,195.77348 c 1.16,0 1.16,0 2.34,0 2.53,0 5.05,0.03 7.58,0.06 1.76,0.01 3.52,0.02 5.28,0.02 4.62,0.02 9.24,0.06 13.86,0.1 4.71,0.04 9.43,0.06 14.15,0.08 9.25,0.04 18.5,0.11 27.74,0.19 -2.13,7.25 -5.22,13.47 -9,20 -8.05,0.17 -16.1,0.29 -24.15,0.37 -3.74,0.03 -7.48,0.08 -11.22,0.16 -31.81,0.67 -31.81,0.67 -45.63,-7.53 1.2,-5.12 2.66,-8.08 7.12,-11.12 3.91,-2.14 7.53,-2.42 11.93,-2.33 z"
     fill="#000000"
     id="path3" />
  <path
     d="m 509.27422,195.65996 c 1.16,0 1.16,0 2.34,0 2.53,0 5.05,0.04 7.58,0.08 1.76,0.01 3.52,0.02 5.28,0.02 4.62,0.02 9.24,0.07 13.86,0.12 4.71,0.06 9.43,0.08 14.15,0.1 9.25,0.06 18.5,0.14 27.74,0.25 -0.79,4.5 -2.41,8.21 -4.5,12.25 -0.32,0.63 -0.64,1.27 -0.97,1.93 -2.37,4.66 -2.37,4.66 -3.53,5.82 -1.87,0.13 -3.75,0.19 -5.62,0.22 -1.21,0.02 -2.42,0.05 -3.66,0.07 -5.59,0.07 -11.18,0.13 -16.77,0.17 -2.94,0.02 -5.87,0.06 -8.8,0.12 -32.28,0.64 -32.28,0.64 -45.15,-7.58 -0.33,-0.66 -0.66,-1.32 -1,-2 4.56,-7.84 9.7,-11.81 19.05,-11.57 z"
     fill="#000000"
     id="path4" />
  <path
     d="m 675.13152,344.8156 c 3.74,0.06 7.48,0.09 11.22,0.12 7.3,0.06 14.59,0.16 21.88,0.29 2.47,6.23 4.31,12.51 6,19 -10.35,0.07 -20.69,0.12 -31.04,0.16 -4.8,0.01 -9.6,0.03 -14.41,0.07 -4.63,0.03 -9.27,0.05 -13.9,0.06 -1.77,0 -3.54,0.01 -5.31,0.03 -2.48,0.02 -4.95,0.02 -7.43,0.02 -0.73,0.01 -1.46,0.02 -2.21,0.04 -4.43,-0.03 -7.17,-0.7 -10.7,-3.38 -2.27,-2.51 -3.55,-4.62 -4,-8 1.86,-3.73 6.59,-4.61 10.35,-5.92 12.68,-3.83 26.43,-2.73 39.55,-2.49 z"
     fill="#000000"
     id="path5" />
  <path
     d="m 345.42632,195.88701 c 0.69,0 1.39,0 2.1,0 2.27,0 4.55,0.02 6.82,0.05 1.58,0 3.16,0.01 4.75,0.01 4.15,0.01 8.3,0.04 12.46,0.07 4.24,0.04 8.48,0.05 12.73,0.06 8.31,0.04 16.63,0.09 24.94,0.15 -0.71,4.95 -2.05,8.43 -4.5,12.81 -0.94,1.71 -0.94,1.71 -1.9,3.46 -1.6,2.73 -1.6,2.73 -2.6,3.73 -1.66,0.13 -3.32,0.19 -4.98,0.23 -1.07,0.02 -2.14,0.04 -3.23,0.06 -4.95,0.07 -9.91,0.13 -14.86,0.17 -2.59,0.03 -5.18,0.07 -7.78,0.12 -15.49,0.33 -28.42,0.12 -42.15,-7.58 0.75,-4.43 1.82,-6.73 5,-10 4.56,-2.75 7.91,-3.37 13.2,-3.34 z"
     fill="#000000"
     id="path6" />
  <path
     d="m 345.28374,269.64653 c 1.2,-0.03 2.4,-0.05 3.63,-0.08 1.29,0 2.57,-0.01 3.9,-0.01 1.34,-0.01 2.69,-0.03 4.03,-0.04 2.81,-0.03 5.63,-0.03 8.44,-0.03 3.59,0 7.18,-0.05 10.77,-0.12 2.77,-0.05 5.55,-0.06 8.32,-0.05 1.96,-0.01 3.93,-0.05 5.89,-0.1 8.66,0.09 8.66,0.09 12.38,2.71 3.34,3.61 4.58,5.26 4.58,10.3 -2.06,3.47 -4.61,5.82 -8,8 -4.76,1.17 -9.39,1.15 -14.28,1.1 -1.38,0.01 -2.76,0.02 -4.14,0.03 -2.89,0.02 -5.77,0 -8.66,-0.03 -3.68,-0.04 -7.35,0 -11.03,0.05 -2.85,0.04 -5.7,0.04 -8.55,0.02 -2.01,-0.01 -4.02,0.02 -6.03,0.06 -8.97,-0.19 -8.97,-0.19 -12.97,-3.31 -1.98,-2.22 -3.72,-4.42 -5.34,-6.92 9.49,-11.47 9.49,-11.47 17.06,-11.58 z"
     fill="#000000"
     id="path7" />
  <path
     d="m 507.7979,269.97124 c 1.79,-0.04 1.79,-0.04 3.61,-0.09 4.77,-0.08 9.53,-0.16 14.3,-0.2 3.61,-0.04 7.22,-0.09 10.83,-0.19 3.5,-0.09 6.99,-0.14 10.49,-0.16 1.97,-0.02 3.94,-0.08 5.91,-0.15 6.93,0.02 10.65,0.61 15.68,5.6 1.24,1.45 2.46,2.93 3.61,4.45 -1.71,3.76 -3.69,5.5 -7,8 -0.64,0.78 -0.64,0.78 -1.29,1.59 -2.49,2.05 -4.42,1.83 -7.62,1.89 -1.21,0.03 -2.43,0.06 -3.68,0.09 -1.31,0.01 -2.63,0.02 -3.98,0.04 -1.37,0.01 -2.74,0.03 -4.1,0.05 -2.87,0.03 -5.74,0.05 -8.61,0.06 -3.65,0.01 -7.31,0.09 -10.97,0.17 -2.82,0.06 -5.65,0.07 -8.47,0.08 -2,0.01 -4,0.07 -6,0.12 -8.96,-0.06 -8.96,-0.06 -12.94,-3.16 -1.99,-2.23 -3.72,-4.43 -5.34,-6.93 1.15,-3.44 2.27,-4.34 5,-6.63 0.72,-0.61 1.44,-1.22 2.19,-1.85 0.6,-0.5 1.19,-1.01 1.81,-1.52 1.75,-1.75 4.19,-1.2 6.57,-1.26 z"
     fill="#000000"
     id="path8" />
  <path
     d="m 412.22759,282.22759 c 2.5,1.57 2.5,1.57 5,4 0.38,3.05 0.38,3.05 0,6.88 -0.09,1.07 -0.09,1.07 -0.19,2.17 -0.15,1.67 -0.32,3.34 -0.5,5 -0.35,3.37 -0.67,6.74 -0.99,10.11 -0.62,6.45 -1.28,12.9 -1.96,19.35 -0.32,3.06 -0.61,6.12 -0.9,9.18 -0.15,1.58 -0.3,3.16 -0.46,4.75 -0.06,0.68 -0.12,1.37 -0.18,2.07 -0.54,5.28 -1.85,10.03 -5.21,14.23 -3.56,2.84 -6.17,3.68 -10.61,4.26 -0.7,-1.99 -1.35,-3.99 -2,-6 -0.37,-1.11 -0.74,-2.23 -1.12,-3.38 -1.62,-6.72 -1.1,-13.76 -0.88,-20.62 0.04,-1.14 0.04,-1.14 0.07,-2.3 0.18,-4.82 0.47,-9.62 0.87,-14.43 0.12,-1.64 0.22,-3.29 0.29,-4.93 0.42,-9.02 1.23,-15.68 7.88,-22.22 6.85,-6.1 6.85,-6.1 10.89,-8.12 z"
     fill="#000000"
     id="path9" />
  <path
     d="m 413.22759,196.22759 c 4.86,0.74 6.77,2.24 10,6 2.29,3.51 2.1,6.09 1.71,10.2 -0.1,1.24 -0.21,2.49 -0.33,3.77 -0.06,0.66 -0.12,1.32 -0.19,2 -0.19,2.03 -0.36,4.05 -0.53,6.08 -0.82,9.99 -1.74,19.97 -2.66,29.95 -0.09,1.04 -0.19,2.07 -0.29,3.14 -0.22,2.39 -0.46,4.78 -0.71,7.17 -0.12,1.22 -0.25,2.43 -0.38,3.68 -0.68,3.29 -1.58,5.34 -3.62,8.01 -2.19,1.31 -2.19,1.31 -4,2 -1.63,-1.6 -3.25,-3.21 -4.88,-4.81 -0.9,-0.9 -1.8,-1.79 -2.74,-2.71 -3.22,-3.35 -4.36,-4.65 -4.46,-9.38 0.07,-1.68 0.16,-3.36 0.27,-5.04 0.05,-0.91 0.1,-1.81 0.15,-2.75 0.5,-8.01 1.19,-16.01 1.97,-24 0.11,-1.17 0.21,-2.33 0.32,-3.54 0.75,-7.19 2.26,-13.24 5.37,-19.77 0.49,-1.04 0.98,-2.09 1.48,-3.16 0.42,-0.82 0.84,-1.63 1.27,-2.46 0.43,-0.84 0.86,-1.68 1.3,-2.54 0.31,-0.61 0.63,-1.22 0.95,-1.84 z"
     fill="#000000"
     id="path10" />
  <path
     d="m 291.22759,282.22759 c 3.16,1.37 3.99,1.99 6,5 0.02,2.34 0.02,2.34 -0.29,5.16 -0.11,1.07 -0.22,2.15 -0.33,3.25 -0.13,1.19 -0.25,2.37 -0.38,3.59 -0.22,2.62 -0.44,5.25 -0.65,7.87 -2.18,26.14 -2.18,26.14 -3.85,38.44 -0.16,1.24 -0.16,1.24 -0.32,2.51 -0.84,5.76 -2.33,9.38 -6.49,13.43 -2.99,1.95 -5.2,2.27 -8.69,2.75 -0.69,-2.2 -1.35,-4.41 -2,-6.62 -0.37,-1.23 -0.74,-2.46 -1.12,-3.73 -2.48,-10.78 -0.74,-22.51 0.29,-33.42 0.21,-2.19 0.4,-4.38 0.59,-6.57 0.13,-1.42 0.26,-2.83 0.39,-4.25 0.17,-1.88 0.17,-1.88 0.35,-3.81 1.44,-10.33 1.44,-10.33 5.5,-13.87 0.58,-0.52 1.16,-1.03 1.75,-1.56 0.6,-0.51 1.2,-1.02 1.81,-1.55 0.61,-0.53 1.21,-1.06 1.83,-1.61 1.53,-1.35 3.07,-2.68 4.61,-4.01 0.33,-0.33 0.66,-0.66 1,-1 z"
     fill="#000000"
     id="path11" />
  <path
     d="m 575.22759,282.22759 c 3.45,1.15 4.21,1.91 6,5 0.14,2.26 0.14,2.26 -0.19,4.91 -0.12,1.06 -0.24,2.12 -0.36,3.21 -0.15,1.28 -0.3,2.56 -0.45,3.88 -0.23,2.48 -0.45,4.96 -0.67,7.44 -0.32,3.72 -0.66,7.45 -1,11.18 -0.18,1.92 -0.35,3.84 -0.53,5.76 -2.77,31.03 -2.77,31.03 -7.8,36.62 -3.75,2.97 -5.16,4 -10,4 -6.58,-16.25 -4.69,-31.98 -2.5,-48.91 0.35,-2.73 0.61,-5.45 0.8,-8.2 0.65,-7.46 1.43,-12.16 7.21,-17.18 1.05,-0.82 1.05,-0.82 2.11,-1.65 1.06,-0.9 1.06,-0.9 2.15,-1.82 1.71,-1.45 3.45,-2.86 5.23,-4.24 z"
     fill="#000000"
     id="path12" />
  <path
     d="m 293.22759,196.22759 c 3.42,0.29 4.96,0.97 7.69,3.12 4.34,5.4 4.57,10.7 3.92,17.4 -0.06,0.7 -0.13,1.4 -0.19,2.12 -0.21,2.25 -0.44,4.49 -0.67,6.74 -0.15,1.54 -0.29,3.09 -0.44,4.63 -0.85,8.89 -1.77,17.77 -2.92,26.63 -0.39,3.35 -0.55,6.67 -0.7,10.05 -0.38,5.32 -1.79,7.71 -5.69,11.31 -3.07,-1.37 -5.16,-2.91 -7.5,-5.31 -0.57,-0.58 -1.13,-1.15 -1.72,-1.74 -0.59,-0.64 -1.17,-1.29 -1.78,-1.95 -0.71,-0.67 -1.41,-1.34 -2.14,-2.03 -2.68,-4.28 -2,-7.49 -1.41,-12.36 0.09,-0.91 0.18,-1.82 0.28,-2.75 0.3,-2.89 0.63,-5.78 0.96,-8.67 0.2,-1.94 0.4,-3.87 0.6,-5.8 0.46,-4.37 0.94,-8.73 1.44,-13.1 0.18,-1.51 0.34,-3.02 0.5,-4.53 0.39,-3.64 0.87,-6.72 2.58,-9.97 0.36,-0.69 0.71,-1.38 1.07,-2.08 0.37,-0.69 0.74,-1.38 1.12,-2.09 0.55,-1.06 0.55,-1.06 1.12,-2.15 0.95,-1.83 1.91,-3.65 2.88,-5.47 0.33,-0.66 0.66,-1.32 1,-2 z"
     fill="#000000"
     id="path13" />
  <path
     d="m 358.28148,344.8156 c 3.39,0.06 6.77,0.09 10.16,0.12 6.6,0.06 13.19,0.16 19.79,0.29 0.83,2.79 1.67,5.58 2.5,8.38 0.35,1.19 0.35,1.19 0.72,2.4 0.22,0.76 0.45,1.52 0.68,2.31 0.32,1.05 0.32,1.05 0.64,2.12 0.46,1.79 0.46,1.79 0.46,3.79 -9.44,0.07 -18.87,0.12 -28.3,0.16 -4.38,0.01 -8.76,0.03 -13.14,0.07 -4.23,0.03 -8.45,0.05 -12.68,0.06 -1.61,0 -3.22,0.01 -4.84,0.03 -2.26,0.02 -4.52,0.02 -6.78,0.02 -1.28,0.01 -2.57,0.02 -3.89,0.02 -3.64,-0.39 -5.48,-1.18 -8.37,-3.36 -2.08,-2.62 -3.01,-4.1 -2.99,-7.46 0.99,-2.54 0.99,-2.54 3.75,-4.33 13.63,-5.67 27.78,-4.92 42.29,-4.62 z"
     fill="#000000"
     id="path14" />
  <path
     d="m 507.37993,345.03227 c 1.88,0 1.88,0 3.8,0.01 3.32,0.01 6.64,0.03 9.95,0.05 3.39,0.02 6.79,0.03 10.18,0.04 6.64,0.02 13.28,0.05 19.92,0.1 1.8,3.54 3.38,6.72 4.19,10.62 0.15,0.74 0.31,1.47 0.48,2.23 0.33,2.15 0.33,2.15 0.33,6.15 -9.3,0.06 -18.6,0.12 -27.91,0.15 -4.32,0.02 -8.63,0.04 -12.95,0.07 -4.17,0.03 -8.34,0.05 -12.51,0.06 -1.59,0.01 -3.18,0.02 -4.77,0.03 -2.23,0.02 -4.46,0.03 -6.69,0.03 -1.26,0 -2.53,0.01 -3.84,0.02 -4.48,-0.49 -7.05,-2.04 -10.14,-5.24 -1.44,-2.56 -1.28,-4.24 -1.19,-7.12 1.68,-0.8 3.37,-1.59 5.06,-2.38 0.94,-0.44 1.88,-0.88 2.85,-1.34 7.94,-3.31 14.67,-3.55 23.24,-3.48 z"
     fill="#000000"
     id="path15" />
  <path
     d="m 637.22759,282.22759 c 4.71,3.43 8.25,7.6 12,12 0.33,0.33 0.66,0.66 1,1 0.53,9.57 -0.31,19.06 -1.38,28.56 -0.18,1.85 -0.18,1.85 -0.38,3.73 -1.17,10.77 -1.17,10.77 -3.24,14.71 -1.65,1.12 -1.65,1.12 -3.59,1.8 -0.7,0.26 -1.4,0.51 -2.13,0.77 -1.1,0.37 -1.1,0.37 -2.22,0.74 -0.73,0.27 -1.46,0.53 -2.21,0.8 -3.05,1.08 -5.59,1.89 -8.85,1.89 -0.2,-8.05 0.4,-15.83 1.38,-23.81 1.15,-9.85 2.17,-19.68 2.97,-29.56 0.07,-0.85 0.15,-1.7 0.22,-2.57 0.06,-0.74 0.12,-1.48 0.18,-2.24 0.25,-1.82 0.25,-1.82 1.25,-3.82 0.66,0 1.32,0 2,0 0.33,-0.99 0.66,-1.98 1,-3 0.66,-0.33 1.32,-0.66 2,-1 z"
     fill="#000000"
     id="path16" />
  <path
     d="m 325.22759,213.22759 c 4.84,0.54 8.9,1.54 13.38,3.44 1.03,0.43 2.07,0.86 3.14,1.31 2.48,1.25 2.48,1.25 3.48,3.25 -0.17,2.86 -0.41,5.67 -0.71,8.52 -0.08,0.84 -0.17,1.69 -0.26,2.57 -0.18,1.8 -0.36,3.6 -0.55,5.39 -0.29,2.74 -0.56,5.49 -0.83,8.23 -0.18,1.75 -0.36,3.49 -0.54,5.24 -0.08,0.82 -0.17,1.63 -0.25,2.48 -0.79,7.38 -1.91,12.3 -7.8,17.26 -1.31,1.12 -1.31,1.12 -2.65,2.26 -1.19,1.01 -1.19,1.01 -2.41,2.05 -0.84,0.88 -0.84,0.88 -1.69,1.77 -1.31,1.23 -1.31,1.23 -3.31,1.23 -2.94,-1.47 -3.64,-3.01 -5,-6 0,-2.9 0.15,-5.47 0.51,-8.32 0.09,-0.8 0.18,-1.61 0.27,-2.44 0.28,-2.6 0.6,-5.2 0.91,-7.8 0.2,-1.78 0.4,-3.55 0.59,-5.33 0.39,-3.47 0.78,-6.94 1.18,-10.42 0.66,-5.7 1.24,-11.41 1.79,-17.13 0.15,-1.52 0.3,-3.04 0.45,-4.56 0.1,-0.99 0.2,-1.98 0.3,-3 z"
     fill="#000000"
     id="path17" />
  <path
     d="m 639.22759,213.22759 c 4.9,0.54 8.93,1.59 13.44,3.56 1.57,0.69 1.57,0.69 3.18,1.38 0.79,0.35 1.57,0.7 2.38,1.06 -0.52,9.36 -1.17,18.72 -1.94,28.06 -0.11,1.46 -0.11,1.46 -0.22,2.96 -0.7,8.26 -1.44,14.3 -7.72,20.23 -0.86,0.83 -1.72,1.66 -2.61,2.52 -2.11,1.87 -4.22,3.59 -6.51,5.23 -2.66,-0.98 -3.79,-1.61 -5.16,-4.14 -1.04,-3.55 -0.83,-6.25 -0.48,-9.94 0.06,-0.69 0.12,-1.37 0.18,-2.07 0.2,-2.22 0.43,-4.44 0.65,-6.66 0.14,-1.53 0.29,-3.06 0.43,-4.59 1.19,-12.56 2.67,-25.09 4.38,-37.6 z"
     fill="#000000"
     id="path18" />
  <path
     d="m 489.22759,213.22759 c 4.9,0.63 8.91,1.58 13.44,3.56 1.57,0.69 1.57,0.69 3.18,1.38 0.79,0.35 1.57,0.7 2.38,1.06 0.21,9.05 -0.41,17.88 -1.38,26.88 -0.18,1.91 -0.18,1.91 -0.38,3.87 -0.13,1.23 -0.26,2.47 -0.39,3.74 -0.11,1.11 -0.23,2.22 -0.35,3.36 -0.86,5.42 -1.91,9.22 -6.25,12.71 -0.71,0.58 -1.41,1.16 -2.14,1.76 -1.04,0.83 -1.04,0.83 -2.11,1.68 -1.17,0.98 -2.34,1.96 -3.5,2.94 -1.24,1.02 -1.24,1.02 -2.5,2.06 -2.41,-0.96 -3.74,-1.59 -5.14,-3.82 -0.95,-2.41 -1.01,-3.78 -0.76,-6.34 0.08,-0.84 0.15,-1.68 0.23,-2.54 0.1,-0.93 0.2,-1.85 0.29,-2.8 0.1,-0.97 0.19,-1.94 0.29,-2.94 1.52,-15.54 3.32,-31.05 5.09,-46.56 z"
     fill="#000000"
     id="path19" />
  <path
     d="m 172.22759,517.22759 c 18.81,0 37.62,0 57,0 0,4.95 0,9.9 0,15 -18.81,0 -37.62,0 -57,0 0,-4.95 0,-9.9 0,-15 z"
     fill="#000000"
     id="path20" />
  <path
     d="m 492.99346,639.11406 c 0.75,0.01 1.5,0.01 2.27,0.02 0.81,0 1.62,0 2.45,0.01 0.85,0 1.7,0.01 2.58,0.02 0.85,0.01 1.7,0.01 2.58,0.01 2.12,0.02 4.24,0.03 6.35,0.05 0.96,3.88 1,7.16 0.63,11.13 -0.09,1.03 -0.18,2.07 -0.27,3.13 -0.36,2.74 -0.36,2.74 -1.36,5.74 -6.27,0 -12.54,0 -19,0 -1.29,-3.88 -0.66,-7.16 -0.12,-11.12 0.09,-0.74 0.18,-1.48 0.28,-2.25 0.85,-6.56 0.85,-6.56 3.61,-6.74 z"
     fill="#000000"
     id="path21" />
  <path
     d="m 611.22759,196.22759 c 2.98,-0.03 5.96,-0.05 8.94,-0.06 0.85,-0.01 1.7,-0.02 2.57,-0.03 0.81,0 1.62,0 2.45,-0.01 0.75,0 1.5,-0.01 2.27,-0.01 1.77,0.11 1.77,0.11 2.77,1.11 -0.06,2.83 -0.19,5.62 -0.38,8.44 -0.04,0.79 -0.08,1.58 -0.13,2.39 -0.36,5.91 -0.36,5.91 -1.49,8.17 -6.27,0 -12.54,0 -19,0 -0.2,-7 0.38,-13.19 2,-20 z"
     fill="#000000"
     id="path22" />
  <path
     d="m 434.22759,345.22759 c 6.27,0 12.54,0 19,0 1.3,3.91 0.62,7.21 0.06,11.19 -0.52,3.86 -0.52,3.86 -1.06,7.81 -6.6,0 -13.2,0 -20,0 0.14,-2.39 0.29,-4.79 0.44,-7.25 0.04,-0.75 0.08,-1.49 0.13,-2.26 0.21,-3.33 0.62,-6.24 1.43,-9.49 z"
     fill="#000000"
     id="path23" />
</svg>
